Ubuntu-M.ufo
<glyph name="exclam" format="2">
	<unicode hex="0021"/>
	<advance width="306"/>
	<outline>
		<contour>
			<point x="218" y="507" type="line"/>
			<point x="218" y="424"/>
			<point x="206" y="286"/>
			<point x="197" y="216" type="qcurve"/>
			<point x="111" y="216" type="line"/>
			<point x="101" y="286"/>
			<point x="89" y="425"/>
			<point x="89" y="507" type="qcurve"/>
			<point x="89" y="693" type="line"/>
			<point x="218" y="693" type="line"/>
		</contour>
		<contour>
			<point x="233" y="66" type="qcurve"/>
			<point x="233" y="31"/>
			<point x="187" y="-13"/>
			<point x="153" y="-13" type="qcurve"/>
			<point x="120" y="-13"/>
			<point x="73" y="31"/>
			<point x="73" y="66" type="qcurve"/>
			<point x="73" y="101"/>
			<point x="120" y="146"/>
			<point x="153" y="146" type="qcurve"/>
			<point x="187" y="146"/>
			<point x="233" y="101"/>
		</contour>
	</outline>
</glyph>
<glyph name="dollar" format="2">
	<unicode hex="0024"/>
	<advance width="568"/>
	<outline>
		<contour>
			<point x="234" y="13" type="line"/>
			<point x="162" y="18"/>
			<point x="73" y="47"/>
			<point x="51" y="59" type="qcurve"/>
			<point x="85" y="154" type="line"/>
			<point x="117" y="138"/>
			<point x="208" y="112"/>
			<point x="266" y="112" type="qcurve"/>
			<point x="335" y="112"/>
			<point x="388" y="153"/>
			<point x="388" y="187" type="qcurve"/>
			<point x="388" y="210"/>
			<point x="366" y="244"/>
			<point x="326" y="270"/>
			<point x="271" y="292"/>
			<point x="238" y="304" type="qcurve"/>
			<point x="207" y="315"/>
			<point x="146" y="343"/>
			<point x="97" y="384"/>
			<point x="67" y="442"/>
			<point x="67" y="484" type="qcurve"/>
			<point x="67" y="553"/>
			<point x="149" y="650"/>
			<point x="234" y="664" type="qcurve"/>
			<point x="234" y="776" type="line"/>
			<point x="338" y="776" type="line"/>
			<point x="338" y="668" type="line"/>
			<point x="386" y="664"/>
			<point x="462" y="645"/>
			<point x="484" y="636" type="qcurve"/>
			<point x="459" y="537" type="line"/>
			<point x="430" y="548"/>
			<point x="351" y="568"/>
			<point x="300" y="568" type="qcurve"/>
			<point x="246" y="568"/>
			<point x="192" y="529"/>
			<point x="192" y="495" type="qcurve"/>
			<point x="192" y="475"/>
			<point x="208" y="448"/>
			<point x="240" y="427"/>
			<point x="286" y="408"/>
			<point x="315" y="398" type="qcurve"/>
			<point x="356" y="382"/>
			<point x="429" y="347"/>
			<point x="483" y="300"/>
			<point x="514" y="236"/>
			<point x="514" y="192" type="qcurve"/>
			<point x="514" y="126"/>
			<point x="432" y="30"/>
			<point x="338" y="16" type="qcurve"/>
			<point x="338" y="-109" type="line"/>
			<point x="234" y="-109" type="line"/>
		</contour>
	</outline>
</glyph>
<glyph name="percent" format="2">
	<unicode hex="0025"/>
	<advance width="897"/>
	<outline>
		<contour>
			<point x="383" y="519" type="qcurve"/>
			<point x="383" y="428"/>
			<point x="290" y="330"/>
			<point x="215" y="330" type="qcurve"/>
			<point x="178" y="330"/>
			<point x="116" y="355"/>
			<point x="72" y="403"/>
			<point x="47" y="474"/>
			<point x="47" y="519" type="qcurve"/>
			<point x="47" y="611"/>
			<point x="140" y="708"/>
			<point x="215" y="708" type="qcurve"/>
			<point x="290" y="708"/>
			<point x="383" y="611"/>
		</contour>
		<contour>
			<point x="288" y="519" type="qcurve"/>
			<point x="288" y="572"/>
			<point x="249" y="625"/>
			<point x="215" y="625" type="qcurve"/>
			<point x="181" y="625"/>
			<point x="143" y="572"/>
			<point x="143" y="519" type="qcurve"/>
			<point x="143" y="466"/>
			<point x="181" y="413"/>
			<point x="215" y="413" type="qcurve"/>
			<point x="249" y="413"/>
			<point x="288" y="466"/>
		</contour>
		<contour>
			<point x="586" y="693" type="line"/>
			<point x="701" y="693" type="line"/>
			<point x="310" y="0" type="line"/>
			<point x="195" y="0" type="line"/>
		</contour>
		<contour>
			<point x="850" y="173" type="qcurve"/>
			<point x="850" y="82"/>
			<point x="757" y="-16"/>
			<point x="682" y="-16" type="qcurve"/>
			<point x="645" y="-16"/>
			<point x="583" y="9"/>
			<point x="539" y="57"/>
			<point x="514" y="128"/>
			<point x="514" y="173" type="qcurve"/>
			<point x="514" y="265"/>
			<point x="607" y="362"/>
			<point x="682" y="362" type="qcurve"/>
			<point x="757" y="362"/>
			<point x="850" y="265"/>
		</contour>
		<contour>
			<point x="755" y="173" type="qcurve"/>
			<point x="755" y="226"/>
			<point x="716" y="279"/>
			<point x="682" y="279" type="qcurve"/>
			<point x="648" y="279"/>
			<point x="610" y="226"/>
			<point x="610" y="173" type="qcurve"/>
			<point x="610" y="120"/>
			<point x="648" y="67"/>
			<point x="682" y="67" type="qcurve"/>
			<point x="716" y="67"/>
			<point x="755" y="120"/>
		</contour>
	</outline>
</glyph>
<glyph name="ampersand" format="2">
	<unicode hex="0026"/>
	<advance width="684"/>
	<outline>
		<contour>
			<point x="43" y="184" type="qcurve"/>
			<point x="43" y="222"/>
			<point x="66" y="284"/>
			<point x="105" y="334"/>
			<point x="156" y="372"/>
			<point x="184" y="387" type="qcurve"/>
			<point x="154" y="419"/>
			<point x="117" y="491"/>
			<point x="117" y="531" type="qcurve"/>
			<point x="117" y="615"/>
			<point x="220" y="709"/>
			<point x="304" y="709" type="qcurve"/>
			<point x="347" y="709"/>
			<point x="414" y="685"/>
			<point x="458" y="643"/>
			<point x="481" y="586"/>
			<point x="481" y="554" type="qcurve"/>
			<point x="481" y="522"/>
			<point x="460" y="466"/>
			<point x="424" y="419"/>
			<point x="377" y="380"/>
			<point x="350" y="365" type="qcurve"/>
			<point x="487" y="227" type="line"/>
			<point x="501" y="253"/>
			<point x="519" y="318"/>
			<point x="524" y="349" type="qcurve"/>
			<point x="625" y="336" type="line"/>
			<point x="620" y="296"/>
			<point x="588" y="199"/>
			<point x="562" y="155" type="qcurve"/>
			<point x="595" y="118"/>
			<point x="656" y="39"/>
			<point x="676" y="0" type="qcurve"/>
			<point x="550" y="0" type="line"/>
			<point x="540" y="17"/>
			<point x="509" y="57"/>
			<point x="492" y="74" type="qcurve"/>
			<point x="451" y="37"/>
			<point x="345" y="-9"/>
			<point x="278" y="-9" type="qcurve"/>
			<point x="211" y="-9"/>
			<point x="121" y="27"/>
			<point x="66" y="83"/>
			<point x="43" y="151"/>
		</contour>
		<contour>
			<point x="159" y="192" type="qcurve"/>
			<point x="159" y="175"/>
			<point x="172" y="139"/>
			<point x="201" y="108"/>
			<point x="248" y="88"/>
			<point x="281" y="88" type="qcurve"/>
			<point x="326" y="88"/>
			<point x="399" y="116"/>
			<point x="425" y="142" type="qcurve"/>
			<point x="249" y="321" type="line"/>
			<point x="234" y="313"/>
			<point x="202" y="291"/>
			<point x="176" y="260"/>
			<point x="159" y="219"/>
		</contour>
		<contour>
			<point x="376" y="549" type="qcurve"/>
			<point x="376" y="578"/>
			<point x="338" y="619"/>
			<point x="302" y="619" type="qcurve"/>
			<point x="264" y="619"/>
			<point x="224" y="573"/>
			<point x="224" y="538" type="qcurve"/>
			<point x="224" y="509"/>
			<point x="256" y="452"/>
			<point x="284" y="426" type="qcurve"/>
			<point x="303" y="436"/>
			<point x="336" y="460"/>
			<point x="361" y="490"/>
			<point x="376" y="526"/>
		</contour>
	</outline>
</glyph>
<glyph name="quotesingle" format="2">
	<unicode hex="0027"/>
	<advance width="260"/>
	<outline>
		<contour>
			<point x="191" y="760" type="line"/>
			<point x="191" y="698" type="line"/>
			<point x="191" y="650"/>
			<point x="177" y="539"/>
			<point x="168" y="483" type="qcurve"/>
			<point x="91" y="483" type="line"/>
			<point x="81" y="539"/>
			<point x="69" y="649"/>
			<point x="69" y="699" type="qcurve"/>
			<point x="69" y="760" type="line"/>
		</contour>
	</outline>
</glyph>
<glyph name="parenleft" format="2">
	<unicode hex="0028"/>
	<advance width="339"/>
	<outline>
		<contour>
			<point x="195" y="299" type="qcurve"/>
			<point x="195" y="176"/>
			<point x="269" y="-40"/>
			<point x="335" y="-129" type="qcurve"/>
			<point x="250" y="-185" type="line"/>
			<point x="169" y="-88"/>
			<point x="75" y="159"/>
			<point x="75" y="299" type="qcurve"/>
			<point x="75" y="439"/>
			<point x="169" y="686"/>
			<point x="250" y="783" type="qcurve"/>
			<point x="335" y="727" type="line"/>
			<point x="269" y="637"/>
			<point x="195" y="422"/>
		</contour>
	</outline>
</glyph>
<glyph name="parenright" format="2">
	<unicode hex="0029"/>
	<advance width="339"/>
	<outline>
		<contour>
			<point x="144" y="299" type="qcurve"/>
			<point x="144" y="422"/>
			<point x="70" y="637"/>
			<point x="4" y="727" type="qcurve"/>
			<point x="89" y="783" type="line"/>
			<point x="170" y="686"/>
			<point x="264" y="439"/>
			<point x="264" y="299" type="qcurve"/>
			<point x="264" y="159"/>
			<point x="170" y="-88"/>
			<point x="89" y="-185" type="qcurve"/>
			<point x="4" y="-129" type="line"/>
			<point x="70" y="-40"/>
			<point x="144" y="176"/>
		</contour>
	</outline>
</glyph>
<glyph name="asterisk" format="2">
	<unicode hex="002A"/>
	<advance width="482"/>
	<outline>
		<contour>
			<point x="268" y="530" type="curve"/>
			<point x="280" y="576"/>
			<point x="296" y="630"/>
			<point x="296" y="676" type="curve" smooth="yes"/>
			<point x="296" y="693" type="line"/>
			<point x="186" y="693" type="line"/>
			<point x="186" y="676" type="line"/>
			<point x="186" y="630"/>
			<point x="202" y="576"/>
			<point x="214" y="530" type="curve"/>
			<point x="175" y="555"/>
			<point x="128" y="587"/>
			<point x="83" y="602" type="curve" smooth="yes"/>
			<point x="68" y="607" type="line"/>
			<point x="34" y="503" type="line"/>
			<point x="50" y="498" type="line"/>
			<point x="94" y="482"/>
			<point x="152" y="481"/>
			<point x="199" y="480" type="curve"/>
			<point x="161" y="451"/>
			<point x="116" y="416"/>
			<point x="89" y="378" type="curve" smooth="yes"/>
			<point x="78" y="364" type="line"/>
			<point x="168" y="301" type="line"/>
			<point x="177" y="314" type="line"/>
			<point x="204" y="352"/>
			<point x="224" y="406"/>
			<point x="241" y="449" type="curve"/>
			<point x="259" y="406"/>
			<point x="279" y="352"/>
			<point x="305" y="314" type="curve" smooth="yes"/>
			<point x="315" y="301" type="line"/>
			<point x="404" y="364" type="line"/>
			<point x="394" y="378" type="line"/>
			<point x="366" y="416"/>
			<point x="321" y="451"/>
			<point x="284" y="480" type="curve"/>
			<point x="331" y="481"/>
			<point x="390" y="485"/>
			<point x="432" y="498" type="curve" smooth="yes"/>
			<point x="448" y="503" type="line"/>
			<point x="414" y="607" type="line"/>
			<point x="399" y="602" type="line"/>
			<point x="355" y="587"/>
			<point x="307" y="555"/>
		</contour>
	</outline>
</glyph>
<glyph name="plus" format="2">
	<unicode hex="002B"/>
	<advance width="568"/>
	<outline>
		<contour>
			<point x="52" y="337" type="line"/>
			<point x="230" y="337" type="line"/>
			<point x="230" y="533" type="line"/>
			<point x="338" y="533" type="line"/>
			<point x="338" y="337" type="line"/>
			<point x="516" y="337" type="line"/>
			<point x="516" y="235" type="line"/>
			<point x="338" y="235" type="line"/>
			<point x="338" y="39" type="line"/>
			<point x="230" y="39" type="line"/>
			<point x="230" y="235" type="line"/>
			<point x="52" y="235" type="line"/>
		</contour>
	</outline>
</glyph>
<glyph name="comma" format="2">
	<unicode hex="002C"/>
	<advance width="268"/>
	<outline>
		<contour>
			<point x="202" y="133" type="line"/>
			<point x="204" y="116"/>
			<point x="204" y="100"/>
			<point x="204" y="92" type="qcurve"/>
			<point x="204" y="30"/>
			<point x="165" y="-102"/>
			<point x="130" y="-161" type="qcurve"/>
			<point x="35" y="-135" type="line"/>
			<point x="59" y="-77"/>
			<point x="76" y="34"/>
			<point x="76" y="76" type="qcurve"/>
			<point x="76" y="88"/>
			<point x="75" y="124"/>
			<point x="74" y="133" type="qcurve"/>
		</contour>
	</outline>
</glyph>
<glyph name="hyphen" format="2">
	<unicode hex="002D"/>
	<advance width="315"/>
	<outline>
		<contour>
			<point x="23" y="341" type="line"/>
			<point x="292" y="341" type="line"/>
			<point x="292" y="230" type="line"/>
			<point x="23" y="230" type="line"/>
		</contour>
	</outline>
</glyph>
<glyph name="period" format="2">
	<unicode hex="002E"/>
	<advance width="266"/>
	<outline>
		<contour>
			<point x="213" y="66" type="qcurve"/>
			<point x="213" y="31"/>
			<point x="166" y="-13"/>
			<point x="133" y="-13" type="qcurve"/>
			<point x="99" y="-13"/>
			<point x="53" y="31"/>
			<point x="53" y="66" type="qcurve"/>
			<point x="53" y="101"/>
			<point x="99" y="146"/>
			<point x="133" y="146" type="qcurve"/>
			<point x="166" y="146"/>
			<point x="213" y="101"/>
		</contour>
	</outline>
</glyph>
<glyph name="zero" format="2">
	<unicode hex="0030"/>
	<advance width="568"/>
	<outline>
		<contour>
			<point x="525" y="347" type="qcurve"/>
			<point x="525" y="172"/>
			<point x="397" y="-15"/>
			<point x="284" y="-15" type="qcurve"/>
			<point x="171" y="-15"/>
			<point x="43" y="172"/>
			<point x="43" y="347" type="qcurve"/>
			<point x="43" y="434"/>
			<point x="76" y="569"/>
			<point x="139" y="661"/>
			<point x="228" y="709"/>
			<point x="284" y="709" type="qcurve"/>
			<point x="397" y="709"/>
			<point x="525" y="522"/>
		</contour>
		<contour>
			<point x="400" y="347" type="qcurve"/>
			<point x="400" y="401"/>
			<point x="388" y="495"/>
			<point x="361" y="564"/>
			<point x="317" y="604"/>
			<point x="284" y="604" type="qcurve"/>
			<point x="251" y="604"/>
			<point x="206" y="564"/>
			<point x="179" y="495"/>
			<point x="168" y="401"/>
			<point x="168" y="347" type="qcurve"/>
			<point x="168" y="293"/>
			<point x="179" y="199"/>
			<point x="206" y="130"/>
			<point x="251" y="90"/>
			<point x="284" y="90" type="qcurve"/>
			<point x="317" y="90"/>
			<point x="361" y="130"/>
			<point x="388" y="199"/>
			<point x="400" y="293"/>
		</contour>
	</outline>
</glyph>
<glyph name="one" format="2">
	<unicode hex="0031"/>
	<advance width="568"/>
	<outline>
		<contour>
			<point x="90" y="549" type="line"/>
			<point x="148" y="572"/>
			<point x="265" y="644"/>
			<point x="310" y="693" type="qcurve"/>
			<point x="395" y="693" type="line"/>
			<point x="395" y="0" type="line"/>
			<point x="274" y="0" type="line"/>
			<point x="274" y="531" type="line"/>
			<point x="247" y="510"/>
			<point x="165" y="470"/>
			<point x="127" y="457" type="qcurve"/>
		</contour>
	</outline>
</glyph>
<glyph name="two" format="2">
	<unicode hex="0032"/>
	<advance width="568"/>
	<outline>
		<contour>
			<point x="481" y="513" type="qcurve"/>
			<point x="481" y="477"/>
			<point x="451" y="408"/>
			<point x="404" y="343"/>
			<point x="344" y="282"/>
			<point x="314" y="253" type="qcurve"/>
			<point x="298" y="238"/>
			<point x="258" y="196"/>
			<point x="222" y="154"/>
			<point x="196" y="115"/>
			<point x="195" y="102" type="qcurve"/>
			<point x="503" y="102" type="line"/>
			<point x="503" y="0" type="line"/>
			<point x="62" y="0" type="line"/>
			<point x="61" y="8"/>
			<point x="61" y="31"/>
			<point x="61" y="37" type="qcurve"/>
			<point x="61" y="85"/>
			<point x="92" y="166"/>
			<point x="142" y="236"/>
			<point x="204" y="298"/>
			<point x="235" y="328" type="qcurve"/>
			<point x="259" y="351"/>
			<point x="303" y="395"/>
			<point x="336" y="438"/>
			<point x="356" y="483"/>
			<point x="356" y="507" type="qcurve"/>
			<point x="356" y="559"/>
			<point x="296" y="603"/>
			<point x="253" y="603" type="qcurve"/>
			<point x="225" y="603"/>
			<point x="177" y="587"/>
			<point x="140" y="565"/>
			<point x="112" y="542"/>
			<point x="105" y="535" type="qcurve"/>
			<point x="45" y="620" type="line"/>
			<point x="87" y="660"/>
			<point x="200" y="709"/>
			<point x="265" y="709" type="qcurve"/>
			<point x="376" y="709"/>
			<point x="481" y="604"/>
		</contour>
	</outline>
</glyph>
<glyph name="three" format="2">
	<unicode hex="0033"/>
	<advance width="568"/>
	<outline>
		<contour>
			<point x="236" y="-15" type="qcurve"/>
			<point x="209" y="-15"/>
			<point x="152" y="-8"/>
			<point x="101" y="3"/>
			<point x="59" y="16"/>
			<point x="48" y="22" type="qcurve"/>
			<point x="72" y="125" type="line"/>
			<point x="93" y="115"/>
			<point x="173" y="90"/>
			<point x="232" y="90" type="qcurve"/>
			<point x="311" y="90"/>
			<point x="381" y="151"/>
			<point x="381" y="202" type="qcurve"/>
			<point x="381" y="235"/>
			<point x="354" y="279"/>
			<point x="307" y="306"/>
			<point x="246" y="317"/>
			<point x="212" y="317" type="qcurve"/>
			<point x="171" y="317" type="line"/>
			<point x="171" y="415" type="line"/>
			<point x="221" y="415" type="line"/>
			<point x="244" y="415"/>
			<point x="291" y="424"/>
			<point x="329" y="447"/>
			<point x="353" y="485"/>
			<point x="353" y="515" type="qcurve"/>
			<point x="353" y="539"/>
			<point x="335" y="573"/>
			<point x="306" y="595"/>
			<point x="268" y="605"/>
			<point x="247" y="605" type="qcurve"/>
			<point x="202" y="605"/>
			<point x="132" y="578"/>
			<point x="105" y="561" type="qcurve"/>
			<point x="61" y="651" type="line"/>
			<point x="75" y="660"/>
			<point x="115" y="680"/>
			<point x="164" y="698"/>
			<point x="220" y="709"/>
			<point x="251" y="709" type="qcurve"/>
			<point x="309" y="709"/>
			<point x="393" y="681"/>
			<point x="448" y="630"/>
			<point x="475" y="561"/>
			<point x="475" y="520" type="qcurve"/>
			<point x="475" y="472"/>
			<point x="422" y="396"/>
			<point x="380" y="376" type="qcurve"/>
			<point x="434" y="357"/>
			<point x="505" y="269"/>
			<point x="505" y="200" type="qcurve"/>
			<point x="505" y="154"/>
			<point x="473" y="75"/>
			<point x="407" y="18"/>
			<point x="306" y="-15"/>
		</contour>
	</outline>
</glyph>
<glyph name="four" format="2">
	<unicode hex="0034"/>
	<advance width="568"/>
	<outline>
		<contour>
			<point x="337" y="544" type="line"/>
			<point x="313" y="515"/>
			<point x="262" y="449"/>
			<point x="214" y="377"/>
			<point x="170" y="302"/>
			<point x="152" y="265" type="qcurve"/>
			<point x="337" y="265" type="line"/>
		</contour>
		<contour>
			<point x="455" y="693" type="line"/>
			<point x="455" y="265" type="line"/>
			<point x="533" y="265" type="line"/>
			<point x="533" y="166" type="line"/>
			<point x="455" y="166" type="line"/>
			<point x="455" y="0" type="line"/>
			<point x="337" y="0" type="line"/>
			<point x="337" y="166" type="line"/>
			<point x="33" y="166" type="line"/>
			<point x="33" y="252" type="line"/>
			<point x="53" y="296"/>
			<point x="120" y="410"/>
			<point x="202" y="530"/>
			<point x="294" y="646"/>
			<point x="340" y="693" type="qcurve"/>
		</contour>
	</outline>
</glyph>
<glyph name="five" format="2">
	<unicode hex="0035"/>
	<advance width="568"/>
	<outline>
		<contour>
			<point x="383" y="198" type="qcurve"/>
			<point x="383" y="231"/>
			<point x="357" y="283"/>
			<point x="292" y="319"/>
			<point x="183" y="337"/>
			<point x="100" y="337" type="qcurve"/>
			<point x="111" y="433"/>
			<point x="123" y="606"/>
			<point x="127" y="693" type="qcurve"/>
			<point x="481" y="693" type="line"/>
			<point x="481" y="591" type="line"/>
			<point x="230" y="591" type="line"/>
			<point x="229" y="574"/>
			<point x="226" y="531"/>
			<point x="223" y="487"/>
			<point x="219" y="447"/>
			<point x="217" y="433" type="qcurve"/>
			<point x="365" y="425"/>
			<point x="506" y="306"/>
			<point x="506" y="203" type="qcurve"/>
			<point x="506" y="156"/>
			<point x="474" y="76"/>
			<point x="408" y="18"/>
			<point x="308" y="-15"/>
			<point x="241" y="-15" type="qcurve"/>
			<point x="214" y="-15"/>
			<point x="158" y="-7"/>
			<point x="107" y="4"/>
			<point x="67" y="16"/>
			<point x="57" y="21" type="qcurve"/>
			<point x="80" y="123" type="line"/>
			<point x="101" y="113"/>
			<point x="180" y="90"/>
			<point x="237" y="90" type="qcurve"/>
			<point x="276" y="90"/>
			<point x="332" y="107"/>
			<point x="367" y="137"/>
			<point x="383" y="176"/>
		</contour>
	</outline>
</glyph>
<glyph name="six" format="2">
	<unicode hex="0036"/>
	<advance width="568"/>
	<outline>
		<contour>
			<point x="282" y="337" type="qcurve"/>
			<point x="253" y="337"/>
			<point x="199" y="327"/>
			<point x="177" y="317" type="qcurve"/>
			<point x="176" y="309"/>
			<point x="175" y="290"/>
			<point x="175" y="281" type="qcurve"/>
			<point x="175" y="241"/>
			<point x="186" y="170"/>
			<point x="213" y="117"/>
			<point x="260" y="86"/>
			<point x="295" y="86" type="qcurve"/>
			<point x="324" y="86"/>
			<point x="365" y="110"/>
			<point x="391" y="148"/>
			<point x="403" y="193"/>
			<point x="403" y="214" type="qcurve"/>
			<point x="403" y="274"/>
			<point x="345" y="337"/>
		</contour>
		<contour>
			<point x="297" y="433" type="qcurve"/>
			<point x="359" y="433"/>
			<point x="446" y="398"/>
			<point x="500" y="338"/>
			<point x="525" y="259"/>
			<point x="525" y="216" type="qcurve"/>
			<point x="525" y="177"/>
			<point x="498" y="95"/>
			<point x="441" y="28"/>
			<point x="355" y="-15"/>
			<point x="296" y="-15" type="qcurve"/>
			<point x="177" y="-15"/>
			<point x="52" y="142"/>
			<point x="52" y="280" type="qcurve"/>
			<point x="52" y="380"/>
			<point x="111" y="535"/>
			<point x="220" y="641"/>
			<point x="375" y="696"/>
			<point x="472" y="697" type="qcurve"/>
			<point x="479" y="597" type="line"/>
			<point x="425" y="596"/>
			<point x="331" y="575"/>
			<point x="257" y="531"/>
			<point x="204" y="461"/>
			<point x="190" y="410" type="qcurve"/>
			<point x="239" y="433"/>
		</contour>
	</outline>
</glyph>
<glyph name="seven" format="2">
	<unicode hex="0037"/>
	<advance width="568"/>
	<outline>
		<contour>
			<point x="154" y="0" type="line"/>
			<point x="160" y="76"/>
			<point x="202" y="244"/>
			<point x="263" y="403"/>
			<point x="336" y="542"/>
			<point x="372" y="589" type="qcurve"/>
			<point x="53" y="589" type="line"/>
			<point x="53" y="693" type="line"/>
			<point x="516" y="693" type="line"/>
			<point x="516" y="601" type="line"/>
			<point x="483" y="564"/>
			<point x="405" y="436"/>
			<point x="335" y="275"/>
			<point x="284" y="91"/>
			<point x="278" y="0" type="qcurve"/>
		</contour>
	</outline>
</glyph>
<glyph name="eight" format="2">
	<unicode hex="0038"/>
	<advance width="568"/>
	<outline>
		<contour>
			<point x="520" y="186" type="qcurve"/>
			<point x="520" y="143"/>
			<point x="490" y="69"/>
			<point x="430" y="15"/>
			<point x="341" y="-15"/>
			<point x="283" y="-15" type="qcurve"/>
			<point x="215" y="-15"/>
			<point x="125" y="23"/>
			<point x="71" y="81"/>
			<point x="48" y="148"/>
			<point x="48" y="178" type="qcurve"/>
			<point x="48" y="208"/>
			<point x="65" y="259"/>
			<point x="95" y="302"/>
			<point x="133" y="338"/>
			<point x="154" y="352" type="qcurve"/>
			<point x="108" y="384"/>
			<point x="63" y="459"/>
			<point x="63" y="513" type="qcurve"/>
			<point x="63" y="552"/>
			<point x="94" y="623"/>
			<point x="152" y="677"/>
			<point x="234" y="709"/>
			<point x="284" y="709" type="qcurve"/>
			<point x="343" y="709"/>
			<point x="426" y="675"/>
			<point x="479" y="621"/>
			<point x="503" y="555"/>
			<point x="503" y="524" type="qcurve"/>
			<point x="503" y="469"/>
			<point x="443" y="384"/>
			<point x="404" y="359" type="qcurve"/>
			<point x="463" y="327"/>
			<point x="520" y="243"/>
		</contour>
		<contour>
			<point x="167" y="180" type="qcurve"/>
			<point x="167" y="165"/>
			<point x="179" y="131"/>
			<point x="207" y="103"/>
			<point x="251" y="84"/>
			<point x="284" y="84" type="qcurve"/>
			<point x="314" y="84"/>
			<point x="358" y="100"/>
			<point x="386" y="127"/>
			<point x="400" y="162"/>
			<point x="400" y="180" type="qcurve"/>
			<point x="400" y="208"/>
			<point x="378" y="250"/>
			<point x="337" y="281"/>
			<point x="281" y="304"/>
			<point x="247" y="313" type="qcurve"/>
			<point x="211" y="290"/>
			<point x="167" y="225"/>
		</contour>
		<contour>
			<point x="385" y="522" type="qcurve"/>
			<point x="385" y="535"/>
			<point x="374" y="566"/>
			<point x="349" y="592"/>
			<point x="311" y="610"/>
			<point x="284" y="610" type="qcurve"/>
			<point x="257" y="610"/>
			<point x="218" y="593"/>
			<point x="194" y="566"/>
			<point x="182" y="535"/>
			<point x="182" y="520" type="qcurve"/>
			<point x="182" y="482"/>
			<point x="239" y="414"/>
			<point x="306" y="394" type="qcurve"/>
			<point x="343" y="417"/>
			<point x="385" y="476"/>
		</contour>
	</outline>
</glyph>
<glyph name="nine" format="2">
	<unicode hex="0039"/>
	<advance width="568"/>
	<outline>
		<contour>
			<point x="287" y="359" type="curve" smooth="yes"/>
			<point x="203" y="359"/>
			<point x="165" y="401"/>
			<point x="165" y="482" type="curve" smooth="yes"/>
			<point x="165" y="537"/>
			<point x="196" y="609"/>
			<point x="273" y="609" type="curve" smooth="yes"/>
			<point x="367" y="609"/>
			<point x="393" y="520"/>
			<point x="393" y="414" type="curve" smooth="yes"/>
			<point x="393" y="406"/>
			<point x="393" y="395"/>
			<point x="392" y="381" type="curve"/>
			<point x="365" y="367"/>
			<point x="325" y="359"/>
		</contour>
		<contour>
			<point x="382" y="286" type="curve"/>
			<point x="348" y="147"/>
			<point x="248" y="100"/>
			<point x="89" y="99" type="curve"/>
			<point x="94" y="-2" type="line"/>
			<point x="381" y="0"/>
			<point x="517" y="140"/>
			<point x="517" y="409" type="curve" smooth="yes"/>
			<point x="517" y="598"/>
			<point x="432" y="709"/>
			<point x="270" y="709" type="curve" smooth="yes"/>
			<point x="112" y="709"/>
			<point x="43" y="581"/>
			<point x="43" y="478" type="curve" smooth="yes"/>
			<point x="43" y="358"/>
			<point x="109" y="263"/>
			<point x="273" y="263" type="curve" smooth="yes"/>
			<point x="309" y="263"/>
			<point x="350" y="272"/>
		</contour>
	</outline>
</glyph>
<glyph name="less" format="2">
	<unicode hex="003C"/>
	<advance width="568"/>
	<outline>
		<contour>
			<point x="52" y="336" type="line"/>
			<point x="483" y="518" type="line"/>
			<point x="516" y="419" type="line"/>
			<point x="181" y="285" type="line"/>
			<point x="516" y="151" type="line"/>
			<point x="483" y="52" type="line"/>
			<point x="52" y="234" type="line"/>
		</contour>
	</outline>
</glyph>
<glyph name="equal" format="2">
	<unicode hex="003D"/>
	<advance width="568"/>
	<outline>
		<contour>
			<point x="52" y="127" type="line"/>
			<point x="516" y="127" type="line"/>
			<point x="516" y="229" type="line"/>
			<point x="52" y="229" type="line"/>
		</contour>
		<contour>
			<point x="52" y="343" type="line"/>
			<point x="516" y="343" type="line"/>
			<point x="516" y="445" type="line"/>
			<point x="52" y="445" type="line"/>
		</contour>
	</outline>
</glyph>
<glyph name="question" format="2">
	<unicode hex="003F"/>
	<advance width="424"/>
	<outline>
		<contour>
			<point x="184" y="606" type="qcurve"/>
			<point x="149" y="606"/>
			<point x="85" y="589"/>
			<point x="50" y="570" type="qcurve"/>
			<point x="16" y="663" type="line"/>
			<point x="53" y="684"/>
			<point x="148" y="709"/>
			<point x="198" y="709" type="qcurve"/>
			<point x="258" y="709"/>
			<point x="336" y="676"/>
			<point x="382" y="626"/>
			<point x="400" y="566"/>
			<point x="400" y="538" type="qcurve"/>
			<point x="400" y="504"/>
			<point x="375" y="450"/>
			<point x="337" y="404"/>
			<point x="293" y="363"/>
			<point x="255" y="320"/>
			<point x="230" y="272"/>
			<point x="230" y="242" type="qcurve"/>
			<point x="230" y="237"/>
			<point x="230" y="224"/>
			<point x="231" y="218" type="qcurve"/>
			<point x="127" y="218" type="line"/>
			<point x="125" y="228"/>
			<point x="123" y="251"/>
			<point x="123" y="261" type="qcurve"/>
			<point x="123" y="294"/>
			<point x="145" y="346"/>
			<point x="179" y="390"/>
			<point x="218" y="428"/>
			<point x="252" y="466"/>
			<point x="274" y="506"/>
			<point x="274" y="530" type="qcurve"/>
			<point x="274" y="563"/>
			<point x="229" y="606"/>
		</contour>
		<contour>
			<point x="262" y="66" type="qcurve"/>
			<point x="262" y="31"/>
			<point x="216" y="-13"/>
			<point x="182" y="-13" type="qcurve"/>
			<point x="149" y="-13"/>
			<point x="102" y="31"/>
			<point x="102" y="66" type="qcurve"/>
			<point x="102" y="101"/>
			<point x="149" y="146"/>
			<point x="182" y="146" type="qcurve"/>
			<point x="216" y="146"/>
			<point x="262" y="101"/>
		</contour>
	</outline>
</glyph>
<glyph name="at" format="2">
	<unicode hex="0040"/>
	<advance width="971"/>
	<outline>
		<contour>
			<point x="700" y="35" type="qcurve"/>
			<point x="670" y="35"/>
			<point x="620" y="52"/>
			<point x="603" y="70" type="qcurve"/>
			<point x="581" y="54"/>
			<point x="522" y="38"/>
			<point x="490" y="38" type="qcurve"/>
			<point x="441" y="38"/>
			<point x="360" y="68"/>
			<point x="301" y="128"/>
			<point x="269" y="217"/>
			<point x="269" y="276" type="qcurve"/>
			<point x="269" y="325"/>
			<point x="301" y="412"/>
			<point x="362" y="476"/>
			<point x="451" y="513"/>
			<point x="508" y="513" type="qcurve"/>
			<point x="563" y="513"/>
			<point x="651" y="495"/>
			<point x="677" y="485" type="qcurve"/>
			<point x="677" y="175" type="line"/>
			<point x="677" y="147"/>
			<point x="698" y="126"/>
			<point x="716" y="126" type="qcurve"/>
			<point x="759" y="126"/>
			<point x="808" y="233"/>
			<point x="808" y="333" type="qcurve"/>
			<point x="808" y="395"/>
			<point x="765" y="502"/>
			<point x="683" y="580"/>
			<point x="566" y="625"/>
			<point x="493" y="625" type="qcurve"/>
			<point x="421" y="625"/>
			<point x="300" y="577"/>
			<point x="213" y="487"/>
			<point x="164" y="357"/>
			<point x="164" y="275" type="qcurve"/>
			<point x="164" y="189"/>
			<point x="214" y="60"/>
			<point x="305" y="-26"/>
			<point x="432" y="-70"/>
			<point x="510" y="-70" type="qcurve"/>
			<point x="564" y="-70"/>
			<point x="647" y="-57"/>
			<point x="668" y="-52" type="qcurve"/>
			<point x="680" y="-136" type="line"/>
			<point x="669" y="-139"/>
			<point x="634" y="-147"/>
			<point x="589" y="-154"/>
			<point x="537" y="-159"/>
			<point x="510" y="-159" type="qcurve"/>
			<point x="417" y="-159"/>
			<point x="254" y="-109"/>
			<point x="133" y="-3"/>
			<point x="62" y="161"/>
			<point x="62" y="275" type="qcurve"/>
			<point x="62" y="384"/>
			<point x="134" y="549"/>
			<point x="254" y="658"/>
			<point x="409" y="713"/>
			<point x="493" y="713" type="qcurve"/>
			<point x="580" y="713"/>
			<point x="732" y="661"/>
			<point x="844" y="562"/>
			<point x="909" y="418"/>
			<point x="909" y="326" type="qcurve"/>
			<point x="909" y="255"/>
			<point x="878" y="147"/>
			<point x="822" y="73"/>
			<point x="746" y="35"/>
		</contour>
		<contour>
			<point x="571" y="144" type="qcurve"/>
			<point x="569" y="155"/>
			<point x="566" y="183"/>
			<point x="566" y="196" type="qcurve"/>
			<point x="566" y="416" type="line"/>
			<point x="546" y="421"/>
			<point x="514" y="421" type="qcurve"/>
			<point x="480" y="421"/>
			<point x="431" y="399"/>
			<point x="399" y="360"/>
			<point x="384" y="307"/>
			<point x="384" y="276" type="qcurve"/>
			<point x="384" y="213"/>
			<point x="438" y="131"/>
			<point x="495" y="131" type="qcurve"/>
			<point x="513" y="131"/>
			<point x="552" y="136"/>
		</contour>
	</outline>
</glyph>
<glyph name="A" format="2">
	<unicode hex="0041"/>
	<advance width="684"/>
	<outline>
		<contour>
			<point x="543" y="0" type="line"/>
			<point x="529" y="41"/>
			<point x="499" y="121"/>
			<point x="485" y="163" type="qcurve"/>
			<point x="193" y="163" type="line"/>
			<point x="179" y="121"/>
			<point x="150" y="40"/>
			<point x="136" y="0" type="qcurve"/>
			<point x="5" y="0" type="line"/>
			<point x="44" y="111"/>
			<point x="114" y="299"/>
			<point x="181" y="467"/>
			<point x="247" y="619"/>
			<point x="282" y="693" type="qcurve"/>
			<point x="401" y="693" type="line"/>
			<point x="436" y="619"/>
			<point x="502" y="467"/>
			<point x="569" y="299"/>
			<point x="640" y="111"/>
			<point x="679" y="0" type="qcurve"/>
		</contour>
		<contour>
			<point x="339" y="559" type="qcurve"/>
			<point x="316" y="506"/>
			<point x="257" y="354"/>
			<point x="225" y="265" type="qcurve"/>
			<point x="453" y="265" type="line"/>
			<point x="421" y="354"/>
			<point x="361" y="508"/>
		</contour>
	</outline>
</glyph>
<glyph name="B" format="2">
	<unicode hex="0042"/>
	<advance width="657"/>
	<outline>
		<contour>
			<point x="292" y="-8" type="qcurve"/>
			<point x="237" y="-8"/>
			<point x="125" y="-1"/>
			<point x="83" y="10" type="qcurve"/>
			<point x="83" y="683" type="line"/>
			<point x="105" y="687"/>
			<point x="155" y="694"/>
			<point x="207" y="698"/>
			<point x="258" y="700"/>
			<point x="281" y="700" type="qcurve"/>
			<point x="344" y="700"/>
			<point x="452" y="681"/>
			<point x="531" y="637"/>
			<point x="575" y="565"/>
			<point x="575" y="512" type="qcurve"/>
			<point x="575" y="463"/>
			<point x="528" y="393"/>
			<point x="486" y="372" type="qcurve"/>
			<point x="549" y="351"/>
			<point x="609" y="269"/>
			<point x="609" y="206" type="qcurve"/>
			<point x="609" y="99"/>
			<point x="453" y="-8"/>
		</contour>
		<contour>
			<point x="207" y="312" type="line"/>
			<point x="207" y="101" type="line"/>
			<point x="228" y="99"/>
			<point x="276" y="97"/>
			<point x="296" y="97" type="qcurve"/>
			<point x="335" y="97"/>
			<point x="402" y="107"/>
			<point x="451" y="132"/>
			<point x="480" y="174"/>
			<point x="480" y="207" type="qcurve"/>
			<point x="480" y="266"/>
			<point x="394" y="312"/>
			<point x="318" y="312" type="qcurve"/>
		</contour>
		<contour>
			<point x="207" y="411" type="line"/>
			<point x="296" y="411" type="line"/>
			<point x="368" y="411"/>
			<point x="450" y="452"/>
			<point x="450" y="505" type="qcurve"/>
			<point x="450" y="555"/>
			<point x="365" y="597"/>
			<point x="297" y="597" type="qcurve"/>
			<point x="268" y="597"/>
			<point x="223" y="595"/>
			<point x="207" y="593" type="qcurve"/>
		</contour>
	</outline>
</glyph>
<glyph name="C" format="2">
	<unicode hex="0043"/>
	<advance width="638"/>
	<outline>
		<contour>
			<point x="391" y="-15" type="qcurve"/>
			<point x="313" y="-15"/>
			<point x="189" y="33"/>
			<point x="103" y="126"/>
			<point x="57" y="260"/>
			<point x="57" y="347" type="qcurve"/>
			<point x="57" y="434"/>
			<point x="110" y="568"/>
			<point x="202" y="661"/>
			<point x="326" y="709"/>
			<point x="397" y="709" type="qcurve"/>
			<point x="440" y="709"/>
			<point x="510" y="696"/>
			<point x="562" y="680"/>
			<point x="596" y="662"/>
			<point x="603" y="658" type="qcurve"/>
			<point x="566" y="555" type="line"/>
			<point x="542" y="570"/>
			<point x="453" y="597"/>
			<point x="401" y="597" type="qcurve"/>
			<point x="356" y="597"/>
			<point x="278" y="566"/>
			<point x="221" y="504"/>
			<point x="189" y="410"/>
			<point x="189" y="348" type="qcurve"/>
			<point x="189" y="293"/>
			<point x="214" y="201"/>
			<point x="266" y="134"/>
			<point x="346" y="97"/>
			<point x="402" y="97" type="qcurve"/>
			<point x="469" y="97"/>
			<point x="553" y="124"/>
			<point x="576" y="136" type="qcurve"/>
			<point x="610" y="33" type="line"/>
			<point x="598" y="25"/>
			<point x="557" y="9"/>
			<point x="501" y="-6"/>
			<point x="431" y="-15"/>
		</contour>
	</outline>
</glyph>
<glyph name="D" format="2">
	<unicode hex="0044"/>
	<advance width="726"/>
	<outline>
		<contour>
			<point x="209" y="104" type="line"/>
			<point x="220" y="103"/>
			<point x="256" y="102"/>
			<point x="287" y="102" type="qcurve"/>
			<point x="414" y="102"/>
			<point x="539" y="231"/>
			<point x="539" y="347" type="qcurve"/>
			<point x="539" y="465"/>
			<point x="417" y="591"/>
			<point x="289" y="591" type="qcurve"/>
			<point x="233" y="591"/>
			<point x="209" y="588" type="qcurve"/>
		</contour>
		<contour>
			<point x="671" y="347" type="qcurve"/>
			<point x="671" y="257"/>
			<point x="615" y="124"/>
			<point x="512" y="35"/>
			<point x="367" y="-8"/>
			<point x="279" y="-8" type="qcurve"/>
			<point x="237" y="-8"/>
			<point x="131" y="-1"/>
			<point x="83" y="10" type="qcurve"/>
			<point x="83" y="683" type="line"/>
			<point x="131" y="694"/>
			<point x="239" y="700"/>
			<point x="281" y="700" type="qcurve"/>
			<point x="368" y="700"/>
			<point x="512" y="659"/>
			<point x="615" y="572"/>
			<point x="671" y="439"/>
		</contour>
	</outline>
</glyph>
<glyph name="E" format="2">
	<unicode hex="0045"/>
	<advance width="586"/>
	<outline>
		<contour>
			<point x="552" y="0" type="line"/>
			<point x="552" y="107" type="line"/>
			<point x="209" y="107" type="line"/>
			<point x="209" y="310" type="line"/>
			<point x="493" y="310" type="line"/>
			<point x="493" y="415" type="line"/>
			<point x="209" y="415" type="line"/>
			<point x="209" y="586" type="line"/>
			<point x="528" y="586" type="line"/>
			<point x="528" y="693" type="line"/>
			<point x="83" y="693" type="line"/>
			<point x="83" y="0" type="line"/>
		</contour>
	</outline>
</glyph>
<glyph name="F" format="2">
	<unicode hex="0046"/>
	<advance width="551"/>
	<outline>
		<contour>
			<point x="209" y="0" type="line"/>
			<point x="209" y="302" type="line"/>
			<point x="486" y="302" type="line"/>
			<point x="486" y="409" type="line"/>
			<point x="209" y="409" type="line"/>
			<point x="209" y="586" type="line"/>
			<point x="521" y="586" type="line"/>
			<point x="521" y="693" type="line"/>
			<point x="83" y="693" type="line"/>
			<point x="83" y="0" type="line"/>
		</contour>
	</outline>
</glyph>
<glyph name="H" format="2">
	<unicode hex="0048"/>
	<advance width="719"/>
	<outline>
		<contour>
			<point x="510" y="693" type="line"/>
			<point x="636" y="693" type="line"/>
			<point x="636" y="0" type="line"/>
			<point x="510" y="0" type="line"/>
			<point x="510" y="307" type="line"/>
			<point x="209" y="307" type="line"/>
			<point x="209" y="0" type="line"/>
			<point x="83" y="0" type="line"/>
			<point x="83" y="693" type="line"/>
			<point x="209" y="693" type="line"/>
			<point x="209" y="416" type="line"/>
			<point x="510" y="416" type="line"/>
		</contour>
	</outline>
</glyph>
<glyph name="J" format="2">
	<unicode hex="004A"/>
	<advance width="513"/>
	<outline>
		<contour>
			<point x="435" y="228" type="line"/>
			<point x="435" y="177"/>
			<point x="413" y="89"/>
			<point x="358" y="23"/>
			<point x="265" y="-15"/>
			<point x="194" y="-15" type="qcurve"/>
			<point x="128" y="-15"/>
			<point x="31" y="22"/>
			<point x="5" y="43" type="qcurve"/>
			<point x="50" y="142" type="line"/>
			<point x="75" y="125"/>
			<point x="148" y="94"/>
			<point x="186" y="94" type="qcurve"/>
			<point x="250" y="94"/>
			<point x="308" y="158"/>
			<point x="308" y="236" type="qcurve"/>
			<point x="308" y="693" type="line"/>
			<point x="435" y="693" type="line"/>
		</contour>
	</outline>
</glyph>
<glyph name="K" format="2">
	<unicode hex="004B"/>
	<advance width="651"/>
	<outline>
		<contour>
			<point x="497" y="0" type="line"/>
			<point x="471" y="40"/>
			<point x="403" y="128"/>
			<point x="328" y="210"/>
			<point x="248" y="284"/>
			<point x="209" y="311" type="qcurve"/>
			<point x="209" y="0" type="line"/>
			<point x="83" y="0" type="line"/>
			<point x="83" y="693" type="line"/>
			<point x="209" y="693" type="line"/>
			<point x="209" y="407" type="line"/>
			<point x="242" y="440"/>
			<point x="314" y="515"/>
			<point x="385" y="592"/>
			<point x="449" y="664"/>
			<point x="475" y="693" type="qcurve"/>
			<point x="626" y="693" type="line"/>
			<point x="593" y="655"/>
			<point x="519" y="573"/>
			<point x="441" y="490"/>
			<point x="362" y="408"/>
			<point x="324" y="371" type="qcurve"/>
			<point x="366" y="339"/>
			<point x="453" y="254"/>
			<point x="537" y="157"/>
			<point x="614" y="52"/>
			<point x="646" y="0" type="qcurve"/>
		</contour>
	</outline>
</glyph>
<glyph name="M" format="2">
	<unicode hex="004D"/>
	<advance width="884"/>
	<outline>
		<contour>
			<point x="117" y="693" type="line"/>
			<point x="92" y="501"/>
			<point x="75" y="230"/>
			<point x="64" y="0" type="curve"/>
			<point x="188" y="0" type="line"/>
			<point x="193" y="160"/>
			<point x="200" y="338"/>
			<point x="214" y="497" type="curve"/>
			<point x="258" y="408"/>
			<point x="356" y="184"/>
			<point x="395" y="92" type="curve"/>
			<point x="489" y="92" type="line"/>
			<point x="528" y="184"/>
			<point x="626" y="407"/>
			<point x="670" y="497" type="curve"/>
			<point x="684" y="338"/>
			<point x="691" y="160"/>
			<point x="696" y="0" type="curve"/>
			<point x="820" y="0" type="line"/>
			<point x="809" y="229"/>
			<point x="791" y="490"/>
			<point x="767" y="693" type="curve"/>
			<point x="653" y="693" type="line"/>
			<point x="594" y="591"/>
			<point x="505" y="388"/>
			<point x="444" y="246" type="curve"/>
			<point x="383" y="388"/>
			<point x="293" y="591"/>
			<point x="234" y="693" type="curve"/>
		</contour>
	</outline>
</glyph>
<glyph name="N" format="2">
	<unicode hex="004E"/>
	<advance width="740"/>
	<outline>
		<contour>
			<point x="550" y="0" type="line"/>
			<point x="516" y="57"/>
			<point x="432" y="188"/>
			<point x="342" y="321"/>
			<point x="249" y="446"/>
			<point x="207" y="496" type="qcurve"/>
			<point x="207" y="0" type="line"/>
			<point x="83" y="0" type="line"/>
			<point x="83" y="693" type="line"/>
			<point x="186" y="693" type="line"/>
			<point x="226" y="651"/>
			<point x="318" y="536"/>
			<point x="411" y="412"/>
			<point x="498" y="287"/>
			<point x="532" y="233" type="qcurve"/>
			<point x="532" y="693" type="line"/>
			<point x="657" y="693" type="line"/>
			<point x="657" y="0" type="line"/>
		</contour>
	</outline>
</glyph>
<glyph name="O" format="2">
	<unicode hex="004F"/>
	<advance width="782"/>
	<outline>
		<contour>
			<point x="186" y="347" type="qcurve"/>
			<point x="186" y="290"/>
			<point x="214" y="197"/>
			<point x="267" y="132"/>
			<point x="343" y="96"/>
			<point x="391" y="96" type="qcurve"/>
			<point x="438" y="96"/>
			<point x="514" y="132"/>
			<point x="567" y="197"/>
			<point x="595" y="290"/>
			<point x="595" y="347" type="qcurve"/>
			<point x="595" y="404"/>
			<point x="567" y="497"/>
			<point x="514" y="562"/>
			<point x="438" y="598"/>
			<point x="391" y="598" type="qcurve"/>
			<point x="343" y="598"/>
			<point x="267" y="562"/>
			<point x="214" y="496"/>
			<point x="186" y="404"/>
		</contour>
		<contour>
			<point x="727" y="347" type="qcurve"/>
			<point x="727" y="258"/>
			<point x="674" y="122"/>
			<point x="583" y="31"/>
			<point x="461" y="-15"/>
			<point x="392" y="-15" type="qcurve"/>
			<point x="323" y="-15"/>
			<point x="200" y="31"/>
			<point x="109" y="122"/>
			<point x="55" y="258"/>
			<point x="55" y="347" type="qcurve"/>
			<point x="55" y="436"/>
			<point x="109" y="571"/>
			<point x="202" y="663"/>
			<point x="324" y="709"/>
			<point x="392" y="709" type="qcurve"/>
			<point x="460" y="709"/>
			<point x="582" y="663"/>
			<point x="673" y="571"/>
			<point x="727" y="436"/>
		</contour>
	</outline>
</glyph>
<glyph name="P" format="2">
	<unicode hex="0050"/>
	<advance width="623"/>
	<outline>
		<contour>
			<point x="279" y="700" type="qcurve"/>
			<point x="430" y="700"/>
			<point x="591" y="590"/>
			<point x="591" y="473" type="qcurve"/>
			<point x="591" y="412"/>
			<point x="548" y="325"/>
			<point x="466" y="270"/>
			<point x="348" y="244"/>
			<point x="272" y="244" type="qcurve"/>
			<point x="209" y="244" type="line"/>
			<point x="209" y="0" type="line"/>
			<point x="83" y="0" type="line"/>
			<point x="83" y="683" type="line"/>
			<point x="127" y="693"/>
			<point x="234" y="700"/>
		</contour>
		<contour>
			<point x="288" y="591" type="qcurve"/>
			<point x="240" y="591"/>
			<point x="209" y="588" type="qcurve"/>
			<point x="209" y="352" type="line"/>
			<point x="270" y="352" type="line"/>
			<point x="361" y="352"/>
			<point x="459" y="403"/>
			<point x="459" y="474" type="qcurve"/>
			<point x="459" y="508"/>
			<point x="433" y="554"/>
			<point x="387" y="580"/>
			<point x="324" y="591"/>
		</contour>
	</outline>
</glyph>
<glyph name="Q" format="2">
	<unicode hex="0051"/>
	<advance width="782"/>
	<outline>
		<contour>
			<point x="186" y="347" type="qcurve"/>
			<point x="186" y="290"/>
			<point x="214" y="197"/>
			<point x="267" y="132"/>
			<point x="343" y="96"/>
			<point x="391" y="96" type="qcurve"/>
			<point x="438" y="96"/>
			<point x="514" y="132"/>
			<point x="567" y="197"/>
			<point x="595" y="290"/>
			<point x="595" y="347" type="qcurve"/>
			<point x="595" y="404"/>
			<point x="567" y="497"/>
			<point x="514" y="562"/>
			<point x="438" y="598"/>
			<point x="391" y="598" type="qcurve"/>
			<point x="343" y="598"/>
			<point x="267" y="562"/>
			<point x="214" y="496"/>
			<point x="186" y="404"/>
		</contour>
		<contour>
			<point x="727" y="347" type="qcurve"/>
			<point x="727" y="272"/>
			<point x="689" y="152"/>
			<point x="621" y="63"/>
			<point x="530" y="7"/>
			<point x="476" y="-5" type="qcurve"/>
			<point x="479" y="-26"/>
			<point x="515" y="-56"/>
			<point x="570" y="-76"/>
			<point x="641" y="-89"/>
			<point x="680" y="-92" type="qcurve"/>
			<point x="652" y="-187" type="line"/>
			<point x="523" y="-177"/>
			<point x="371" y="-98"/>
			<point x="350" y="-12" type="qcurve"/>
			<point x="288" y="-6"/>
			<point x="181" y="46"/>
			<point x="101" y="136"/>
			<point x="55" y="264"/>
			<point x="55" y="347" type="qcurve"/>
			<point x="55" y="436"/>
			<point x="109" y="571"/>
			<point x="202" y="663"/>
			<point x="324" y="709"/>
			<point x="392" y="709" type="qcurve"/>
			<point x="460" y="709"/>
			<point x="582" y="663"/>
			<point x="673" y="571"/>
			<point x="727" y="436"/>
		</contour>
	</outline>
</glyph>
<glyph name="R" format="2">
	<unicode hex="0052"/>
	<advance width="640"/>
	<outline>
		<contour>
			<point x="274" y="700" type="qcurve"/>
			<point x="424" y="700"/>
			<point x="583" y="590"/>
			<point x="583" y="477" type="qcurve"/>
			<point x="583" y="336"/>
			<point x="444" y="286" type="qcurve"/>
			<point x="463" y="263"/>
			<point x="511" y="197"/>
			<point x="561" y="120"/>
			<point x="607" y="39"/>
			<point x="625" y="0" type="qcurve"/>
			<point x="484" y="0" type="line"/>
			<point x="465" y="36"/>
			<point x="421" y="109"/>
			<point x="376" y="178"/>
			<point x="332" y="239"/>
			<point x="313" y="263" type="qcurve"/>
			<point x="299" y="262"/>
			<point x="279" y="262"/>
			<point x="270" y="262" type="qcurve"/>
			<point x="209" y="262" type="line"/>
			<point x="209" y="0" type="line"/>
			<point x="83" y="0" type="line"/>
			<point x="83" y="683" type="line"/>
			<point x="129" y="693"/>
			<point x="233" y="700"/>
		</contour>
		<contour>
			<point x="283" y="591" type="qcurve"/>
			<point x="243" y="591"/>
			<point x="209" y="588" type="qcurve"/>
			<point x="209" y="364" type="line"/>
			<point x="264" y="364" type="line"/>
			<point x="310" y="364"/>
			<point x="380" y="374"/>
			<point x="427" y="400"/>
			<point x="451" y="444"/>
			<point x="451" y="478" type="qcurve"/>
			<point x="451" y="510"/>
			<point x="427" y="554"/>
			<point x="382" y="580"/>
			<point x="320" y="591"/>
		</contour>
	</outline>
</glyph>
<glyph name="S" format="2">
	<unicode hex="0053"/>
	<advance width="540"/>
	<outline>
		<contour>
			<point x="251" y="94" type="qcurve"/>
			<point x="319" y="94"/>
			<point x="381" y="140"/>
			<point x="381" y="182" type="qcurve"/>
			<point x="381" y="207"/>
			<point x="360" y="243"/>
			<point x="321" y="272"/>
			<point x="265" y="297"/>
			<point x="229" y="309" type="qcurve"/>
			<point x="193" y="322"/>
			<point x="126" y="353"/>
			<point x="75" y="399"/>
			<point x="44" y="463"/>
			<point x="44" y="508" type="qcurve"/>
			<point x="44" y="602"/>
			<point x="174" y="709"/>
			<point x="286" y="709" type="qcurve"/>
			<point x="351" y="709"/>
			<point x="452" y="680"/>
			<point x="481" y="663" type="qcurve"/>
			<point x="442" y="561" type="line"/>
			<point x="408" y="580"/>
			<point x="327" y="600"/>
			<point x="284" y="600" type="qcurve"/>
			<point x="233" y="600"/>
			<point x="176" y="558"/>
			<point x="176" y="520" type="qcurve"/>
			<point x="176" y="497"/>
			<point x="195" y="464"/>
			<point x="230" y="438"/>
			<point x="277" y="416"/>
			<point x="305" y="406" type="qcurve"/>
			<point x="354" y="388"/>
			<point x="431" y="351"/>
			<point x="484" y="300"/>
			<point x="512" y="231"/>
			<point x="512" y="182" type="qcurve"/>
			<point x="512" y="88"/>
			<point x="379" y="-15"/>
			<point x="251" y="-15" type="qcurve"/>
			<point x="208" y="-15"/>
			<point x="137" y="-4"/>
			<point x="82" y="12"/>
			<point x="42" y="29"/>
			<point x="30" y="36" type="qcurve"/>
			<point x="67" y="139" type="line"/>
			<point x="94" y="124"/>
			<point x="186" y="94"/>
		</contour>
	</outline>
</glyph>
<glyph name="T" format="2">
	<unicode hex="0054"/>
	<advance width="579"/>
	<outline>
		<contour>
			<point x="566" y="693" type="line"/>
			<point x="566" y="584" type="line"/>
			<point x="353" y="584" type="line"/>
			<point x="353" y="0" type="line"/>
			<point x="226" y="0" type="line"/>
			<point x="226" y="584" type="line"/>
			<point x="13" y="584" type="line"/>
			<point x="13" y="693" type="line"/>
		</contour>
	</outline>
</glyph>
<glyph name="U" format="2">
	<unicode hex="0055"/>
	<advance width="703"/>
	<outline>
		<contour>
			<point x="350" y="-15" type="qcurve"/>
			<point x="279" y="-15"/>
			<point x="177" y="26"/>
			<point x="110" y="100"/>
			<point x="78" y="200"/>
			<point x="78" y="260" type="qcurve"/>
			<point x="78" y="693" type="line"/>
			<point x="205" y="693" type="line"/>
			<point x="205" y="272" type="line"/>
			<point x="205" y="225"/>
			<point x="226" y="158"/>
			<point x="265" y="116"/>
			<point x="318" y="96"/>
			<point x="351" y="96" type="qcurve"/>
			<point x="384" y="96"/>
			<point x="438" y="116"/>
			<point x="477" y="158"/>
			<point x="498" y="225"/>
			<point x="498" y="272" type="qcurve"/>
			<point x="498" y="693" type="line"/>
			<point x="625" y="693" type="line"/>
			<point x="625" y="260" type="line"/>
			<point x="625" y="200"/>
			<point x="592" y="100"/>
			<point x="525" y="26"/>
			<point x="421" y="-15"/>
		</contour>
	</outline>
</glyph>
<glyph name="V" format="2">
	<unicode hex="0056"/>
	<advance width="683"/>
	<outline>
		<contour>
			<point x="281" y="0" type="line"/>
			<point x="206" y="162"/>
			<point x="67" y="516"/>
			<point x="7" y="693" type="qcurve"/>
			<point x="146" y="693" type="line"/>
			<point x="170" y="623"/>
			<point x="220" y="477"/>
			<point x="270" y="336"/>
			<point x="320" y="204"/>
			<point x="344" y="149" type="qcurve"/>
			<point x="367" y="204"/>
			<point x="417" y="335"/>
			<point x="468" y="477"/>
			<point x="518" y="623"/>
			<point x="541" y="693" type="qcurve"/>
			<point x="676" y="693" type="line"/>
			<point x="615" y="516"/>
			<point x="477" y="162"/>
			<point x="402" y="0" type="qcurve"/>
		</contour>
	</outline>
</glyph>
<glyph name="W" format="2">
	<unicode hex="0057"/>
	<advance width="938"/>
	<outline>
		<contour>
			<point x="527" y="615" type="line"/>
			<point x="543" y="561"/>
			<point x="579" y="444"/>
			<point x="618" y="327"/>
			<point x="657" y="214"/>
			<point x="675" y="164" type="qcurve"/>
			<point x="690" y="218"/>
			<point x="718" y="345"/>
			<point x="746" y="482"/>
			<point x="773" y="624"/>
			<point x="785" y="693" type="qcurve"/>
			<point x="915" y="693" type="line"/>
			<point x="880" y="505"/>
			<point x="794" y="158"/>
			<point x="741" y="0" type="qcurve"/>
			<point x="621" y="0" type="line"/>
			<point x="543" y="202"/>
			<point x="470" y="441" type="qcurve"/>
			<point x="433" y="320"/>
			<point x="357" y="102"/>
			<point x="319" y="0" type="qcurve"/>
			<point x="199" y="0" type="line"/>
			<point x="145" y="158"/>
			<point x="60" y="505"/>
			<point x="25" y="693" type="qcurve"/>
			<point x="160" y="693" type="line"/>
			<point x="172" y="625"/>
			<point x="199" y="483"/>
			<point x="228" y="346"/>
			<point x="258" y="218"/>
			<point x="273" y="164" type="qcurve"/>
			<point x="292" y="215"/>
			<point x="331" y="328"/>
			<point x="369" y="445"/>
			<point x="404" y="561"/>
			<point x="419" y="615" type="qcurve"/>
		</contour>
	</outline>
</glyph>
<glyph name="X" format="2">
	<unicode hex="0058"/>
	<advance width="657"/>
	<outline>
		<contour>
			<point x="642" y="0" type="line"/>
			<point x="589" y="101"/>
			<point x="510" y="226"/>
			<point x="409" y="363" type="curve"/>
			<point x="628" y="693" type="line"/>
			<point x="484" y="693" type="line"/>
			<point x="333" y="456" type="line"/>
			<point x="180" y="693" type="line"/>
			<point x="30" y="693" type="line"/>
			<point x="252" y="362" type="line"/>
			<point x="160" y="232"/>
			<point x="79" y="112"/>
			<point x="20" y="0" type="curve"/>
			<point x="163" y="0" type="line"/>
			<point x="195" y="65"/>
			<point x="277" y="197"/>
			<point x="329" y="267" type="curve"/>
			<point x="392" y="179"/>
			<point x="455" y="78"/>
			<point x="494" y="0" type="curve"/>
		</contour>
	</outline>
</glyph>
<glyph name="Y" format="2">
	<unicode hex="0059"/>
	<advance width="625"/>
	<outline>
		<contour>
			<point x="316" y="386" type="qcurve"/>
			<point x="361" y="461"/>
			<point x="447" y="615"/>
			<point x="482" y="693" type="qcurve"/>
			<point x="622" y="693" type="line"/>
			<point x="566" y="587"/>
			<point x="445" y="378"/>
			<point x="376" y="272" type="qcurve"/>
			<point x="376" y="0" type="line"/>
			<point x="250" y="0" type="line"/>
			<point x="250" y="270" type="line"/>
			<point x="181" y="377"/>
			<point x="59" y="587"/>
			<point x="3" y="693" type="qcurve"/>
			<point x="151" y="693" type="line"/>
			<point x="186" y="615"/>
			<point x="270" y="461"/>
		</contour>
	</outline>
</glyph>
<glyph name="Z" format="2">
	<unicode hex="005A"/>
	<advance width="588"/>
	<outline>
		<contour>
			<point x="543" y="600" type="line"/>
			<point x="510" y="564"/>
			<point x="416" y="449"/>
			<point x="316" y="314"/>
			<point x="219" y="171"/>
			<point x="182" y="107" type="qcurve"/>
			<point x="554" y="107" type="line"/>
			<point x="554" y="0" type="line"/>
			<point x="30" y="0" type="line"/>
			<point x="30" y="79" type="line"/>
			<point x="50" y="116"/>
			<point x="103" y="203"/>
			<point x="163" y="295"/>
			<point x="228" y="389"/>
			<point x="292" y="476"/>
			<point x="353" y="555"/>
			<point x="380" y="586" type="qcurve"/>
			<point x="47" y="586" type="line"/>
			<point x="47" y="693" type="line"/>
			<point x="543" y="693" type="line"/>
		</contour>
	</outline>
</glyph>
<glyph name="bracketleft" format="2">
	<unicode hex="005B"/>
	<advance width="346"/>
	<outline>
		<contour>
			<point x="93" y="783" type="line"/>
			<point x="341" y="783" type="line"/>
			<point x="341" y="687" type="line"/>
			<point x="207" y="687" type="line"/>
			<point x="207" y="-89" type="line"/>
			<point x="341" y="-89" type="line"/>
			<point x="341" y="-185" type="line"/>
			<point x="93" y="-185" type="line"/>
		</contour>
	</outline>
</glyph>
<glyph name="backslash" format="2">
	<unicode hex="005C"/>
	<advance width="416"/>
	<outline>
		<contour>
			<point x="-17" y="783" type="line"/>
			<point x="319" y="-185" type="line"/>
			<point x="443" y="-185" type="line"/>
			<point x="105" y="783" type="line"/>
		</contour>
	</outline>
</glyph>
<glyph name="bracketright" format="2">
	<unicode hex="005D"/>
	<advance width="346"/>
	<outline>
		<contour>
			<point x="253" y="-185" type="line"/>
			<point x="253" y="783" type="line"/>
			<point x="5" y="783" type="line"/>
			<point x="5" y="687" type="line"/>
			<point x="138" y="687" type="line"/>
			<point x="138" y="-89" type="line"/>
			<point x="5" y="-89" type="line"/>
			<point x="5" y="-185" type="line"/>
		</contour>
	</outline>
</glyph>
<glyph name="asciicircum" format="2">
	<unicode hex="005E"/>
	<advance width="568"/>
	<outline>
		<contour>
			<point x="534" y="349" type="line"/>
			<point x="435" y="300" type="line"/>
			<point x="284" y="563" type="line"/>
			<point x="133" y="300" type="line"/>
			<point x="33" y="349" type="line"/>
			<point x="234" y="693" type="line"/>
			<point x="334" y="693" type="line"/>
		</contour>
	</outline>
</glyph>
<glyph name="grave" format="2">
	<unicode hex="0060"/>
	<advance width="392"/>
	<outline>
		<contour>
			<point x="77" y="738" type="line"/>
			<point x="239" y="579" type="line"/>
			<point x="299" y="633" type="line"/>
			<point x="154" y="808" type="line"/>
		</contour>
	</outline>
</glyph>
<glyph name="a" format="2">
	<unicode hex="0061"/>
	<advance width="534"/>
	<outline>
		<contour>
			<point x="261" y="85" type="qcurve"/>
			<point x="317" y="85"/>
			<point x="346" y="91" type="qcurve"/>
			<point x="346" y="225" type="line"/>
			<point x="336" y="228"/>
			<point x="298" y="234"/>
			<point x="275" y="234" type="qcurve"/>
			<point x="255" y="234"/>
			<point x="214" y="228"/>
			<point x="181" y="212"/>
			<point x="161" y="183"/>
			<point x="161" y="161" type="qcurve"/>
			<point x="161" y="118"/>
			<point x="215" y="85"/>
		</contour>
		<contour>
			<point x="251" y="536" type="qcurve"/>
			<point x="311" y="536"/>
			<point x="393" y="506"/>
			<point x="442" y="452"/>
			<point x="463" y="375"/>
			<point x="463" y="329" type="qcurve"/>
			<point x="463" y="12" type="line"/>
			<point x="435" y="6"/>
			<point x="322" y="-11"/>
			<point x="251" y="-11" type="qcurve"/>
			<point x="204" y="-11"/>
			<point x="126" y="7"/>
			<point x="71" y="47"/>
			<point x="40" y="111"/>
			<point x="40" y="158" type="qcurve"/>
			<point x="40" y="203"/>
			<point x="75" y="265"/>
			<point x="135" y="304"/>
			<point x="214" y="321"/>
			<point x="257" y="321" type="qcurve"/>
			<point x="277" y="321"/>
			<point x="321" y="316"/>
			<point x="346" y="310" type="qcurve"/>
			<point x="346" y="330" type="line"/>
			<point x="346" y="351"/>
			<point x="336" y="389"/>
			<point x="311" y="418"/>
			<point x="270" y="434"/>
			<point x="239" y="434" type="qcurve"/>
			<point x="197" y="434"/>
			<point x="127" y="422"/>
			<point x="105" y="414" type="qcurve"/>
			<point x="90" y="512" type="line"/>
			<point x="113" y="520"/>
			<point x="201" y="536"/>
		</contour>
	</outline>
</glyph>
<glyph name="b" format="2">
	<unicode hex="0062"/>
	<advance width="596"/>
	<outline>
		<contour>
			<point x="424" y="263" type="qcurve"/>
			<point x="424" y="340"/>
			<point x="363" y="430"/>
			<point x="297" y="430" type="qcurve"/>
			<point x="267" y="430"/>
			<point x="214" y="412"/>
			<point x="198" y="401" type="qcurve"/>
			<point x="198" y="100" type="line"/>
			<point x="211" y="97"/>
			<point x="252" y="92"/>
			<point x="281" y="92" type="qcurve"/>
			<point x="348" y="92"/>
			<point x="424" y="183"/>
		</contour>
		<contour>
			<point x="548" y="261" type="qcurve"/>
			<point x="548" y="198"/>
			<point x="511" y="97"/>
			<point x="442" y="25"/>
			<point x="344" y="-13"/>
			<point x="282" y="-13" type="qcurve"/>
			<point x="222" y="-13"/>
			<point x="113" y="5"/>
			<point x="77" y="16" type="qcurve"/>
			<point x="77" y="756" type="line"/>
			<point x="198" y="776" type="line"/>
			<point x="198" y="505" type="line"/>
			<point x="219" y="516"/>
			<point x="280" y="534"/>
			<point x="317" y="534" type="qcurve"/>
			<point x="372" y="534"/>
			<point x="459" y="495"/>
			<point x="517" y="423"/>
			<point x="548" y="322"/>
		</contour>
	</outline>
</glyph>
<glyph name="c" format="2">
	<unicode hex="0063"/>
	<advance width="472"/>
	<outline>
		<contour>
			<point x="48" y="261" type="qcurve"/>
			<point x="48" y="319"/>
			<point x="84" y="420"/>
			<point x="151" y="494"/>
			<point x="247" y="536"/>
			<point x="307" y="536" type="qcurve"/>
			<point x="381" y="536"/>
			<point x="447" y="509" type="qcurve"/>
			<point x="421" y="410" type="line"/>
			<point x="400" y="419"/>
			<point x="347" y="431"/>
			<point x="317" y="431" type="qcurve"/>
			<point x="246" y="431"/>
			<point x="172" y="342"/>
			<point x="172" y="261" type="qcurve"/>
			<point x="172" y="183"/>
			<point x="242" y="92"/>
			<point x="325" y="92" type="qcurve"/>
			<point x="356" y="92"/>
			<point x="416" y="104"/>
			<point x="438" y="113" type="qcurve"/>
			<point x="455" y="13" type="line"/>
			<point x="435" y="3"/>
			<point x="354" y="-13"/>
			<point x="311" y="-13" type="qcurve"/>
			<point x="244" y="-13"/>
			<point x="145" y="28"/>
			<point x="80" y="101"/>
			<point x="48" y="202"/>
		</contour>
	</outline>
</glyph>
<glyph name="d" format="2">
	<unicode hex="0064"/>
	<advance width="596"/>
	<outline>
		<contour>
			<point x="172" y="263" type="qcurve"/>
			<point x="172" y="183"/>
			<point x="248" y="92"/>
			<point x="315" y="92" type="qcurve"/>
			<point x="344" y="92"/>
			<point x="385" y="97"/>
			<point x="398" y="100" type="qcurve"/>
			<point x="398" y="400" type="line"/>
			<point x="382" y="411"/>
			<point x="329" y="430"/>
			<point x="299" y="430" type="qcurve"/>
			<point x="233" y="430"/>
			<point x="172" y="340"/>
		</contour>
		<contour>
			<point x="519" y="16" type="line"/>
			<point x="483" y="5"/>
			<point x="374" y="-13"/>
			<point x="314" y="-13" type="qcurve"/>
			<point x="252" y="-13"/>
			<point x="154" y="25"/>
			<point x="85" y="96"/>
			<point x="48" y="197"/>
			<point x="48" y="260" type="qcurve"/>
			<point x="48" y="322"/>
			<point x="79" y="423"/>
			<point x="139" y="495"/>
			<point x="225" y="534"/>
			<point x="281" y="534" type="qcurve"/>
			<point x="319" y="534"/>
			<point x="377" y="516"/>
			<point x="398" y="505" type="qcurve"/>
			<point x="398" y="756" type="line"/>
			<point x="519" y="776" type="line"/>
		</contour>
	</outline>
</glyph>
<glyph name="e" format="2">
	<unicode hex="0065"/>
	<advance width="571"/>
	<outline>
		<contour>
			<point x="48" y="259" type="qcurve"/>
			<point x="48" y="328"/>
			<point x="89" y="432"/>
			<point x="157" y="501"/>
			<point x="245" y="536"/>
			<point x="291" y="536" type="qcurve"/>
			<point x="399" y="536"/>
			<point x="520" y="402"/>
			<point x="520" y="269" type="qcurve"/>
			<point x="520" y="259"/>
			<point x="519" y="234"/>
			<point x="518" y="224" type="qcurve"/>
			<point x="173" y="224" type="line"/>
			<point x="178" y="161"/>
			<point x="257" y="92"/>
			<point x="332" y="92" type="qcurve"/>
			<point x="376" y="92"/>
			<point x="449" y="108"/>
			<point x="470" y="117" type="qcurve"/>
			<point x="486" y="18" type="line"/>
			<point x="476" y="13"/>
			<point x="441" y="2"/>
			<point x="396" y="-7"/>
			<point x="344" y="-13"/>
			<point x="317" y="-13" type="qcurve"/>
			<point x="248" y="-13"/>
			<point x="146" y="28"/>
			<point x="80" y="101"/>
			<point x="48" y="200"/>
		</contour>
		<contour>
			<point x="399" y="313" type="line"/>
			<point x="399" y="338"/>
			<point x="385" y="383"/>
			<point x="358" y="416"/>
			<point x="319" y="435"/>
			<point x="292" y="435" type="qcurve"/>
			<point x="264" y="435"/>
			<point x="222" y="414"/>
			<point x="193" y="380"/>
			<point x="177" y="336"/>
			<point x="174" y="313" type="qcurve"/>
		</contour>
	</outline>
</glyph>
<glyph name="f" format="2">
	<unicode hex="0066"/>
	<advance width="400"/>
	<outline>
		<contour>
			<point x="290" y="776" type="curve" smooth="yes"/>
			<point x="148" y="776"/>
			<point x="77" y="694"/>
			<point x="77" y="560" type="curve" smooth="yes"/>
			<point x="77" y="0" type="line"/>
			<point x="198" y="0" type="line"/>
			<point x="198" y="422" type="line"/>
			<point x="388" y="422" type="line"/>
			<point x="388" y="523" type="line"/>
			<point x="198" y="523" type="line"/>
			<point x="198" y="558" type="line" smooth="yes"/>
			<point x="198" y="626"/>
			<point x="223" y="673"/>
			<point x="301" y="673" type="curve" smooth="yes"/>
			<point x="336" y="673"/>
			<point x="367" y="665"/>
			<point x="389" y="655" type="curve"/>
			<point x="412" y="755" type="line"/>
			<point x="391" y="763"/>
			<point x="345" y="776"/>
		</contour>
	</outline>
</glyph>
<glyph name="g" format="2">
	<unicode hex="0067"/>
	<advance width="586"/>
	<outline>
		<contour>
			<point x="172" y="275" type="qcurve"/>
			<point x="172" y="198"/>
			<point x="239" y="127"/>
			<point x="292" y="127" type="qcurve"/>
			<point x="321" y="127"/>
			<point x="372" y="143"/>
			<point x="388" y="154" type="qcurve"/>
			<point x="388" y="425" type="line"/>
			<point x="375" y="428"/>
			<point x="337" y="433"/>
			<point x="308" y="433" type="qcurve"/>
			<point x="242" y="433"/>
			<point x="172" y="346"/>
		</contour>
		<contour>
			<point x="509" y="53" type="line"/>
			<point x="509" y="-72"/>
			<point x="382" y="-188"/>
			<point x="251" y="-188" type="qcurve"/>
			<point x="203" y="-188"/>
			<point x="112" y="-172"/>
			<point x="75" y="-159" type="qcurve"/>
			<point x="97" y="-56" type="line"/>
			<point x="128" y="-69"/>
			<point x="207" y="-85"/>
			<point x="253" y="-85" type="qcurve"/>
			<point x="326" y="-85"/>
			<point x="388" y="-25"/>
			<point x="388" y="34" type="qcurve"/>
			<point x="388" y="54" type="line"/>
			<point x="370" y="45"/>
			<point x="311" y="27"/>
			<point x="273" y="27" type="qcurve"/>
			<point x="223" y="27"/>
			<point x="140" y="59"/>
			<point x="81" y="121"/>
			<point x="48" y="214"/>
			<point x="48" y="275" type="qcurve"/>
			<point x="48" y="332"/>
			<point x="83" y="428"/>
			<point x="150" y="496"/>
			<point x="246" y="534"/>
			<point x="307" y="534" type="qcurve"/>
			<point x="366" y="534"/>
			<point x="472" y="516"/>
			<point x="509" y="506" type="qcurve"/>
		</contour>
	</outline>
</glyph>
<glyph name="h" format="2">
	<unicode hex="0068"/>
	<advance width="582"/>
	<outline>
		<contour>
			<point x="77" y="0" type="line"/>
			<point x="77" y="756" type="line"/>
			<point x="198" y="776" type="line"/>
			<point x="198" y="517" type="line"/>
			<point x="218" y="524"/>
			<point x="271" y="534"/>
			<point x="297" y="534" type="qcurve"/>
			<point x="360" y="534"/>
			<point x="443" y="499"/>
			<point x="493" y="436"/>
			<point x="514" y="348"/>
			<point x="514" y="294" type="qcurve"/>
			<point x="514" y="0" type="line"/>
			<point x="393" y="0" type="line"/>
			<point x="393" y="275" type="line"/>
			<point x="393" y="317"/>
			<point x="382" y="376"/>
			<point x="357" y="413"/>
			<point x="315" y="430"/>
			<point x="284" y="430" type="qcurve"/>
			<point x="260" y="430"/>
			<point x="210" y="420"/>
			<point x="198" y="416" type="qcurve"/>
			<point x="198" y="0" type="line"/>
		</contour>
	</outline>
</glyph>
<glyph name="i" format="2">
	<unicode hex="0069"/>
	<advance width="276"/>
	<outline>
		<contour>
			<point x="199" y="0" type="line"/>
			<point x="78" y="0" type="line"/>
			<point x="78" y="523" type="line"/>
			<point x="199" y="523" type="line"/>
		</contour>
		<contour>
			<point x="212" y="676" type="qcurve"/>
			<point x="212" y="642"/>
			<point x="168" y="602"/>
			<point x="138" y="602" type="qcurve"/>
			<point x="107" y="602"/>
			<point x="63" y="642"/>
			<point x="63" y="676" type="qcurve"/>
			<point x="63" y="711"/>
			<point x="107" y="751"/>
			<point x="138" y="751" type="qcurve"/>
			<point x="168" y="751"/>
			<point x="212" y="711"/>
		</contour>
	</outline>
</glyph>
<glyph name="j" format="2">
	<unicode hex="006A"/>
	<advance width="275"/>
	<outline>
		<contour>
			<point x="10" y="-186" type="qcurve"/>
			<point x="-3" y="-186"/>
			<point x="-50" y="-181"/>
			<point x="-68" y="-174" type="qcurve"/>
			<point x="-52" y="-75" type="line"/>
			<point x="-30" y="-82"/>
			<point x="1" y="-82" type="qcurve"/>
			<point x="43" y="-82"/>
			<point x="77" y="-33"/>
			<point x="77" y="16" type="qcurve"/>
			<point x="77" y="523" type="line"/>
			<point x="198" y="523" type="line"/>
			<point x="198" y="14" type="line"/>
			<point x="198" y="-88"/>
			<point x="101" y="-186"/>
		</contour>
		<contour>
			<point x="211" y="676" type="qcurve"/>
			<point x="211" y="642"/>
			<point x="167" y="602"/>
			<point x="137" y="602" type="qcurve"/>
			<point x="106" y="602"/>
			<point x="62" y="642"/>
			<point x="62" y="676" type="qcurve"/>
			<point x="62" y="711"/>
			<point x="106" y="751"/>
			<point x="137" y="751" type="qcurve"/>
			<point x="167" y="751"/>
			<point x="211" y="711"/>
		</contour>
	</outline>
</glyph>
<glyph name="k" format="2">
	<unicode hex="006B"/>
	<advance width="551"/>
	<outline>
		<contour>
			<point x="198" y="319" type="line"/>
			<point x="221" y="343"/>
			<point x="273" y="398"/>
			<point x="323" y="453"/>
			<point x="368" y="504"/>
			<point x="384" y="523" type="qcurve"/>
			<point x="527" y="523" type="line"/>
			<point x="477" y="467"/>
			<point x="366" y="347"/>
			<point x="310" y="290" type="qcurve"/>
			<point x="340" y="265"/>
			<point x="406" y="194"/>
			<point x="468" y="114"/>
			<point x="522" y="34"/>
			<point x="540" y="0" type="qcurve"/>
			<point x="400" y="0" type="line"/>
			<point x="382" y="31"/>
			<point x="335" y="99"/>
			<point x="281" y="163"/>
			<point x="225" y="220"/>
			<point x="198" y="240" type="qcurve"/>
			<point x="198" y="0" type="line"/>
			<point x="77" y="0" type="line"/>
			<point x="77" y="756" type="line"/>
			<point x="198" y="776" type="line"/>
		</contour>
	</outline>
</glyph>
<glyph name="l" format="2">
	<unicode hex="006C"/>
	<advance width="297"/>
	<outline>
		<contour>
			<point x="259" y="-10" type="line"/>
			<point x="205" y="-9"/>
			<point x="134" y="13"/>
			<point x="92" y="54"/>
			<point x="75" y="115"/>
			<point x="75" y="154" type="qcurve"/>
			<point x="75" y="756" type="line"/>
			<point x="196" y="776" type="line"/>
			<point x="196" y="177" type="line"/>
			<point x="196" y="155"/>
			<point x="203" y="125"/>
			<point x="221" y="104"/>
			<point x="252" y="93"/>
			<point x="276" y="90" type="qcurve"/>
		</contour>
	</outline>
</glyph>
<glyph name="m" format="2">
	<unicode hex="006D"/>
	<advance width="865"/>
	<outline>
		<contour>
			<point x="375" y="275" type="line"/>
			<point x="375" y="357"/>
			<point x="334" y="430"/>
			<point x="278" y="430" type="qcurve"/>
			<point x="258" y="430"/>
			<point x="210" y="424"/>
			<point x="198" y="422" type="qcurve"/>
			<point x="198" y="0" type="line"/>
			<point x="77" y="0" type="line"/>
			<point x="77" y="506" type="line"/>
			<point x="112" y="516"/>
			<point x="225" y="534"/>
			<point x="288" y="534" type="qcurve"/>
			<point x="342" y="534"/>
			<point x="411" y="506"/>
			<point x="434" y="483" type="qcurve"/>
			<point x="445" y="491"/>
			<point x="479" y="509"/>
			<point x="521" y="524"/>
			<point x="568" y="534"/>
			<point x="592" y="534" type="qcurve"/>
			<point x="653" y="534"/>
			<point x="732" y="499"/>
			<point x="777" y="436"/>
			<point x="794" y="347"/>
			<point x="794" y="294" type="qcurve"/>
			<point x="794" y="0" type="line"/>
			<point x="673" y="0" type="line"/>
			<point x="673" y="275" type="line"/>
			<point x="673" y="357"/>
			<point x="633" y="430"/>
			<point x="576" y="430" type="qcurve"/>
			<point x="547" y="430"/>
			<point x="495" y="411"/>
			<point x="482" y="402" type="qcurve"/>
			<point x="490" y="377"/>
			<point x="496" y="321"/>
			<point x="496" y="289" type="qcurve"/>
			<point x="496" y="0" type="line"/>
			<point x="375" y="0" type="line"/>
		</contour>
	</outline>
</glyph>
<glyph name="o" format="2">
	<unicode hex="006F"/>
	<advance width="598"/>
	<outline>
		<contour>
			<point x="550" y="262" type="qcurve"/>
			<point x="550" y="200"/>
			<point x="514" y="98"/>
			<point x="448" y="26"/>
			<point x="355" y="-14"/>
			<point x="299" y="-14" type="qcurve"/>
			<point x="243" y="-14"/>
			<point x="151" y="26"/>
			<point x="85" y="98"/>
			<point x="48" y="200"/>
			<point x="48" y="262" type="qcurve"/>
			<point x="48" y="324"/>
			<point x="85" y="425"/>
			<point x="152" y="497"/>
			<point x="244" y="536"/>
			<point x="299" y="536" type="qcurve"/>
			<point x="354" y="536"/>
			<point x="447" y="497"/>
			<point x="513" y="425"/>
			<point x="550" y="324"/>
		</contour>
		<contour>
			<point x="426" y="262" type="qcurve"/>
			<point x="426" y="340"/>
			<point x="359" y="431"/>
			<point x="299" y="431" type="qcurve"/>
			<point x="239" y="431"/>
			<point x="172" y="340"/>
			<point x="172" y="262" type="qcurve"/>
			<point x="172" y="183"/>
			<point x="239" y="91"/>
			<point x="299" y="91" type="qcurve"/>
			<point x="359" y="91"/>
			<point x="426" y="183"/>
		</contour>
	</outline>
</glyph>
<glyph name="p" format="2">
	<unicode hex="0070"/>
	<advance width="596"/>
	<outline>
		<contour>
			<point x="424" y="259" type="qcurve"/>
			<point x="424" y="340"/>
			<point x="351" y="430"/>
			<point x="270" y="430" type="qcurve"/>
			<point x="253" y="430"/>
			<point x="216" y="427"/>
			<point x="198" y="422" type="qcurve"/>
			<point x="198" y="123" type="line"/>
			<point x="214" y="112"/>
			<point x="267" y="93"/>
			<point x="297" y="93" type="qcurve"/>
			<point x="363" y="93"/>
			<point x="424" y="183"/>
		</contour>
		<contour>
			<point x="548" y="261" type="qcurve"/>
			<point x="548" y="201"/>
			<point x="517" y="101"/>
			<point x="459" y="29"/>
			<point x="372" y="-11"/>
			<point x="317" y="-11" type="qcurve"/>
			<point x="280" y="-11"/>
			<point x="218" y="7"/>
			<point x="198" y="18" type="qcurve"/>
			<point x="198" y="-185" type="line"/>
			<point x="77" y="-185" type="line"/>
			<point x="77" y="506" type="line"/>
			<point x="114" y="516"/>
			<point x="222" y="534"/>
			<point x="282" y="534" type="qcurve"/>
			<point x="344" y="534"/>
			<point x="442" y="496"/>
			<point x="511" y="425"/>
			<point x="548" y="324"/>
		</contour>
	</outline>
</glyph>
<glyph name="q" format="2">
	<unicode hex="0071"/>
	<advance width="596"/>
	<outline>
		<contour>
			<point x="172" y="259" type="qcurve"/>
			<point x="172" y="183"/>
			<point x="233" y="93"/>
			<point x="299" y="93" type="qcurve"/>
			<point x="329" y="93"/>
			<point x="382" y="112"/>
			<point x="398" y="123" type="qcurve"/>
			<point x="398" y="422" type="line"/>
			<point x="385" y="425"/>
			<point x="346" y="430"/>
			<point x="315" y="430" type="qcurve"/>
			<point x="248" y="430"/>
			<point x="172" y="339"/>
		</contour>
		<contour>
			<point x="48" y="261" type="qcurve"/>
			<point x="48" y="323"/>
			<point x="85" y="424"/>
			<point x="154" y="495"/>
			<point x="252" y="534"/>
			<point x="314" y="534" type="qcurve"/>
			<point x="376" y="534"/>
			<point x="484" y="516"/>
			<point x="519" y="506" type="qcurve"/>
			<point x="519" y="-185" type="line"/>
			<point x="398" y="-185" type="line"/>
			<point x="398" y="18" type="line"/>
			<point x="377" y="7"/>
			<point x="316" y="-11"/>
			<point x="279" y="-11" type="qcurve"/>
			<point x="223" y="-11"/>
			<point x="137" y="28"/>
			<point x="79" y="100"/>
			<point x="48" y="200"/>
		</contour>
	</outline>
</glyph>
<glyph name="r" format="2">
	<unicode hex="0072"/>
	<advance width="403"/>
	<outline>
		<contour>
			<point x="375" y="414" type="line"/>
			<point x="360" y="419"/>
			<point x="307" y="430"/>
			<point x="272" y="430" type="qcurve"/>
			<point x="252" y="430"/>
			<point x="207" y="422"/>
			<point x="198" y="419" type="qcurve"/>
			<point x="198" y="0" type="line"/>
			<point x="77" y="0" type="line"/>
			<point x="77" y="498" type="line"/>
			<point x="112" y="511"/>
			<point x="217" y="534"/>
			<point x="281" y="534" type="qcurve"/>
			<point x="293" y="534"/>
			<point x="325" y="531"/>
			<point x="357" y="526"/>
			<point x="387" y="519"/>
			<point x="396" y="516" type="qcurve"/>
		</contour>
	</outline>
</glyph>
<glyph name="s" format="2">
	<unicode hex="0073"/>
	<advance width="457"/>
	<outline>
		<contour>
			<point x="208" y="87" type="qcurve"/>
			<point x="256" y="87"/>
			<point x="300" y="110"/>
			<point x="300" y="138" type="qcurve"/>
			<point x="300" y="164"/>
			<point x="253" y="198"/>
			<point x="199" y="218" type="qcurve"/>
			<point x="166" y="230"/>
			<point x="111" y="257"/>
			<point x="71" y="293"/>
			<point x="48" y="344"/>
			<point x="48" y="381" type="qcurve"/>
			<point x="48" y="453"/>
			<point x="154" y="536"/>
			<point x="245" y="536" type="qcurve"/>
			<point x="291" y="536"/>
			<point x="375" y="519"/>
			<point x="396" y="511" type="qcurve"/>
			<point x="374" y="413" type="line"/>
			<point x="354" y="422"/>
			<point x="292" y="437"/>
			<point x="251" y="437" type="qcurve"/>
			<point x="214" y="437"/>
			<point x="168" y="412"/>
			<point x="168" y="386" type="qcurve"/>
			<point x="168" y="373"/>
			<point x="177" y="353"/>
			<point x="199" y="336"/>
			<point x="235" y="319"/>
			<point x="261" y="310" type="qcurve"/>
			<point x="304" y="294"/>
			<point x="364" y="263"/>
			<point x="403" y="224"/>
			<point x="421" y="174"/>
			<point x="421" y="139" type="qcurve"/>
			<point x="421" y="64"/>
			<point x="310" y="-13"/>
			<point x="207" y="-13" type="qcurve"/>
			<point x="138" y="-13"/>
			<point x="54" y="10"/>
			<point x="37" y="17" type="qcurve"/>
			<point x="58" y="118" type="line"/>
			<point x="85" y="107"/>
			<point x="160" y="87"/>
		</contour>
	</outline>
</glyph>
<glyph name="u" format="2">
	<unicode hex="0075"/>
	<advance width="583"/>
	<outline>
		<contour>
			<point x="506" y="16" type="line"/>
			<point x="471" y="7"/>
			<point x="359" y="-12"/>
			<point x="292" y="-12" type="qcurve"/>
			<point x="229" y="-12"/>
			<point x="144" y="24"/>
			<point x="93" y="88"/>
			<point x="71" y="177"/>
			<point x="71" y="230" type="qcurve"/>
			<point x="71" y="523" type="line"/>
			<point x="192" y="523" type="line"/>
			<point x="192" y="249" type="line"/>
			<point x="192" y="165"/>
			<point x="241" y="93"/>
			<point x="302" y="93" type="qcurve"/>
			<point x="324" y="93"/>
			<point x="373" y="97"/>
			<point x="385" y="100" type="qcurve"/>
			<point x="385" y="523" type="line"/>
			<point x="506" y="523" type="line"/>
		</contour>
	</outline>
</glyph>
<glyph name="v" format="2">
	<unicode hex="0076"/>
	<advance width="526"/>
	<outline>
		<contour>
			<point x="211" y="0" type="line"/>
			<point x="161" y="103"/>
			<point x="56" y="370"/>
			<point x="13" y="523" type="qcurve"/>
			<point x="142" y="523" type="line"/>
			<point x="153" y="479"/>
			<point x="182" y="378"/>
			<point x="215" y="277"/>
			<point x="250" y="182"/>
			<point x="265" y="144" type="qcurve"/>
			<point x="280" y="182"/>
			<point x="314" y="277"/>
			<point x="347" y="378"/>
			<point x="377" y="479"/>
			<point x="388" y="523" type="qcurve"/>
			<point x="513" y="523" type="line"/>
			<point x="470" y="370"/>
			<point x="365" y="103"/>
			<point x="315" y="0" type="qcurve"/>
		</contour>
	</outline>
</glyph>
<glyph name="w" format="2">
	<unicode hex="0077"/>
	<advance width="780"/>
	<outline>
		<contour>
			<point x="389" y="329" type="qcurve"/>
			<point x="366" y="241"/>
			<point x="313" y="74"/>
			<point x="287" y="0" type="qcurve"/>
			<point x="188" y="0" type="line"/>
			<point x="168" y="46"/>
			<point x="124" y="164"/>
			<point x="80" y="298"/>
			<point x="36" y="446"/>
			<point x="15" y="523" type="qcurve"/>
			<point x="143" y="523" type="line"/>
			<point x="152" y="481"/>
			<point x="176" y="384"/>
			<point x="202" y="283"/>
			<point x="230" y="187"/>
			<point x="244" y="147" type="qcurve"/>
			<point x="259" y="193"/>
			<point x="288" y="291"/>
			<point x="314" y="389"/>
			<point x="337" y="482"/>
			<point x="346" y="523" type="qcurve"/>
			<point x="439" y="523" type="line"/>
			<point x="448" y="482"/>
			<point x="470" y="389"/>
			<point x="495" y="291"/>
			<point x="524" y="193"/>
			<point x="539" y="147" type="qcurve"/>
			<point x="552" y="187"/>
			<point x="580" y="283"/>
			<point x="607" y="384"/>
			<point x="631" y="481"/>
			<point x="640" y="523" type="qcurve"/>
			<point x="765" y="523" type="line"/>
			<point x="744" y="446"/>
			<point x="700" y="298"/>
			<point x="656" y="164"/>
			<point x="612" y="46"/>
			<point x="591" y="0" type="qcurve"/>
			<point x="493" y="0" type="line"/>
			<point x="467" y="74"/>
			<point x="412" y="241"/>
		</contour>
	</outline>
</glyph>
<glyph name="x" format="2">
	<unicode hex="0078"/>
	<advance width="529"/>
	<outline>
		<contour>
			<point x="265" y="352" type="line"/>
			<point x="376" y="523" type="line"/>
			<point x="503" y="523" type="line"/>
			<point x="331" y="276" type="line"/>
			<point x="385" y="206"/>
			<point x="484" y="63"/>
			<point x="516" y="0" type="qcurve"/>
			<point x="385" y="0" type="line"/>
			<point x="376" y="19"/>
			<point x="347" y="68"/>
			<point x="314" y="121"/>
			<point x="278" y="173"/>
			<point x="261" y="196" type="qcurve"/>
			<point x="226" y="151"/>
			<point x="159" y="42"/>
			<point x="137" y="0" type="qcurve"/>
			<point x="13" y="0" type="line"/>
			<point x="28" y="30"/>
			<point x="70" y="98"/>
			<point x="118" y="169"/>
			<point x="169" y="240"/>
			<point x="194" y="272" type="qcurve"/>
			<point x="21" y="523" type="line"/>
			<point x="154" y="523" type="line"/>
		</contour>
	</outline>
</glyph>
<glyph name="y" format="2">
	<unicode hex="0079"/>
	<advance width="519"/>
	<outline>
		<contour>
			<point x="504" y="523" type="line"/>
			<point x="423" y="225"/>
			<point x="316" y="-17" type="qcurve"/>
			<point x="296" y="-62"/>
			<point x="254" y="-126"/>
			<point x="202" y="-168"/>
			<point x="138" y="-187"/>
			<point x="96" y="-187" type="qcurve"/>
			<point x="68" y="-187"/>
			<point x="13" y="-175"/>
			<point x="-1" y="-168" type="qcurve"/>
			<point x="21" y="-71" type="line"/>
			<point x="57" y="-85"/>
			<point x="92" y="-85" type="qcurve"/>
			<point x="139" y="-85"/>
			<point x="192" y="-40"/>
			<point x="212" y="7" type="qcurve"/>
			<point x="155" y="117"/>
			<point x="50" y="377"/>
			<point x="9" y="523" type="qcurve"/>
			<point x="138" y="523" type="line"/>
			<point x="148" y="481"/>
			<point x="177" y="383"/>
			<point x="211" y="282"/>
			<point x="249" y="182"/>
			<point x="268" y="139" type="qcurve"/>
			<point x="300" y="228"/>
			<point x="356" y="429"/>
			<point x="379" y="523" type="qcurve"/>
		</contour>
	</outline>
</glyph>
<glyph name="z" format="2">
	<unicode hex="007A"/>
	<advance width="484"/>
	<outline>
		<contour>
			<point x="443" y="523" type="line"/>
			<point x="46" y="523" type="line"/>
			<point x="46" y="422" type="line"/>
			<point x="287" y="422" type="line"/>
			<point x="216" y="337"/>
			<point x="93" y="181"/>
			<point x="33" y="75" type="curve"/>
			<point x="33" y="0" type="line"/>
			<point x="449" y="0" type="line"/>
			<point x="449" y="101" type="line"/>
			<point x="179" y="101" type="line"/>
			<point x="258" y="224"/>
			<point x="391" y="381"/>
			<point x="443" y="438" type="curve"/>
		</contour>
	</outline>
</glyph>
<glyph name="braceleft" format="2">
	<unicode hex="007B"/>
	<advance width="348"/>
	<outline>
		<contour>
			<point x="37" y="346" type="line"/>
			<point x="83" y="346"/>
			<point x="126" y="403"/>
			<point x="126" y="442" type="qcurve"/>
			<point x="126" y="589" type="line"/>
			<point x="126" y="636"/>
			<point x="144" y="709"/>
			<point x="190" y="758"/>
			<point x="272" y="783"/>
			<point x="336" y="783" type="qcurve"/>
			<point x="343" y="783" type="line"/>
			<point x="343" y="687" type="line"/>
			<point x="314" y="687"/>
			<point x="274" y="679"/>
			<point x="250" y="658"/>
			<point x="239" y="623"/>
			<point x="239" y="596" type="qcurve"/>
			<point x="239" y="453" type="line"/>
			<point x="239" y="393"/>
			<point x="208" y="322"/>
			<point x="171" y="299" type="qcurve"/>
			<point x="208" y="276"/>
			<point x="239" y="204"/>
			<point x="239" y="145" type="qcurve"/>
			<point x="239" y="1" type="line"/>
			<point x="239" y="-26"/>
			<point x="250" y="-60"/>
			<point x="274" y="-81"/>
			<point x="314" y="-89"/>
			<point x="343" y="-89" type="qcurve"/>
			<point x="343" y="-185" type="line"/>
			<point x="276" y="-185"/>
			<point x="192" y="-161"/>
			<point x="144" y="-112"/>
			<point x="126" y="-40"/>
			<point x="126" y="8" type="qcurve"/>
			<point x="126" y="156" type="line"/>
			<point x="126" y="194"/>
			<point x="83" y="251"/>
			<point x="37" y="251" type="qcurve"/>
		</contour>
	</outline>
</glyph>
<glyph name="bar" format="2">
	<unicode hex="007C"/>
	<advance width="300"/>
	<outline>
		<contour>
			<point x="93" y="-185" type="line"/>
			<point x="207" y="-185" type="line"/>
			<point x="207" y="783" type="line"/>
			<point x="93" y="783" type="line"/>
		</contour>
	</outline>
</glyph>
<glyph name="braceright" format="2">
	<unicode hex="007D"/>
	<advance width="348"/>
	<outline>
		<contour>
			<point x="311" y="251" type="line"/>
			<point x="265" y="251"/>
			<point x="222" y="194"/>
			<point x="222" y="156" type="qcurve"/>
			<point x="222" y="8" type="line"/>
			<point x="222" y="-40"/>
			<point x="204" y="-112"/>
			<point x="156" y="-161"/>
			<point x="72" y="-185"/>
			<point x="5" y="-185" type="qcurve"/>
			<point x="5" y="-89" type="line"/>
			<point x="63" y="-89"/>
			<point x="109" y="-52"/>
			<point x="109" y="1" type="qcurve"/>
			<point x="109" y="145" type="line"/>
			<point x="109" y="204"/>
			<point x="140" y="276"/>
			<point x="177" y="299" type="qcurve"/>
			<point x="140" y="322"/>
			<point x="109" y="393"/>
			<point x="109" y="453" type="qcurve"/>
			<point x="109" y="596" type="line"/>
			<point x="109" y="623"/>
			<point x="98" y="658"/>
			<point x="74" y="679"/>
			<point x="34" y="687"/>
			<point x="5" y="687" type="qcurve"/>
			<point x="5" y="783" type="line"/>
			<point x="12" y="783" type="line"/>
			<point x="76" y="783"/>
			<point x="158" y="758"/>
			<point x="204" y="709"/>
			<point x="222" y="636"/>
			<point x="222" y="589" type="qcurve"/>
			<point x="222" y="442" type="line"/>
			<point x="222" y="403"/>
			<point x="265" y="346"/>
			<point x="311" y="346" type="qcurve"/>
		</contour>
	</outline>
</glyph>
<glyph name="asciitilde" format="2">
	<unicode hex="007E"/>
	<advance width="568"/>
	<outline>
		<contour>
			<point x="385" y="207" type="qcurve"/>
			<point x="354" y="207"/>
			<point x="301" y="232"/>
			<point x="251" y="262"/>
			<point x="205" y="287"/>
			<point x="181" y="287" type="qcurve"/>
			<point x="157" y="287"/>
			<point x="127" y="250"/>
			<point x="116" y="212" type="qcurve"/>
			<point x="33" y="235" type="line"/>
			<point x="38" y="259"/>
			<point x="57" y="314"/>
			<point x="92" y="361"/>
			<point x="144" y="393"/>
			<point x="181" y="393" type="qcurve"/>
			<point x="212" y="393"/>
			<point x="265" y="368"/>
			<point x="315" y="337"/>
			<point x="361" y="312"/>
			<point x="385" y="312" type="qcurve"/>
			<point x="410" y="312"/>
			<point x="440" y="350"/>
			<point x="450" y="388" type="qcurve"/>
			<point x="533" y="365" type="line"/>
			<point x="528" y="341"/>
			<point x="509" y="286"/>
			<point x="474" y="239"/>
			<point x="422" y="207"/>
		</contour>
	</outline>
</glyph>
<glyph name="exclamdown" format="2">
	<unicode hex="00A1"/>
	<advance width="306"/>
	<outline>
		<contour>
			<point x="218" y="-183" type="line"/>
			<point x="89" y="-183" type="line"/>
			<point x="89" y="3" type="line"/>
			<point x="89" y="85"/>
			<point x="101" y="224"/>
			<point x="111" y="294" type="qcurve"/>
			<point x="197" y="294" type="line"/>
			<point x="206" y="224"/>
			<point x="218" y="86"/>
			<point x="218" y="3" type="qcurve"/>
		</contour>
		<contour>
			<point x="233" y="444" type="qcurve"/>
			<point x="233" y="409"/>
			<point x="187" y="364"/>
			<point x="153" y="364" type="qcurve"/>
			<point x="120" y="364"/>
			<point x="73" y="409"/>
			<point x="73" y="444" type="qcurve"/>
			<point x="73" y="479"/>
			<point x="120" y="523"/>
			<point x="153" y="523" type="qcurve"/>
			<point x="187" y="523"/>
			<point x="233" y="479"/>
		</contour>
	</outline>
</glyph>
<glyph name="cent" format="2">
	<unicode hex="00A2"/>
	<advance width="568"/>
	<outline>
		<contour>
			<point x="252" y="36" type="line"/>
			<point x="158" y="57"/>
			<point x="66" y="196"/>
			<point x="66" y="292" type="qcurve"/>
			<point x="66" y="338"/>
			<point x="91" y="422"/>
			<point x="139" y="489"/>
			<point x="208" y="536"/>
			<point x="252" y="547" type="qcurve"/>
			<point x="252" y="692" type="line"/>
			<point x="365" y="692" type="line"/>
			<point x="365" y="555" type="line"/>
			<point x="418" y="551"/>
			<point x="468" y="531" type="qcurve"/>
			<point x="441" y="433" type="line"/>
			<point x="420" y="441"/>
			<point x="368" y="453"/>
			<point x="337" y="453" type="qcurve"/>
			<point x="266" y="453"/>
			<point x="191" y="369"/>
			<point x="191" y="292" type="qcurve"/>
			<point x="191" y="217"/>
			<point x="262" y="132"/>
			<point x="344" y="132" type="qcurve"/>
			<point x="376" y="132"/>
			<point x="437" y="144"/>
			<point x="459" y="153" type="qcurve"/>
			<point x="476" y="54" type="line"/>
			<point x="459" y="46"/>
			<point x="399" y="32"/>
			<point x="365" y="29" type="qcurve"/>
			<point x="365" y="-109" type="line"/>
			<point x="252" y="-109" type="line"/>
		</contour>
	</outline>
</glyph>
<glyph name="sterling" format="2">
	<unicode hex="00A3"/>
	<advance width="568"/>
	<outline>
		<contour>
			<point x="259" y="383" type="line"/>
			<point x="437" y="383" type="line"/>
			<point x="437" y="285" type="line"/>
			<point x="259" y="285" type="line"/>
			<point x="259" y="242"/>
			<point x="252" y="145"/>
			<point x="245" y="102" type="qcurve"/>
			<point x="520" y="102" type="line"/>
			<point x="520" y="0" type="line"/>
			<point x="110" y="0" type="line"/>
			<point x="140" y="153"/>
			<point x="140" y="285" type="qcurve"/>
			<point x="50" y="285" type="line"/>
			<point x="50" y="383" type="line"/>
			<point x="140" y="383" type="line"/>
			<point x="140" y="449" type="line"/>
			<point x="140" y="525"/>
			<point x="174" y="624"/>
			<point x="234" y="682"/>
			<point x="318" y="706"/>
			<point x="368" y="706" type="qcurve"/>
			<point x="410" y="706"/>
			<point x="475" y="690"/>
			<point x="505" y="677" type="qcurve"/>
			<point x="475" y="579" type="line"/>
			<point x="428" y="601"/>
			<point x="372" y="602" type="qcurve"/>
			<point x="346" y="602"/>
			<point x="304" y="589"/>
			<point x="275" y="556"/>
			<point x="259" y="499"/>
			<point x="259" y="456" type="qcurve"/>
		</contour>
	</outline>
</glyph>
<glyph name="currency" format="2">
	<unicode hex="00A4"/>
	<advance width="568"/>
	<outline>
		<contour>
			<point x="284" y="541" type="qcurve"/>
			<point x="339" y="541"/>
			<point x="382" y="518" type="qcurve"/>
			<point x="457" y="591" type="line"/>
			<point x="532" y="516" type="line"/>
			<point x="459" y="445" type="line"/>
			<point x="484" y="404"/>
			<point x="484" y="347" type="qcurve"/>
			<point x="484" y="289"/>
			<point x="459" y="249" type="qcurve"/>
			<point x="532" y="177" type="line"/>
			<point x="456" y="102" type="line"/>
			<point x="382" y="175" type="line"/>
			<point x="339" y="152"/>
			<point x="284" y="152" type="qcurve"/>
			<point x="228" y="152"/>
			<point x="185" y="175" type="qcurve"/>
			<point x="111" y="103" type="line"/>
			<point x="35" y="177" type="line"/>
			<point x="108" y="248" type="line"/>
			<point x="83" y="289"/>
			<point x="83" y="347" type="qcurve"/>
			<point x="83" y="404"/>
			<point x="108" y="445" type="qcurve"/>
			<point x="35" y="516" type="line"/>
			<point x="111" y="591" type="line"/>
			<point x="185" y="518" type="line"/>
			<point x="228" y="541"/>
		</contour>
		<contour>
			<point x="284" y="241" type="qcurve"/>
			<point x="325" y="241"/>
			<point x="384" y="296"/>
			<point x="384" y="347" type="qcurve"/>
			<point x="384" y="397"/>
			<point x="325" y="452"/>
			<point x="284" y="452" type="qcurve"/>
			<point x="242" y="452"/>
			<point x="184" y="397"/>
			<point x="184" y="347" type="qcurve"/>
			<point x="184" y="296"/>
			<point x="242" y="241"/>
		</contour>
	</outline>
</glyph>
<glyph name="yen" format="2">
	<unicode hex="00A5"/>
	<advance width="568"/>
	<outline>
		<contour>
			<point x="500" y="108" type="line"/>
			<point x="345" y="108" type="line"/>
			<point x="345" y="0" type="line"/>
			<point x="224" y="0" type="line"/>
			<point x="224" y="108" type="line"/>
			<point x="69" y="108" type="line"/>
			<point x="69" y="193" type="line"/>
			<point x="224" y="193" type="line"/>
			<point x="224" y="277" type="line"/>
			<point x="69" y="277" type="line"/>
			<point x="69" y="362" type="line"/>
			<point x="187" y="362" type="line"/>
			<point x="139" y="444"/>
			<point x="44" y="618"/>
			<point x="7" y="693" type="qcurve"/>
			<point x="143" y="693" type="line"/>
			<point x="177" y="619"/>
			<point x="247" y="472"/>
			<point x="287" y="403" type="qcurve"/>
			<point x="325" y="472"/>
			<point x="393" y="620"/>
			<point x="426" y="693" type="qcurve"/>
			<point x="561" y="693" type="line"/>
			<point x="519" y="612"/>
			<point x="432" y="447"/>
			<point x="381" y="362" type="qcurve"/>
			<point x="500" y="362" type="line"/>
			<point x="500" y="277" type="line"/>
			<point x="345" y="277" type="line"/>
			<point x="345" y="193" type="line"/>
			<point x="500" y="193" type="line"/>
		</contour>
	</outline>
</glyph>
<glyph name="brokenbar" format="2">
	<unicode hex="00A6"/>
	<advance width="300"/>
	<outline>
		<contour>
			<point x="93" y="205" type="line"/>
			<point x="207" y="205" type="line"/>
			<point x="207" y="-185" type="line"/>
			<point x="93" y="-185" type="line"/>
		</contour>
		<contour>
			<point x="93" y="783" type="line"/>
			<point x="207" y="783" type="line"/>
			<point x="207" y="393" type="line"/>
			<point x="93" y="393" type="line"/>
		</contour>
	</outline>
</glyph>
<glyph name="section" format="2">
	<unicode hex="00A7"/>
	<advance width="509"/>
	<outline>
		<contour>
			<point x="70" y="26" type="line"/>
			<point x="108" y="10"/>
			<point x="190" y="-8"/>
			<point x="234" y="-8" type="qcurve"/>
			<point x="249" y="-8"/>
			<point x="283" y="-4"/>
			<point x="312" y="8"/>
			<point x="331" y="29"/>
			<point x="331" y="46" type="qcurve"/>
			<point x="331" y="72"/>
			<point x="285" y="104"/>
			<point x="227" y="125" type="qcurve"/>
			<point x="189" y="138"/>
			<point x="123" y="167"/>
			<point x="73" y="208"/>
			<point x="44" y="266"/>
			<point x="44" y="308" type="qcurve"/>
			<point x="44" y="333"/>
			<point x="58" y="375"/>
			<point x="82" y="410"/>
			<point x="112" y="439"/>
			<point x="127" y="451" type="qcurve"/>
			<point x="103" y="471"/>
			<point x="76" y="521"/>
			<point x="76" y="552" type="qcurve"/>
			<point x="76" y="625"/>
			<point x="181" y="709"/>
			<point x="278" y="709" type="qcurve"/>
			<point x="326" y="709"/>
			<point x="419" y="689"/>
			<point x="451" y="677" type="qcurve"/>
			<point x="422" y="578" type="line"/>
			<point x="394" y="589"/>
			<point x="325" y="608"/>
			<point x="277" y="608" type="qcurve"/>
			<point x="239" y="608"/>
			<point x="194" y="583"/>
			<point x="194" y="558" type="qcurve"/>
			<point x="194" y="530"/>
			<point x="236" y="499"/>
			<point x="287" y="482" type="qcurve"/>
			<point x="327" y="468"/>
			<point x="394" y="439"/>
			<point x="443" y="397"/>
			<point x="470" y="340"/>
			<point x="470" y="300" type="qcurve"/>
			<point x="470" y="252"/>
			<point x="422" y="187"/>
			<point x="390" y="163" type="qcurve"/>
			<point x="451" y="119"/>
			<point x="451" y="48" type="qcurve"/>
			<point x="451" y="2"/>
			<point x="415" y="-58"/>
			<point x="354" y="-94"/>
			<point x="276" y="-109"/>
			<point x="234" y="-109" type="qcurve"/>
			<point x="171" y="-109"/>
			<point x="70" y="-84"/>
			<point x="40" y="-70" type="qcurve"/>
		</contour>
		<contour>
			<point x="204" y="401" type="qcurve"/>
			<point x="181" y="384"/>
			<point x="153" y="342"/>
			<point x="153" y="318" type="qcurve"/>
			<point x="153" y="277"/>
			<point x="220" y="234"/>
			<point x="277" y="215" type="qcurve"/>
			<point x="307" y="204" type="line"/>
			<point x="330" y="221"/>
			<point x="358" y="263"/>
			<point x="358" y="287" type="qcurve"/>
			<point x="358" y="312"/>
			<point x="335" y="344"/>
			<point x="294" y="368"/>
			<point x="238" y="388"/>
		</contour>
	</outline>
</glyph>
<glyph name="dieresis" format="2">
	<unicode hex="00A8"/>
	<advance width="405"/>
	<outline>
		<contour>
			<point x="99" y="609" type="qcurve"/>
			<point x="72" y="609"/>
			<point x="32" y="645"/>
			<point x="32" y="676" type="qcurve"/>
			<point x="32" y="707"/>
			<point x="72" y="744"/>
			<point x="99" y="744" type="qcurve"/>
			<point x="126" y="744"/>
			<point x="167" y="707"/>
			<point x="167" y="676" type="qcurve"/>
			<point x="167" y="645"/>
			<point x="126" y="609"/>
		</contour>
		<contour>
			<point x="306" y="609" type="qcurve"/>
			<point x="279" y="609"/>
			<point x="238" y="645"/>
			<point x="238" y="676" type="qcurve"/>
			<point x="238" y="707"/>
			<point x="279" y="744"/>
			<point x="306" y="744" type="qcurve"/>
			<point x="333" y="744"/>
			<point x="373" y="707"/>
			<point x="373" y="676" type="qcurve"/>
			<point x="373" y="645"/>
			<point x="333" y="609"/>
		</contour>
	</outline>
</glyph>
<glyph name="copyright" format="2">
	<unicode hex="00A9"/>
	<advance width="814"/>
	<outline>
		<contour>
			<point x="752" y="347" type="curve" smooth="yes"/>
			<point x="752" y="574"/>
			<point x="590" y="709"/>
			<point x="407" y="709" type="curve" smooth="yes"/>
			<point x="225" y="709"/>
			<point x="62" y="574"/>
			<point x="62" y="347" type="curve" smooth="yes"/>
			<point x="62" y="119"/>
			<point x="225" y="-15"/>
			<point x="407" y="-15" type="curve" smooth="yes"/>
			<point x="590" y="-15"/>
			<point x="752" y="119"/>
		</contour>
		<contour>
			<point x="665" y="347" type="curve" smooth="yes"/>
			<point x="665" y="178"/>
			<point x="558" y="66"/>
			<point x="407" y="66" type="curve" smooth="yes"/>
			<point x="256" y="66"/>
			<point x="150" y="178"/>
			<point x="150" y="347" type="curve" smooth="yes"/>
			<point x="150" y="515"/>
			<point x="256" y="627"/>
			<point x="407" y="627" type="curve" smooth="yes"/>
			<point x="558" y="627"/>
			<point x="665" y="515"/>
		</contour>
		<contour>
			<point x="421" y="150" type="curve" smooth="yes"/>
			<point x="483" y="150"/>
			<point x="530" y="172"/>
			<point x="546" y="180" type="curve"/>
			<point x="522" y="256" type="line"/>
			<point x="502" y="247"/>
			<point x="473" y="234"/>
			<point x="427" y="234" type="curve" smooth="yes"/>
			<point x="357" y="234"/>
			<point x="330" y="285"/>
			<point x="330" y="350" type="curve" smooth="yes"/>
			<point x="330" y="422"/>
			<point x="370" y="461"/>
			<point x="426" y="461" type="curve" smooth="yes"/>
			<point x="468" y="461"/>
			<point x="497" y="448"/>
			<point x="514" y="438" type="curve"/>
			<point x="542" y="512" type="line"/>
			<point x="529" y="520"/>
			<point x="486" y="545"/>
			<point x="420" y="545" type="curve" smooth="yes"/>
			<point x="314" y="545"/>
			<point x="234" y="472"/>
			<point x="234" y="348" type="curve" smooth="yes"/>
			<point x="234" y="222"/>
			<point x="305" y="150"/>
		</contour>
	</outline>
</glyph>
<glyph name="ordfeminine" format="2">
	<unicode hex="00AA"/>
	<advance width="402"/>
	<outline>
		<contour>
			<point x="126" y="437" type="curve" smooth="yes"/>
			<point x="126" y="483"/>
			<point x="179" y="489"/>
			<point x="212" y="489" type="curve" smooth="yes"/>
			<point x="230" y="489"/>
			<point x="252" y="487"/>
			<point x="264" y="484" type="curve"/>
			<point x="264" y="396" type="line"/>
			<point x="255" y="394"/>
			<point x="236" y="392"/>
			<point x="213" y="392" type="curve" smooth="yes"/>
			<point x="171" y="392"/>
			<point x="126" y="397"/>
		</contour>
		<contour>
			<point x="194" y="707" type="curve" smooth="yes"/>
			<point x="148" y="707"/>
			<point x="97" y="698"/>
			<point x="72" y="690" type="curve"/>
			<point x="85" y="614" type="line"/>
			<point x="111" y="623"/>
			<point x="152" y="628"/>
			<point x="186" y="628" type="curve" smooth="yes"/>
			<point x="247" y="628"/>
			<point x="264" y="596"/>
			<point x="264" y="557" type="curve" smooth="yes"/>
			<point x="264" y="551" type="line"/>
			<point x="243" y="554"/>
			<point x="221" y="556"/>
			<point x="198" y="556" type="curve" smooth="yes"/>
			<point x="111" y="556"/>
			<point x="35" y="527"/>
			<point x="35" y="440" type="curve" smooth="yes"/>
			<point x="35" y="351"/>
			<point x="99" y="318"/>
			<point x="195" y="318" type="curve" smooth="yes"/>
			<point x="261" y="318"/>
			<point x="321" y="327"/>
			<point x="352" y="334" type="curve"/>
			<point x="352" y="561" type="line" smooth="yes"/>
			<point x="352" y="650"/>
			<point x="312" y="707"/>
		</contour>
	</outline>
</glyph>
<glyph name="logicalnot" format="2">
	<unicode hex="00AC"/>
	<advance width="568"/>
	<outline>
		<contour>
			<point x="516" y="397" type="line"/>
			<point x="52" y="397" type="line"/>
			<point x="52" y="295" type="line"/>
			<point x="408" y="295" type="line"/>
			<point x="408" y="47" type="line"/>
			<point x="516" y="47" type="line"/>
		</contour>
	</outline>
</glyph>
<glyph name="registered" format="2">
	<unicode hex="00AE"/>
	<advance width="814"/>
	<outline>
		<contour>
			<point x="752" y="347" type="qcurve"/>
			<point x="752" y="261"/>
			<point x="696" y="127"/>
			<point x="601" y="34"/>
			<point x="476" y="-15"/>
			<point x="407" y="-15" type="qcurve"/>
			<point x="339" y="-15"/>
			<point x="214" y="34"/>
			<point x="119" y="127"/>
			<point x="62" y="261"/>
			<point x="62" y="347" type="qcurve"/>
			<point x="62" y="432"/>
			<point x="119" y="567"/>
			<point x="214" y="660"/>
			<point x="339" y="709"/>
			<point x="407" y="709" type="qcurve"/>
			<point x="476" y="709"/>
			<point x="601" y="660"/>
			<point x="696" y="567"/>
			<point x="752" y="432"/>
		</contour>
		<contour>
			<point x="665" y="347" type="qcurve"/>
			<point x="665" y="410"/>
			<point x="627" y="513"/>
			<point x="558" y="587"/>
			<point x="464" y="627"/>
			<point x="407" y="627" type="qcurve"/>
			<point x="350" y="627"/>
			<point x="256" y="587"/>
			<point x="188" y="513"/>
			<point x="150" y="410"/>
			<point x="150" y="347" type="qcurve"/>
			<point x="150" y="284"/>
			<point x="188" y="180"/>
			<point x="256" y="106"/>
			<point x="350" y="66"/>
			<point x="407" y="66" type="qcurve"/>
			<point x="464" y="66"/>
			<point x="558" y="106"/>
			<point x="627" y="180"/>
			<point x="665" y="284"/>
		</contour>
		<contour>
			<point x="487" y="162" type="line"/>
			<point x="467" y="204"/>
			<point x="427" y="273"/>
			<point x="409" y="296" type="qcurve"/>
			<point x="355" y="296" type="line"/>
			<point x="355" y="162" type="line"/>
			<point x="271" y="162" type="line"/>
			<point x="271" y="527" type="line"/>
			<point x="302" y="535"/>
			<point x="362" y="541"/>
			<point x="385" y="541" type="qcurve"/>
			<point x="468" y="541"/>
			<point x="553" y="479"/>
			<point x="553" y="416" type="qcurve"/>
			<point x="553" y="382"/>
			<point x="520" y="331"/>
			<point x="489" y="317" type="qcurve"/>
			<point x="509" y="288"/>
			<point x="555" y="212"/>
			<point x="577" y="162" type="qcurve"/>
		</contour>
		<contour>
			<point x="355" y="364" type="line"/>
			<point x="383" y="364" type="line"/>
			<point x="422" y="364"/>
			<point x="468" y="385"/>
			<point x="468" y="417" type="qcurve"/>
			<point x="468" y="445"/>
			<point x="425" y="468"/>
			<point x="392" y="468" type="qcurve"/>
			<point x="383" y="468"/>
			<point x="366" y="468"/>
			<point x="355" y="466" type="qcurve"/>
		</contour>
	</outline>
</glyph>
<glyph name="degree" format="2">
	<unicode hex="00B0"/>
	<advance width="347"/>
	<outline>
		<contour>
			<point x="173" y="778" type="qcurve"/>
			<point x="203" y="778"/>
			<point x="258" y="758"/>
			<point x="300" y="720"/>
			<point x="324" y="665"/>
			<point x="324" y="631" type="qcurve"/>
			<point x="324" y="597"/>
			<point x="300" y="542"/>
			<point x="258" y="504"/>
			<point x="203" y="484"/>
			<point x="173" y="484" type="qcurve"/>
			<point x="143" y="484"/>
			<point x="89" y="504"/>
			<point x="47" y="542"/>
			<point x="23" y="597"/>
			<point x="23" y="631" type="qcurve"/>
			<point x="23" y="665"/>
			<point x="47" y="720"/>
			<point x="89" y="758"/>
			<point x="143" y="778"/>
		</contour>
		<contour>
			<point x="173" y="565" type="qcurve"/>
			<point x="199" y="565"/>
			<point x="237" y="600"/>
			<point x="237" y="631" type="qcurve"/>
			<point x="237" y="662"/>
			<point x="199" y="698"/>
			<point x="173" y="698" type="qcurve"/>
			<point x="147" y="698"/>
			<point x="109" y="662"/>
			<point x="109" y="631" type="qcurve"/>
			<point x="109" y="600"/>
			<point x="147" y="565"/>
		</contour>
	</outline>
</glyph>
<glyph name="twosuperior" format="2">
	<unicode hex="00B2"/>
	<advance width="363"/>
	<outline>
		<contour>
			<point x="309" y="592" type="qcurve"/>
			<point x="309" y="571"/>
			<point x="294" y="535"/>
			<point x="266" y="499"/>
			<point x="225" y="461"/>
			<point x="198" y="437" type="qcurve"/>
			<point x="183" y="424"/>
			<point x="156" y="396"/>
			<point x="151" y="385" type="qcurve"/>
			<point x="322" y="385" type="line"/>
			<point x="322" y="308" type="line"/>
			<point x="45" y="308" type="line"/>
			<point x="44" y="327"/>
			<point x="45" y="343" type="qcurve"/>
			<point x="49" y="391"/>
			<point x="104" y="461"/>
			<point x="147" y="497" type="qcurve"/>
			<point x="177" y="523"/>
			<point x="215" y="565"/>
			<point x="215" y="586" type="qcurve"/>
			<point x="215" y="606"/>
			<point x="190" y="627"/>
			<point x="167" y="627" type="qcurve"/>
			<point x="135" y="627"/>
			<point x="86" y="600"/>
			<point x="72" y="589" type="qcurve"/>
			<point x="28" y="653" type="line"/>
			<point x="49" y="673"/>
			<point x="124" y="709"/>
			<point x="169" y="709" type="qcurve"/>
			<point x="243" y="709"/>
			<point x="309" y="646"/>
		</contour>
	</outline>
</glyph>
<glyph name="threesuperior" format="2">
	<unicode hex="00B3"/>
	<advance width="363"/>
	<outline>
		<contour>
			<point x="154" y="378" type="qcurve"/>
			<point x="199" y="378"/>
			<point x="232" y="405"/>
			<point x="232" y="426" type="qcurve"/>
			<point x="232" y="454"/>
			<point x="181" y="478"/>
			<point x="142" y="478" type="qcurve"/>
			<point x="112" y="478" type="line"/>
			<point x="112" y="548" type="line"/>
			<point x="145" y="548" type="line"/>
			<point x="171" y="548"/>
			<point x="215" y="568"/>
			<point x="215" y="592" type="qcurve"/>
			<point x="215" y="631"/>
			<point x="160" y="631" type="qcurve"/>
			<point x="134" y="631"/>
			<point x="89" y="614"/>
			<point x="70" y="605" type="qcurve"/>
			<point x="38" y="672" type="line"/>
			<point x="58" y="686"/>
			<point x="130" y="709"/>
			<point x="165" y="709" type="qcurve"/>
			<point x="203" y="709"/>
			<point x="256" y="692"/>
			<point x="289" y="662"/>
			<point x="303" y="622"/>
			<point x="303" y="600" type="qcurve"/>
			<point x="303" y="554"/>
			<point x="254" y="522" type="qcurve"/>
			<point x="288" y="508"/>
			<point x="323" y="458"/>
			<point x="323" y="425" type="qcurve"/>
			<point x="323" y="399"/>
			<point x="305" y="353"/>
			<point x="265" y="319"/>
			<point x="201" y="300"/>
			<point x="155" y="300" type="qcurve"/>
			<point x="123" y="300"/>
			<point x="53" y="315"/>
			<point x="32" y="325" type="qcurve"/>
			<point x="51" y="400" type="line"/>
			<point x="80" y="389"/>
			<point x="127" y="378"/>
		</contour>
	</outline>
</glyph>
<glyph name="acute" format="2">
	<unicode hex="00B4"/>
	<advance width="392"/>
	<outline>
		<contour>
			<point x="316" y="737" type="line"/>
			<point x="153" y="579" type="line"/>
			<point x="93" y="633" type="line"/>
			<point x="240" y="808" type="line"/>
		</contour>
	</outline>
</glyph>
<glyph name="mu" format="2">
	<unicode hex="00B5"/>
	<advance width="591"/>
	<outline>
		<contour>
			<point x="198" y="523" type="line"/>
			<point x="198" y="243" type="line"/>
			<point x="198" y="200"/>
			<point x="211" y="143"/>
			<point x="238" y="108"/>
			<point x="280" y="93"/>
			<point x="309" y="93" type="qcurve"/>
			<point x="332" y="93"/>
			<point x="381" y="97"/>
			<point x="393" y="100" type="qcurve"/>
			<point x="393" y="523" type="line"/>
			<point x="514" y="523" type="line"/>
			<point x="514" y="16" type="line"/>
			<point x="478" y="7"/>
			<point x="373" y="-11"/>
			<point x="312" y="-11" type="qcurve"/>
			<point x="271" y="-11"/>
			<point x="212" y="6"/>
			<point x="192" y="21" type="qcurve"/>
			<point x="195" y="-3"/>
			<point x="197" y="-56"/>
			<point x="197" y="-91" type="qcurve"/>
			<point x="197" y="-176" type="line"/>
			<point x="77" y="-176" type="line"/>
			<point x="77" y="523" type="line"/>
		</contour>
	</outline>
</glyph>
<glyph name="paragraph" format="2">
	<unicode hex="00B6"/>
	<advance width="683"/>
	<outline>
		<contour>
			<point x="267" y="260" type="line"/>
			<point x="155" y="273"/>
			<point x="40" y="376"/>
			<point x="40" y="477" type="qcurve"/>
			<point x="40" y="586"/>
			<point x="214" y="700"/>
			<point x="368" y="700" type="qcurve"/>
			<point x="420" y="700"/>
			<point x="539" y="690"/>
			<point x="586" y="679" type="qcurve"/>
			<point x="586" y="-185" type="line"/>
			<point x="477" y="-185" type="line"/>
			<point x="477" y="596" type="line"/>
			<point x="466" y="598"/>
			<point x="430" y="600"/>
			<point x="416" y="600" type="qcurve"/>
			<point x="406" y="600"/>
			<point x="385" y="600"/>
			<point x="377" y="599" type="qcurve"/>
			<point x="377" y="-185" type="line"/>
			<point x="267" y="-185" type="line"/>
		</contour>
	</outline>
</glyph>
<glyph name="cedilla" format="2">
	<unicode hex="00B8"/>
	<advance width="390"/>
	<outline>
		<contour>
			<point x="214" y="-39" type="qcurve"/>
			<point x="246" y="-54"/>
			<point x="271" y="-92"/>
			<point x="271" y="-120" type="qcurve"/>
			<point x="271" y="-155"/>
			<point x="211" y="-205"/>
			<point x="151" y="-205" type="qcurve"/>
			<point x="103" y="-205"/>
			<point x="66" y="-192" type="qcurve"/>
			<point x="80" y="-120" type="line"/>
			<point x="90" y="-123"/>
			<point x="122" y="-131"/>
			<point x="139" y="-131" type="qcurve"/>
			<point x="156" y="-131"/>
			<point x="175" y="-119"/>
			<point x="175" y="-107" type="qcurve"/>
			<point x="175" y="-91"/>
			<point x="147" y="-76"/>
			<point x="133" y="-71" type="qcurve"/>
			<point x="123" y="-68" type="line"/>
			<point x="126" y="-58"/>
			<point x="138" y="-32"/>
			<point x="150" y="-6"/>
			<point x="160" y="15"/>
			<point x="163" y="20" type="qcurve"/>
			<point x="243" y="20" type="line"/>
			<point x="237" y="9"/>
			<point x="219" y="-27"/>
		</contour>
	</outline>
</glyph>
<glyph name="onesuperior" format="2">
	<unicode hex="00B9"/>
	<advance width="363"/>
	<outline>
		<contour>
			<point x="47" y="619" type="line"/>
			<point x="87" y="634"/>
			<point x="163" y="676"/>
			<point x="191" y="701" type="qcurve"/>
			<point x="259" y="701" type="line"/>
			<point x="259" y="308" type="line"/>
			<point x="167" y="308" type="line"/>
			<point x="167" y="590" type="line"/>
			<point x="147" y="578"/>
			<point x="97" y="557"/>
			<point x="72" y="549" type="qcurve"/>
		</contour>
	</outline>
</glyph>
<glyph name="ordmasculine" format="2">
	<unicode hex="00BA"/>
	<advance width="455"/>
	<outline>
		<contour>
			<point x="415" y="512" type="qcurve"/>
			<point x="415" y="467"/>
			<point x="387" y="395"/>
			<point x="338" y="344"/>
			<point x="269" y="317"/>
			<point x="228" y="317" type="qcurve"/>
			<point x="187" y="317"/>
			<point x="118" y="344"/>
			<point x="68" y="395"/>
			<point x="40" y="467"/>
			<point x="40" y="512" type="qcurve"/>
			<point x="40" y="557"/>
			<point x="68" y="630"/>
			<point x="118" y="681"/>
			<point x="187" y="708"/>
			<point x="228" y="708" type="qcurve"/>
			<point x="269" y="708"/>
			<point x="338" y="681"/>
			<point x="387" y="630"/>
			<point x="415" y="557"/>
		</contour>
		<contour>
			<point x="321" y="512" type="qcurve"/>
			<point x="321" y="564"/>
			<point x="273" y="625"/>
			<point x="228" y="625" type="qcurve"/>
			<point x="183" y="625"/>
			<point x="134" y="564"/>
			<point x="134" y="512" type="qcurve"/>
			<point x="134" y="461"/>
			<point x="183" y="400"/>
			<point x="228" y="400" type="qcurve"/>
			<point x="273" y="400"/>
			<point x="321" y="461"/>
		</contour>
	</outline>
</glyph>
<glyph name="questiondown" format="2">
	<unicode hex="00BF"/>
	<advance width="424"/>
	<outline>
		<contour>
			<point x="240" y="-96" type="qcurve"/>
			<point x="275" y="-96"/>
			<point x="339" y="-79"/>
			<point x="374" y="-60" type="qcurve"/>
			<point x="408" y="-153" type="line"/>
			<point x="371" y="-174"/>
			<point x="276" y="-199"/>
			<point x="226" y="-199" type="qcurve"/>
			<point x="166" y="-199"/>
			<point x="88" y="-166"/>
			<point x="42" y="-116"/>
			<point x="24" y="-56"/>
			<point x="24" y="-28" type="qcurve"/>
			<point x="24" y="6"/>
			<point x="49" y="60"/>
			<point x="87" y="106"/>
			<point x="131" y="147"/>
			<point x="169" y="190"/>
			<point x="194" y="238"/>
			<point x="194" y="268" type="qcurve"/>
			<point x="194" y="273"/>
			<point x="194" y="286"/>
			<point x="193" y="292" type="qcurve"/>
			<point x="297" y="292" type="line"/>
			<point x="299" y="282"/>
			<point x="301" y="259"/>
			<point x="301" y="249" type="qcurve"/>
			<point x="301" y="216"/>
			<point x="279" y="164"/>
			<point x="245" y="120"/>
			<point x="206" y="82"/>
			<point x="172" y="44"/>
			<point x="150" y="4"/>
			<point x="150" y="-20" type="qcurve"/>
			<point x="150" y="-53"/>
			<point x="195" y="-96"/>
		</contour>
		<contour>
			<point x="162" y="444" type="qcurve"/>
			<point x="162" y="479"/>
			<point x="208" y="523"/>
			<point x="242" y="523" type="qcurve"/>
			<point x="275" y="523"/>
			<point x="322" y="479"/>
			<point x="322" y="444" type="qcurve"/>
			<point x="322" y="409"/>
			<point x="275" y="364"/>
			<point x="242" y="364" type="qcurve"/>
			<point x="208" y="364"/>
			<point x="162" y="409"/>
		</contour>
	</outline>
</glyph>
<glyph name="Aring" format="2">
	<unicode hex="00C5"/>
	<advance width="684"/>
	<outline>
		<contour>
			<point x="452" y="752" type="qcurve"/>
			<point x="452" y="723"/>
			<point x="431" y="681"/>
			<point x="413" y="667" type="qcurve"/>
			<point x="446" y="596"/>
			<point x="509" y="449"/>
			<point x="574" y="287"/>
			<point x="641" y="106"/>
			<point x="679" y="0" type="qcurve"/>
			<point x="543" y="0" type="line"/>
			<point x="529" y="41"/>
			<point x="499" y="121"/>
			<point x="485" y="163" type="qcurve"/>
			<point x="193" y="163" type="line"/>
			<point x="179" y="121"/>
			<point x="150" y="40"/>
			<point x="136" y="0" type="qcurve"/>
			<point x="5" y="0" type="line"/>
			<point x="42" y="106"/>
			<point x="109" y="287"/>
			<point x="173" y="449"/>
			<point x="236" y="596"/>
			<point x="269" y="667" type="qcurve"/>
			<point x="252" y="681"/>
			<point x="231" y="723"/>
			<point x="231" y="752" type="qcurve"/>
			<point x="231" y="777"/>
			<point x="249" y="818"/>
			<point x="279" y="845"/>
			<point x="319" y="860"/>
			<point x="341" y="860" type="qcurve"/>
			<point x="363" y="860"/>
			<point x="403" y="845"/>
			<point x="434" y="818"/>
			<point x="452" y="777"/>
		</contour>
		<contour>
			<point x="339" y="559" type="qcurve"/>
			<point x="316" y="506"/>
			<point x="257" y="354"/>
			<point x="225" y="265" type="qcurve"/>
			<point x="453" y="265" type="line"/>
			<point x="421" y="354"/>
			<point x="361" y="508"/>
		</contour>
		<contour>
			<point x="392" y="752" type="qcurve"/>
			<point x="392" y="777"/>
			<point x="362" y="806"/>
			<point x="341" y="806" type="qcurve"/>
			<point x="321" y="806"/>
			<point x="291" y="777"/>
			<point x="291" y="752" type="qcurve"/>
			<point x="291" y="726"/>
			<point x="321" y="698"/>
			<point x="341" y="698" type="qcurve"/>
			<point x="362" y="698"/>
			<point x="392" y="726"/>
		</contour>
	</outline>
</glyph>
<glyph name="AE" format="2">
	<unicode hex="00C6"/>
	<advance width="957"/>
	<outline>
		<contour>
			<point x="478" y="171" type="line"/>
			<point x="231" y="171" type="line"/>
			<point x="208" y="129"/>
			<point x="160" y="42"/>
			<point x="140" y="0" type="qcurve"/>
			<point x="3" y="0" type="line"/>
			<point x="121" y="217"/>
			<point x="329" y="556"/>
			<point x="426" y="693" type="qcurve"/>
			<point x="899" y="693" type="line"/>
			<point x="899" y="587" type="line"/>
			<point x="601" y="587" type="line"/>
			<point x="601" y="414" type="line"/>
			<point x="864" y="414" type="line"/>
			<point x="864" y="311" type="line"/>
			<point x="601" y="311" type="line"/>
			<point x="601" y="106" type="line"/>
			<point x="923" y="106" type="line"/>
			<point x="923" y="0" type="line"/>
			<point x="478" y="0" type="line"/>
		</contour>
		<contour>
			<point x="478" y="579" type="line"/>
			<point x="457" y="549"/>
			<point x="409" y="477"/>
			<point x="359" y="397"/>
			<point x="309" y="313"/>
			<point x="285" y="272" type="qcurve"/>
			<point x="478" y="272" type="line"/>
		</contour>
	</outline>
</glyph>
<glyph name="Ccedilla" format="2">
	<unicode hex="00C7"/>
	<advance width="638"/>
	<outline>
		<contour>
			<point x="401" y="-39" type="qcurve"/>
			<point x="433" y="-54"/>
			<point x="458" y="-92"/>
			<point x="458" y="-120" type="qcurve"/>
			<point x="458" y="-155"/>
			<point x="398" y="-205"/>
			<point x="338" y="-205" type="qcurve"/>
			<point x="290" y="-205"/>
			<point x="253" y="-192" type="qcurve"/>
			<point x="267" y="-120" type="line"/>
			<point x="277" y="-123"/>
			<point x="309" y="-131"/>
			<point x="326" y="-131" type="qcurve"/>
			<point x="343" y="-131"/>
			<point x="362" y="-119"/>
			<point x="362" y="-107" type="qcurve"/>
			<point x="362" y="-91"/>
			<point x="334" y="-76"/>
			<point x="320" y="-71" type="qcurve"/>
			<point x="310" y="-68" type="line"/>
			<point x="314" y="-56"/>
			<point x="327" y="-25"/>
			<point x="334" y="-11" type="qcurve"/>
			<point x="203" y="5"/>
			<point x="57" y="189"/>
			<point x="57" y="347" type="qcurve"/>
			<point x="57" y="434"/>
			<point x="110" y="568"/>
			<point x="202" y="661"/>
			<point x="326" y="709"/>
			<point x="397" y="709" type="qcurve"/>
			<point x="440" y="709"/>
			<point x="510" y="696"/>
			<point x="562" y="680"/>
			<point x="596" y="662"/>
			<point x="603" y="658" type="qcurve"/>
			<point x="566" y="555" type="line"/>
			<point x="542" y="570"/>
			<point x="453" y="597"/>
			<point x="401" y="597" type="qcurve"/>
			<point x="356" y="597"/>
			<point x="278" y="566"/>
			<point x="221" y="504"/>
			<point x="189" y="410"/>
			<point x="189" y="348" type="qcurve"/>
			<point x="189" y="293"/>
			<point x="214" y="201"/>
			<point x="266" y="134"/>
			<point x="346" y="97"/>
			<point x="402" y="97" type="qcurve"/>
			<point x="469" y="97"/>
			<point x="553" y="124"/>
			<point x="576" y="136" type="qcurve"/>
			<point x="610" y="33" type="line"/>
			<point x="588" y="19"/>
			<point x="484" y="-12"/>
			<point x="412" y="-15" type="qcurve"/>
			<point x="408" y="-22"/>
			<point x="403" y="-34"/>
		</contour>
	</outline>
</glyph>
<glyph name="Eth" format="2">
	<unicode hex="00D0"/>
	<advance width="740"/>
	<outline>
		<contour>
			<point x="16" y="408" type="line"/>
			<point x="97" y="408" type="line"/>
			<point x="97" y="683" type="line"/>
			<point x="145" y="694"/>
			<point x="253" y="700"/>
			<point x="295" y="700" type="qcurve"/>
			<point x="382" y="700"/>
			<point x="526" y="659"/>
			<point x="629" y="572"/>
			<point x="685" y="439"/>
			<point x="685" y="347" type="qcurve"/>
			<point x="685" y="257"/>
			<point x="629" y="124"/>
			<point x="526" y="35"/>
			<point x="381" y="-8"/>
			<point x="293" y="-8" type="qcurve"/>
			<point x="251" y="-8"/>
			<point x="145" y="-1"/>
			<point x="97" y="10" type="qcurve"/>
			<point x="97" y="313" type="line"/>
			<point x="16" y="313" type="line"/>
		</contour>
		<contour>
			<point x="223" y="408" type="line"/>
			<point x="351" y="408" type="line"/>
			<point x="351" y="313" type="line"/>
			<point x="223" y="313" type="line"/>
			<point x="223" y="104" type="line"/>
			<point x="234" y="103"/>
			<point x="270" y="102"/>
			<point x="301" y="102" type="qcurve"/>
			<point x="428" y="102"/>
			<point x="553" y="231"/>
			<point x="553" y="347" type="qcurve"/>
			<point x="553" y="465"/>
			<point x="431" y="591"/>
			<point x="303" y="591" type="qcurve"/>
			<point x="247" y="591"/>
			<point x="223" y="588" type="qcurve"/>
		</contour>
	</outline>
</glyph>
<glyph name="multiply" format="2">
	<unicode hex="00D7"/>
	<advance width="568"/>
	<outline>
		<contour>
			<point x="425" y="507" type="line"/>
			<point x="496" y="435" type="line"/>
			<point x="355" y="294" type="line"/>
			<point x="496" y="154" type="line"/>
			<point x="425" y="82" type="line"/>
			<point x="284" y="223" type="line"/>
			<point x="143" y="82" type="line"/>
			<point x="72" y="154" type="line"/>
			<point x="213" y="294" type="line"/>
			<point x="72" y="435" type="line"/>
			<point x="143" y="507" type="line"/>
			<point x="284" y="366" type="line"/>
		</contour>
	</outline>
	<guideline y="285"/>
</glyph>
<glyph name="Oslash" format="2">
	<unicode hex="00D8"/>
	<advance width="782"/>
	<outline>
		<contour>
			<point x="727" y="347" type="qcurve"/>
			<point x="727" y="258"/>
			<point x="674" y="122"/>
			<point x="583" y="31"/>
			<point x="461" y="-15"/>
			<point x="392" y="-15" type="qcurve"/>
			<point x="341" y="-15"/>
			<point x="247" y="10"/>
			<point x="207" y="35" type="qcurve"/>
			<point x="149" y="-41" type="line"/>
			<point x="76" y="14" type="line"/>
			<point x="138" y="94" type="line"/>
			<point x="99" y="139"/>
			<point x="55" y="266"/>
			<point x="55" y="347" type="qcurve"/>
			<point x="55" y="436"/>
			<point x="109" y="571"/>
			<point x="202" y="663"/>
			<point x="324" y="709"/>
			<point x="392" y="709" type="qcurve"/>
			<point x="442" y="709"/>
			<point x="534" y="684"/>
			<point x="574" y="659" type="qcurve"/>
			<point x="632" y="734" type="line"/>
			<point x="706" y="679" type="line"/>
			<point x="644" y="599" type="line"/>
			<point x="682" y="554"/>
			<point x="727" y="428"/>
		</contour>
		<contour>
			<point x="186" y="347" type="qcurve"/>
			<point x="186" y="260"/>
			<point x="218" y="199" type="qcurve"/>
			<point x="501" y="565" type="line"/>
			<point x="454" y="598"/>
			<point x="391" y="598" type="qcurve"/>
			<point x="343" y="598"/>
			<point x="267" y="562"/>
			<point x="214" y="496"/>
			<point x="186" y="404"/>
		</contour>
		<contour>
			<point x="595" y="347" type="qcurve"/>
			<point x="595" y="390"/>
			<point x="578" y="464"/>
			<point x="563" y="494" type="qcurve"/>
			<point x="280" y="128" type="line"/>
			<point x="326" y="96"/>
			<point x="391" y="96" type="qcurve"/>
			<point x="438" y="96"/>
			<point x="514" y="132"/>
			<point x="567" y="197"/>
			<point x="595" y="290"/>
		</contour>
	</outline>
</glyph>
<glyph name="Thorn" format="2">
	<unicode hex="00DE"/>
	<advance width="628"/>
	<outline>
		<contour>
			<point x="286" y="589" type="curve" smooth="yes"/>
			<point x="263" y="589"/>
			<point x="234" y="588"/>
			<point x="210" y="586" type="curve"/>
			<point x="210" y="693" type="line"/>
			<point x="84" y="693" type="line"/>
			<point x="84" y="0" type="line"/>
			<point x="210" y="0" type="line"/>
			<point x="210" y="135" type="line"/>
			<point x="273" y="135" type="line" smooth="yes"/>
			<point x="475" y="135"/>
			<point x="592" y="200"/>
			<point x="592" y="363" type="curve" smooth="yes"/>
			<point x="592" y="520"/>
			<point x="478" y="589"/>
		</contour>
		<contour>
			<point x="279" y="481" type="curve" smooth="yes"/>
			<point x="387" y="481"/>
			<point x="460" y="456"/>
			<point x="460" y="364" type="curve" smooth="yes"/>
			<point x="460" y="268"/>
			<point x="392" y="241"/>
			<point x="271" y="241" type="curve" smooth="yes"/>
			<point x="210" y="241" type="line"/>
			<point x="210" y="479" type="line"/>
			<point x="220" y="480"/>
			<point x="249" y="481"/>
		</contour>
	</outline>
</glyph>
<glyph name="germandbls" format="2">
	<unicode hex="00DF"/>
	<advance width="634"/>
	<outline>
		<contour>
			<point x="515" y="613" type="qcurve"/>
			<point x="515" y="568"/>
			<point x="483" y="510"/>
			<point x="462" y="487" type="qcurve"/>
			<point x="439" y="461"/>
			<point x="405" y="422"/>
			<point x="405" y="396" type="qcurve"/>
			<point x="405" y="381"/>
			<point x="420" y="359"/>
			<point x="445" y="341"/>
			<point x="478" y="324"/>
			<point x="495" y="315" type="qcurve"/>
			<point x="517" y="303"/>
			<point x="557" y="275"/>
			<point x="587" y="238"/>
			<point x="604" y="190"/>
			<point x="604" y="158" type="qcurve"/>
			<point x="604" y="77"/>
			<point x="510" y="-12"/>
			<point x="406" y="-12" type="qcurve"/>
			<point x="372" y="-12"/>
			<point x="297" y="2"/>
			<point x="262" y="16" type="qcurve"/>
			<point x="283" y="116" type="line"/>
			<point x="291" y="113"/>
			<point x="317" y="103"/>
			<point x="349" y="94"/>
			<point x="384" y="88"/>
			<point x="401" y="88" type="qcurve"/>
			<point x="443" y="88"/>
			<point x="483" y="124"/>
			<point x="483" y="156" type="qcurve"/>
			<point x="483" y="188"/>
			<point x="434" y="233"/>
			<point x="384" y="256" type="qcurve"/>
			<point x="353" y="270"/>
			<point x="314" y="299"/>
			<point x="293" y="329"/>
			<point x="285" y="362"/>
			<point x="285" y="380" type="qcurve"/>
			<point x="285" y="420"/>
			<point x="326" y="478"/>
			<point x="351" y="505" type="qcurve"/>
			<point x="369" y="525"/>
			<point x="399" y="568"/>
			<point x="399" y="594" type="qcurve"/>
			<point x="399" y="633"/>
			<point x="352" y="673"/>
			<point x="308" y="673" type="qcurve"/>
			<point x="250" y="673"/>
			<point x="196" y="605"/>
			<point x="196" y="544" type="qcurve"/>
			<point x="196" y="0" type="line"/>
			<point x="77" y="0" type="line"/>
			<point x="77" y="543" type="line"/>
			<point x="77" y="595"/>
			<point x="105" y="680"/>
			<point x="161" y="742"/>
			<point x="246" y="776"/>
			<point x="302" y="776" type="qcurve"/>
			<point x="358" y="776"/>
			<point x="439" y="750"/>
			<point x="491" y="706"/>
			<point x="515" y="647"/>
		</contour>
	</outline>
</glyph>
<glyph name="ae" format="2">
	<unicode hex="00E6"/>
	<advance width="869"/>
	<outline>
		<contour>
			<point x="253" y="536" type="qcurve"/>
			<point x="319" y="536"/>
			<point x="397" y="496"/>
			<point x="421" y="456" type="qcurve"/>
			<point x="455" y="498"/>
			<point x="543" y="536"/>
			<point x="592" y="536" type="qcurve"/>
			<point x="698" y="536"/>
			<point x="818" y="402"/>
			<point x="818" y="269" type="qcurve"/>
			<point x="818" y="257"/>
			<point x="816" y="235"/>
			<point x="816" y="224" type="qcurve"/>
			<point x="471" y="224" type="line"/>
			<point x="476" y="161"/>
			<point x="555" y="92"/>
			<point x="629" y="92" type="qcurve"/>
			<point x="674" y="92"/>
			<point x="747" y="108"/>
			<point x="768" y="117" type="qcurve"/>
			<point x="784" y="18" type="line"/>
			<point x="774" y="13"/>
			<point x="739" y="2"/>
			<point x="694" y="-7"/>
			<point x="641" y="-13"/>
			<point x="614" y="-13" type="qcurve"/>
			<point x="556" y="-13"/>
			<point x="470" y="15"/>
			<point x="438" y="40" type="qcurve"/>
			<point x="399" y="15"/>
			<point x="306" y="-12"/>
			<point x="253" y="-12" type="qcurve"/>
			<point x="205" y="-12"/>
			<point x="126" y="7"/>
			<point x="70" y="48"/>
			<point x="40" y="112"/>
			<point x="40" y="158" type="qcurve"/>
			<point x="40" y="203"/>
			<point x="76" y="265"/>
			<point x="138" y="304"/>
			<point x="217" y="321"/>
			<point x="261" y="321" type="qcurve"/>
			<point x="289" y="321"/>
			<point x="341" y="313"/>
			<point x="352" y="310" type="qcurve"/>
			<point x="352" y="332" type="line"/>
			<point x="352" y="353"/>
			<point x="341" y="391"/>
			<point x="316" y="418"/>
			<point x="273" y="434"/>
			<point x="242" y="434" type="qcurve"/>
			<point x="200" y="434"/>
			<point x="129" y="422"/>
			<point x="106" y="414" type="qcurve"/>
			<point x="91" y="512" type="line"/>
			<point x="114" y="520"/>
			<point x="203" y="536"/>
		</contour>
		<contour>
			<point x="267" y="85" type="qcurve"/>
			<point x="309" y="85"/>
			<point x="364" y="100"/>
			<point x="381" y="110" type="qcurve"/>
			<point x="367" y="142"/>
			<point x="354" y="197"/>
			<point x="352" y="226" type="qcurve"/>
			<point x="339" y="229"/>
			<point x="300" y="234"/>
			<point x="279" y="234" type="qcurve"/>
			<point x="258" y="234"/>
			<point x="216" y="228"/>
			<point x="182" y="212"/>
			<point x="161" y="183"/>
			<point x="161" y="161" type="qcurve"/>
			<point x="161" y="118"/>
			<point x="217" y="85"/>
		</contour>
		<contour>
			<point x="697" y="313" type="line"/>
			<point x="697" y="338"/>
			<point x="683" y="383"/>
			<point x="656" y="416"/>
			<point x="617" y="435"/>
			<point x="590" y="435" type="qcurve"/>
			<point x="562" y="435"/>
			<point x="520" y="414"/>
			<point x="491" y="380"/>
			<point x="475" y="336"/>
			<point x="472" y="313" type="qcurve"/>
		</contour>
	</outline>
</glyph>
<glyph name="ccedilla" format="2">
	<unicode hex="00E7"/>
	<advance width="472"/>
	<outline>
		<contour>
			<point x="317" y="-39" type="qcurve"/>
			<point x="349" y="-54"/>
			<point x="374" y="-92"/>
			<point x="374" y="-120" type="qcurve"/>
			<point x="374" y="-155"/>
			<point x="314" y="-205"/>
			<point x="254" y="-205" type="qcurve"/>
			<point x="206" y="-205"/>
			<point x="169" y="-192" type="qcurve"/>
			<point x="183" y="-120" type="line"/>
			<point x="193" y="-123"/>
			<point x="225" y="-131"/>
			<point x="242" y="-131" type="qcurve"/>
			<point x="259" y="-131"/>
			<point x="278" y="-119"/>
			<point x="278" y="-107" type="qcurve"/>
			<point x="278" y="-91"/>
			<point x="250" y="-76"/>
			<point x="236" y="-71" type="qcurve"/>
			<point x="226" y="-68" type="line"/>
			<point x="230" y="-55"/>
			<point x="244" y="-22"/>
			<point x="251" y="-8" type="qcurve"/>
			<point x="199" y="1"/>
			<point x="123" y="47"/>
			<point x="73" y="118"/>
			<point x="48" y="208"/>
			<point x="48" y="261" type="qcurve"/>
			<point x="48" y="319"/>
			<point x="84" y="420"/>
			<point x="151" y="494"/>
			<point x="247" y="536"/>
			<point x="307" y="536" type="qcurve"/>
			<point x="381" y="536"/>
			<point x="447" y="509" type="qcurve"/>
			<point x="421" y="410" type="line"/>
			<point x="400" y="419"/>
			<point x="347" y="431"/>
			<point x="317" y="431" type="qcurve"/>
			<point x="246" y="431"/>
			<point x="172" y="342"/>
			<point x="172" y="261" type="qcurve"/>
			<point x="172" y="183"/>
			<point x="242" y="92"/>
			<point x="325" y="92" type="qcurve"/>
			<point x="356" y="92"/>
			<point x="416" y="104"/>
			<point x="438" y="113" type="qcurve"/>
			<point x="455" y="13" type="line"/>
			<point x="437" y="4"/>
			<point x="367" y="-10"/>
			<point x="329" y="-12" type="qcurve"/>
			<point x="325" y="-20"/>
			<point x="319" y="-34"/>
		</contour>
	</outline>
</glyph>
<glyph name="eth" format="2">
	<unicode hex="00F0"/>
	<advance width="591"/>
	<outline>
		<contour>
			<point x="469" y="611" type="line"/>
			<point x="506" y="545"/>
			<point x="544" y="399"/>
			<point x="544" y="318" type="qcurve"/>
			<point x="544" y="248"/>
			<point x="517" y="127"/>
			<point x="457" y="37"/>
			<point x="360" y="-14"/>
			<point x="290" y="-14" type="qcurve"/>
			<point x="229" y="-14"/>
			<point x="138" y="28"/>
			<point x="77" y="98"/>
			<point x="47" y="190"/>
			<point x="47" y="241" type="qcurve"/>
			<point x="47" y="296"/>
			<point x="77" y="386"/>
			<point x="137" y="450"/>
			<point x="225" y="485"/>
			<point x="282" y="485" type="qcurve"/>
			<point x="315" y="485"/>
			<point x="386" y="466"/>
			<point x="413" y="450" type="qcurve"/>
			<point x="401" y="517"/>
			<point x="364" y="575" type="qcurve"/>
			<point x="248" y="536" type="line"/>
			<point x="222" y="610" type="line"/>
			<point x="313" y="641" type="line"/>
			<point x="281" y="676"/>
			<point x="234" y="709" type="qcurve"/>
			<point x="305" y="778" type="line"/>
			<point x="333" y="761"/>
			<point x="393" y="711"/>
			<point x="421" y="677" type="qcurve"/>
			<point x="541" y="718" type="line"/>
			<point x="567" y="645" type="line"/>
		</contour>
		<contour>
			<point x="421" y="319" type="qcurve"/>
			<point x="421" y="322"/>
			<point x="421" y="337"/>
			<point x="420" y="343" type="qcurve"/>
			<point x="391" y="368"/>
			<point x="328" y="385"/>
			<point x="300" y="385" type="qcurve"/>
			<point x="264" y="385"/>
			<point x="214" y="363"/>
			<point x="183" y="324"/>
			<point x="169" y="272"/>
			<point x="169" y="242" type="qcurve"/>
			<point x="169" y="210"/>
			<point x="184" y="156"/>
			<point x="214" y="115"/>
			<point x="260" y="92"/>
			<point x="290" y="92" type="qcurve"/>
			<point x="331" y="92"/>
			<point x="382" y="127"/>
			<point x="411" y="189"/>
			<point x="421" y="272"/>
		</contour>
	</outline>
</glyph>
<glyph name="divide" format="2">
	<unicode hex="00F7"/>
	<advance width="568"/>
	<outline>
		<contour>
			<point x="357" y="492" type="qcurve"/>
			<point x="357" y="457"/>
			<point x="313" y="419"/>
			<point x="284" y="419" type="qcurve"/>
			<point x="255" y="419"/>
			<point x="212" y="457"/>
			<point x="212" y="492" type="qcurve"/>
			<point x="212" y="526"/>
			<point x="255" y="564"/>
			<point x="284" y="564" type="qcurve"/>
			<point x="313" y="564"/>
			<point x="357" y="526"/>
		</contour>
		<contour>
			<point x="357" y="96" type="qcurve"/>
			<point x="357" y="62"/>
			<point x="313" y="24"/>
			<point x="284" y="24" type="qcurve"/>
			<point x="255" y="24"/>
			<point x="212" y="62"/>
			<point x="212" y="96" type="qcurve"/>
			<point x="212" y="131"/>
			<point x="255" y="169"/>
			<point x="284" y="169" type="qcurve"/>
			<point x="313" y="169"/>
			<point x="357" y="131"/>
		</contour>
		<contour>
			<point x="52" y="345" type="line"/>
			<point x="516" y="345" type="line"/>
			<point x="516" y="243" type="line"/>
			<point x="52" y="243" type="line"/>
		</contour>
	</outline>
</glyph>
<glyph name="oslash" format="2">
	<unicode hex="00F8"/>
	<advance width="598"/>
	<outline>
		<contour>
			<point x="550" y="262" type="qcurve"/>
			<point x="550" y="200"/>
			<point x="514" y="98"/>
			<point x="448" y="26"/>
			<point x="355" y="-14"/>
			<point x="299" y="-14" type="qcurve"/>
			<point x="261" y="-14"/>
			<point x="193" y="6"/>
			<point x="164" y="23" type="qcurve"/>
			<point x="117" y="-38" type="line"/>
			<point x="55" y="9" type="line"/>
			<point x="106" y="75" type="line"/>
			<point x="78" y="111"/>
			<point x="48" y="205"/>
			<point x="48" y="262" type="qcurve"/>
			<point x="48" y="324"/>
			<point x="85" y="425"/>
			<point x="152" y="497"/>
			<point x="244" y="536"/>
			<point x="299" y="536" type="qcurve"/>
			<point x="375" y="536"/>
			<point x="434" y="499" type="qcurve"/>
			<point x="481" y="560" type="line"/>
			<point x="542" y="514" type="line"/>
			<point x="491" y="448" type="line"/>
			<point x="519" y="413"/>
			<point x="550" y="319"/>
		</contour>
		<contour>
			<point x="430" y="262" type="qcurve"/>
			<point x="430" y="311"/>
			<point x="416" y="350" type="qcurve"/>
			<point x="228" y="107" type="line"/>
			<point x="258" y="86"/>
			<point x="299" y="86" type="qcurve"/>
			<point x="362" y="86"/>
			<point x="430" y="181"/>
		</contour>
		<contour>
			<point x="168" y="262" type="qcurve"/>
			<point x="168" y="212"/>
			<point x="182" y="173" type="qcurve"/>
			<point x="369" y="415" type="line"/>
			<point x="337" y="436"/>
			<point x="299" y="436" type="qcurve"/>
			<point x="237" y="436"/>
			<point x="168" y="343"/>
		</contour>
	</outline>
</glyph>
<glyph name="thorn" format="2">
	<unicode hex="00FE"/>
	<advance width="596"/>
	<outline>
		<contour>
			<point x="550" y="261" type="qcurve"/>
			<point x="550" y="201"/>
			<point x="519" y="101"/>
			<point x="460" y="29"/>
			<point x="374" y="-11"/>
			<point x="318" y="-11" type="qcurve"/>
			<point x="280" y="-11"/>
			<point x="219" y="7"/>
			<point x="198" y="18" type="qcurve"/>
			<point x="198" y="-185" type="line"/>
			<point x="77" y="-185" type="line"/>
			<point x="77" y="756" type="line"/>
			<point x="198" y="776" type="line"/>
			<point x="198" y="519" type="line"/>
			<point x="219" y="526"/>
			<point x="269" y="534"/>
			<point x="290" y="534" type="qcurve"/>
			<point x="349" y="534"/>
			<point x="445" y="496"/>
			<point x="513" y="425"/>
			<point x="550" y="324"/>
		</contour>
		<contour>
			<point x="426" y="259" type="qcurve"/>
			<point x="426" y="291"/>
			<point x="408" y="353"/>
			<point x="372" y="401"/>
			<point x="316" y="430"/>
			<point x="279" y="430" type="qcurve"/>
			<point x="252" y="430"/>
			<point x="209" y="422"/>
			<point x="198" y="417" type="qcurve"/>
			<point x="198" y="123" type="line"/>
			<point x="214" y="112"/>
			<point x="267" y="93"/>
			<point x="298" y="93" type="qcurve"/>
			<point x="365" y="93"/>
			<point x="426" y="183"/>
		</contour>
	</outline>
</glyph>
<glyph name="Aogonek" format="2">
	<unicode hex="0104"/>
	<advance width="684"/>
	<outline>
		<contour>
			<point x="339" y="559" type="qcurve"/>
			<point x="316" y="506"/>
			<point x="257" y="354"/>
			<point x="225" y="265" type="qcurve"/>
			<point x="453" y="265" type="line"/>
			<point x="421" y="354"/>
			<point x="362" y="506"/>
		</contour>
		<contour>
			<point x="543" y="0" type="line"/>
			<point x="529" y="41"/>
			<point x="499" y="121"/>
			<point x="485" y="163" type="qcurve"/>
			<point x="193" y="163" type="line"/>
			<point x="179" y="121"/>
			<point x="150" y="40"/>
			<point x="136" y="0" type="qcurve"/>
			<point x="5" y="0" type="line"/>
			<point x="44" y="111"/>
			<point x="114" y="299"/>
			<point x="181" y="467"/>
			<point x="247" y="619"/>
			<point x="282" y="693" type="qcurve"/>
			<point x="401" y="693" type="line"/>
			<point x="436" y="619"/>
			<point x="502" y="467"/>
			<point x="569" y="300"/>
			<point x="639" y="112"/>
			<point x="678" y="1" type="qcurve"/>
			<point x="668" y="-6"/>
			<point x="641" y="-28"/>
			<point x="617" y="-53"/>
			<point x="600" y="-79"/>
			<point x="600" y="-91" type="qcurve"/>
			<point x="600" y="-118"/>
			<point x="635" y="-118" type="qcurve"/>
			<point x="643" y="-118"/>
			<point x="667" y="-115"/>
			<point x="681" y="-110" type="qcurve"/>
			<point x="690" y="-191" type="line"/>
			<point x="675" y="-197"/>
			<point x="629" y="-204"/>
			<point x="608" y="-204" type="qcurve"/>
			<point x="546" y="-204"/>
			<point x="490" y="-159"/>
			<point x="490" y="-121" type="qcurve"/>
			<point x="490" y="-102"/>
			<point x="508" y="-64"/>
			<point x="535" y="-33"/>
			<point x="564" y="-8"/>
			<point x="575" y="0" type="qcurve"/>
		</contour>
	</outline>
</glyph>
<glyph name="aogonek" format="2">
	<unicode hex="0105"/>
	<advance width="534"/>
	<outline>
		<contour>
			<point x="251" y="536" type="qcurve"/>
			<point x="311" y="536"/>
			<point x="393" y="506"/>
			<point x="442" y="452"/>
			<point x="463" y="375"/>
			<point x="463" y="329" type="qcurve"/>
			<point x="463" y="12" type="line"/>
			<point x="452" y="3"/>
			<point x="419" y="-23"/>
			<point x="403" y="-40" type="qcurve"/>
			<point x="389" y="-54"/>
			<point x="373" y="-78"/>
			<point x="373" y="-91" type="qcurve"/>
			<point x="373" y="-118"/>
			<point x="408" y="-118" type="qcurve"/>
			<point x="416" y="-118"/>
			<point x="440" y="-115"/>
			<point x="454" y="-110" type="qcurve"/>
			<point x="464" y="-191" type="line"/>
			<point x="448" y="-197"/>
			<point x="403" y="-204"/>
			<point x="381" y="-204" type="qcurve"/>
			<point x="319" y="-204"/>
			<point x="264" y="-159"/>
			<point x="264" y="-121" type="qcurve"/>
			<point x="264" y="-98"/>
			<point x="286" y="-57"/>
			<point x="303" y="-39" type="qcurve"/>
			<point x="317" y="-22"/>
			<point x="337" y="-7" type="qcurve"/>
			<point x="317" y="-9"/>
			<point x="274" y="-11"/>
			<point x="251" y="-11" type="qcurve"/>
			<point x="204" y="-11"/>
			<point x="126" y="7"/>
			<point x="71" y="47"/>
			<point x="40" y="111"/>
			<point x="40" y="158" type="qcurve"/>
			<point x="40" y="203"/>
			<point x="75" y="265"/>
			<point x="135" y="304"/>
			<point x="214" y="321"/>
			<point x="257" y="321" type="qcurve"/>
			<point x="277" y="321"/>
			<point x="321" y="316"/>
			<point x="346" y="310" type="qcurve"/>
			<point x="346" y="330" type="line"/>
			<point x="346" y="351"/>
			<point x="336" y="389"/>
			<point x="311" y="418"/>
			<point x="270" y="434"/>
			<point x="239" y="434" type="qcurve"/>
			<point x="197" y="434"/>
			<point x="127" y="422"/>
			<point x="105" y="414" type="qcurve"/>
			<point x="90" y="512" type="line"/>
			<point x="113" y="520"/>
			<point x="201" y="536"/>
		</contour>
		<contour>
			<point x="261" y="85" type="qcurve"/>
			<point x="317" y="85"/>
			<point x="346" y="91" type="qcurve"/>
			<point x="346" y="225" type="line"/>
			<point x="336" y="228"/>
			<point x="298" y="234"/>
			<point x="275" y="234" type="qcurve"/>
			<point x="255" y="234"/>
			<point x="214" y="228"/>
			<point x="181" y="212"/>
			<point x="161" y="183"/>
			<point x="161" y="161" type="qcurve"/>
			<point x="161" y="118"/>
			<point x="215" y="85"/>
		</contour>
	</outline>
</glyph>
<glyph name="dcroat" format="2">
	<unicode hex="0111"/>
	<advance width="596"/>
	<outline>
		<contour>
			<point x="519" y="686" type="line"/>
			<point x="587" y="686" type="line"/>
			<point x="587" y="605" type="line"/>
			<point x="519" y="605" type="line"/>
			<point x="519" y="16" type="line"/>
			<point x="483" y="5"/>
			<point x="374" y="-13"/>
			<point x="314" y="-13" type="qcurve"/>
			<point x="252" y="-13"/>
			<point x="154" y="25"/>
			<point x="85" y="95"/>
			<point x="48" y="194"/>
			<point x="48" y="256" type="qcurve"/>
			<point x="48" y="316"/>
			<point x="79" y="416"/>
			<point x="139" y="487"/>
			<point x="225" y="526"/>
			<point x="281" y="526" type="qcurve"/>
			<point x="319" y="526"/>
			<point x="377" y="508"/>
			<point x="398" y="497" type="qcurve"/>
			<point x="398" y="605" type="line"/>
			<point x="238" y="605" type="line"/>
			<point x="238" y="686" type="line"/>
			<point x="398" y="686" type="line"/>
			<point x="398" y="756" type="line"/>
			<point x="519" y="776" type="line"/>
		</contour>
		<contour>
			<point x="172" y="259" type="qcurve"/>
			<point x="172" y="182"/>
			<point x="248" y="92"/>
			<point x="315" y="92" type="qcurve"/>
			<point x="344" y="92"/>
			<point x="385" y="97"/>
			<point x="398" y="100" type="qcurve"/>
			<point x="398" y="392" type="line"/>
			<point x="382" y="403"/>
			<point x="329" y="422"/>
			<point x="299" y="422" type="qcurve"/>
			<point x="233" y="422"/>
			<point x="172" y="333"/>
		</contour>
	</outline>
</glyph>
<glyph name="Eogonek" format="2">
	<unicode hex="0118"/>
	<advance width="586"/>
	<outline>
		<contour>
			<point x="482" y="-204" type="qcurve"/>
			<point x="420" y="-204"/>
			<point x="364" y="-159"/>
			<point x="364" y="-121" type="qcurve"/>
			<point x="364" y="-98"/>
			<point x="385" y="-57"/>
			<point x="402" y="-39" type="qcurve"/>
			<point x="412" y="-27"/>
			<point x="431" y="-8"/>
			<point x="442" y="0" type="qcurve"/>
			<point x="83" y="0" type="line"/>
			<point x="83" y="693" type="line"/>
			<point x="528" y="693" type="line"/>
			<point x="528" y="586" type="line"/>
			<point x="209" y="586" type="line"/>
			<point x="209" y="415" type="line"/>
			<point x="493" y="415" type="line"/>
			<point x="493" y="310" type="line"/>
			<point x="209" y="310" type="line"/>
			<point x="209" y="107" type="line"/>
			<point x="552" y="107" type="line"/>
			<point x="552" y="1" type="line"/>
			<point x="543" y="-6"/>
			<point x="516" y="-26"/>
			<point x="503" y="-40" type="qcurve"/>
			<point x="489" y="-54"/>
			<point x="474" y="-78"/>
			<point x="474" y="-91" type="qcurve"/>
			<point x="474" y="-118"/>
			<point x="509" y="-118" type="qcurve"/>
			<point x="517" y="-118"/>
			<point x="541" y="-115"/>
			<point x="555" y="-110" type="qcurve"/>
			<point x="564" y="-191" type="line"/>
			<point x="549" y="-197"/>
			<point x="503" y="-204"/>
		</contour>
	</outline>
</glyph>
<glyph name="eogonek" format="2">
	<unicode hex="0119"/>
	<advance width="571"/>
	<outline>
		<contour>
			<point x="48" y="259" type="qcurve"/>
			<point x="48" y="328"/>
			<point x="89" y="432"/>
			<point x="157" y="501"/>
			<point x="245" y="536"/>
			<point x="291" y="536" type="qcurve"/>
			<point x="399" y="536"/>
			<point x="520" y="402"/>
			<point x="520" y="269" type="qcurve"/>
			<point x="520" y="259"/>
			<point x="519" y="234"/>
			<point x="518" y="224" type="qcurve"/>
			<point x="173" y="224" type="line"/>
			<point x="178" y="161"/>
			<point x="257" y="92"/>
			<point x="332" y="92" type="qcurve"/>
			<point x="376" y="92"/>
			<point x="449" y="108"/>
			<point x="470" y="117" type="qcurve"/>
			<point x="486" y="18" type="line"/>
			<point x="471" y="7"/>
			<point x="437" y="-20"/>
			<point x="407" y="-50"/>
			<point x="387" y="-79"/>
			<point x="387" y="-91" type="qcurve"/>
			<point x="387" y="-118"/>
			<point x="422" y="-118" type="qcurve"/>
			<point x="442" y="-118"/>
			<point x="468" y="-110" type="qcurve"/>
			<point x="477" y="-191" type="line"/>
			<point x="461" y="-198"/>
			<point x="414" y="-204"/>
			<point x="395" y="-204" type="qcurve"/>
			<point x="336" y="-204"/>
			<point x="277" y="-161"/>
			<point x="277" y="-121" type="qcurve"/>
			<point x="277" y="-92"/>
			<point x="314" y="-38"/>
			<point x="343" y="-12" type="qcurve"/>
			<point x="337" y="-13"/>
			<point x="323" y="-13"/>
			<point x="317" y="-13" type="qcurve"/>
			<point x="248" y="-13"/>
			<point x="146" y="28"/>
			<point x="80" y="101"/>
			<point x="48" y="200"/>
		</contour>
		<contour>
			<point x="399" y="313" type="line"/>
			<point x="399" y="338"/>
			<point x="385" y="383"/>
			<point x="358" y="416"/>
			<point x="319" y="435"/>
			<point x="292" y="435" type="qcurve"/>
			<point x="264" y="435"/>
			<point x="222" y="414"/>
			<point x="193" y="380"/>
			<point x="177" y="336"/>
			<point x="174" y="313" type="qcurve"/>
		</contour>
	</outline>
</glyph>
<glyph name="Hbar" format="2">
	<unicode hex="0126"/>
	<advance width="747"/>
	<outline>
		<contour>
			<point x="16" y="512" type="line"/>
			<point x="97" y="512" type="line"/>
			<point x="97" y="0" type="line"/>
			<point x="223" y="0" type="line"/>
			<point x="223" y="307" type="line"/>
			<point x="524" y="307" type="line"/>
			<point x="524" y="0" type="line"/>
			<point x="650" y="0" type="line"/>
			<point x="650" y="512" type="line"/>
			<point x="731" y="512" type="line"/>
			<point x="731" y="603" type="line"/>
			<point x="650" y="603" type="line"/>
			<point x="650" y="693" type="line"/>
			<point x="524" y="693" type="line"/>
			<point x="524" y="603" type="line"/>
			<point x="223" y="603" type="line"/>
			<point x="223" y="693" type="line"/>
			<point x="97" y="693" type="line"/>
			<point x="97" y="603" type="line"/>
			<point x="16" y="603" type="line"/>
		</contour>
		<contour>
			<point x="524" y="416" type="line"/>
			<point x="223" y="416" type="line"/>
			<point x="223" y="512" type="line"/>
			<point x="524" y="512" type="line"/>
		</contour>
	</outline>
</glyph>
<glyph name="hbar" format="2">
	<unicode hex="0127"/>
	<advance width="582"/>
	<outline>
		<contour>
			<point x="198" y="605" type="line"/>
			<point x="198" y="508" type="line"/>
			<point x="218" y="515"/>
			<point x="271" y="525"/>
			<point x="297" y="525" type="qcurve"/>
			<point x="360" y="525"/>
			<point x="443" y="490"/>
			<point x="493" y="427"/>
			<point x="514" y="339"/>
			<point x="514" y="285" type="qcurve"/>
			<point x="514" y="0" type="line"/>
			<point x="393" y="0" type="line"/>
			<point x="393" y="266" type="line"/>
			<point x="393" y="308"/>
			<point x="382" y="367"/>
			<point x="357" y="404"/>
			<point x="315" y="421"/>
			<point x="284" y="421" type="qcurve"/>
			<point x="260" y="421"/>
			<point x="210" y="411"/>
			<point x="198" y="407" type="qcurve"/>
			<point x="198" y="0" type="line"/>
			<point x="77" y="0" type="line"/>
			<point x="77" y="605" type="line"/>
			<point x="9" y="605" type="line"/>
			<point x="9" y="686" type="line"/>
			<point x="77" y="686" type="line"/>
			<point x="77" y="756" type="line"/>
			<point x="198" y="776" type="line"/>
			<point x="198" y="686" type="line"/>
			<point x="358" y="686" type="line"/>
			<point x="358" y="605" type="line"/>
		</contour>
	</outline>
</glyph>
<glyph name="Iogonek" format="2">
	<unicode hex="012E"/>
	<advance width="292"/>
	<outline>
		<contour>
			<point x="86" y="693" type="line"/>
			<point x="212" y="693" type="line"/>
			<point x="212" y="0" type="line"/>
			<point x="201" y="-9"/>
			<point x="175" y="-31"/>
			<point x="153" y="-56"/>
			<point x="137" y="-81"/>
			<point x="137" y="-91" type="qcurve"/>
			<point x="137" y="-118"/>
			<point x="172" y="-118" type="qcurve"/>
			<point x="180" y="-118"/>
			<point x="204" y="-115"/>
			<point x="218" y="-110" type="qcurve"/>
			<point x="227" y="-191" type="line"/>
			<point x="212" y="-197"/>
			<point x="166" y="-204"/>
			<point x="145" y="-204" type="qcurve"/>
			<point x="85" y="-204"/>
			<point x="27" y="-161"/>
			<point x="27" y="-125" type="qcurve"/>
			<point x="27" y="-104"/>
			<point x="44" y="-68"/>
			<point x="72" y="-37"/>
			<point x="107" y="-11"/>
			<point x="125" y="0" type="qcurve"/>
			<point x="86" y="0" type="line"/>
		</contour>
	</outline>
</glyph>
<glyph name="iogonek" format="2">
	<unicode hex="012F"/>
	<advance width="276"/>
	<outline>
		<contour>
			<point x="132" y="-204" type="curve" smooth="yes"/>
			<point x="161" y="-204"/>
			<point x="194" y="-199"/>
			<point x="215" y="-191" type="curve"/>
			<point x="205" y="-110" type="line"/>
			<point x="187" y="-116"/>
			<point x="170" y="-118"/>
			<point x="159" y="-118" type="curve" smooth="yes"/>
			<point x="134" y="-118"/>
			<point x="124" y="-108"/>
			<point x="124" y="-91" type="curve" smooth="yes"/>
			<point x="124" y="-64"/>
			<point x="168" y="-25"/>
			<point x="199" y="0" type="curve"/>
			<point x="199" y="523" type="line"/>
			<point x="78" y="523" type="line"/>
			<point x="78" y="0" type="line"/>
			<point x="112" y="0" type="line"/>
			<point x="61" y="-30"/>
			<point x="15" y="-71"/>
			<point x="15" y="-125" type="curve" smooth="yes"/>
			<point x="15" y="-173"/>
			<point x="52" y="-204"/>
		</contour>
		<contour>
			<point x="212" y="676" type="curve" smooth="yes"/>
			<point x="212" y="722"/>
			<point x="178" y="751"/>
			<point x="138" y="751" type="curve" smooth="yes"/>
			<point x="97" y="751"/>
			<point x="63" y="722"/>
			<point x="63" y="676" type="curve" smooth="yes"/>
			<point x="63" y="631"/>
			<point x="97" y="602"/>
			<point x="138" y="602" type="curve" smooth="yes"/>
			<point x="178" y="602"/>
			<point x="212" y="631"/>
		</contour>
	</outline>
</glyph>
<glyph name="dotlessi" format="2">
	<unicode hex="0131"/>
	<advance width="276"/>
	<outline>
		<contour>
			<point x="199" y="0" type="line"/>
			<point x="78" y="0" type="line"/>
			<point x="78" y="523" type="line"/>
			<point x="199" y="523" type="line"/>
		</contour>
	</outline>
</glyph>
<glyph name="kgreenlandic" format="2">
	<unicode hex="0138"/>
	<advance width="560"/>
	<outline>
		<contour>
			<point x="198" y="313" type="line"/>
			<point x="221" y="336"/>
			<point x="275" y="393"/>
			<point x="328" y="451"/>
			<point x="376" y="504"/>
			<point x="392" y="523" type="qcurve"/>
			<point x="534" y="523" type="line"/>
			<point x="512" y="497"/>
			<point x="455" y="435"/>
			<point x="394" y="370"/>
			<point x="335" y="309"/>
			<point x="311" y="285" type="qcurve"/>
			<point x="342" y="259"/>
			<point x="409" y="190"/>
			<point x="474" y="113"/>
			<point x="530" y="34"/>
			<point x="549" y="0" type="qcurve"/>
			<point x="409" y="0" type="line"/>
			<point x="390" y="30"/>
			<point x="339" y="96"/>
			<point x="283" y="159"/>
			<point x="225" y="215"/>
			<point x="198" y="235" type="qcurve"/>
			<point x="198" y="0" type="line"/>
			<point x="77" y="0" type="line"/>
			<point x="77" y="523" type="line"/>
			<point x="198" y="523" type="line"/>
		</contour>
	</outline>
</glyph>
<glyph name="Lslash" format="2">
	<unicode hex="0141"/>
	<advance width="554"/>
	<outline>
		<contour>
			<point x="36" y="236" type="line"/>
			<point x="103" y="270" type="line"/>
			<point x="103" y="0" type="line"/>
			<point x="541" y="0" type="line"/>
			<point x="541" y="109" type="line"/>
			<point x="229" y="109" type="line"/>
			<point x="229" y="334" type="line"/>
			<point x="389" y="416" type="line"/>
			<point x="349" y="499" type="line"/>
			<point x="229" y="438" type="line"/>
			<point x="229" y="693" type="line"/>
			<point x="103" y="693" type="line"/>
			<point x="103" y="374" type="line"/>
			<point x="-5" y="319" type="line"/>
		</contour>
	</outline>
</glyph>
<glyph name="lslash" format="2">
	<unicode hex="0142"/>
	<advance width="324"/>
	<outline>
		<contour>
			<point x="0" y="383" type="line"/>
			<point x="98" y="432" type="line"/>
			<point x="98" y="756" type="line"/>
			<point x="219" y="776" type="line"/>
			<point x="219" y="493" type="line"/>
			<point x="291" y="530" type="line"/>
			<point x="329" y="453" type="line"/>
			<point x="219" y="397" type="line"/>
			<point x="219" y="177" type="line"/>
			<point x="219" y="155"/>
			<point x="226" y="125"/>
			<point x="244" y="104"/>
			<point x="275" y="93"/>
			<point x="299" y="90" type="qcurve"/>
			<point x="282" y="-10" type="line"/>
			<point x="228" y="-9"/>
			<point x="157" y="13"/>
			<point x="115" y="54"/>
			<point x="98" y="115"/>
			<point x="98" y="154" type="qcurve"/>
			<point x="98" y="336" type="line"/>
			<point x="39" y="306" type="line"/>
		</contour>
	</outline>
</glyph>
<glyph name="Eng" format="2">
	<unicode hex="014A"/>
	<advance width="740"/>
	<outline>
		<contour>
			<point x="532" y="2" type="line"/>
			<point x="532" y="-55"/>
			<point x="518" y="-86"/>
			<point x="473" y="-86" type="curve" smooth="yes"/>
			<point x="455" y="-86"/>
			<point x="440" y="-85"/>
			<point x="425" y="-80" type="curve"/>
			<point x="410" y="-177" type="line"/>
			<point x="434" y="-184"/>
			<point x="466" y="-187"/>
			<point x="485" y="-187" type="curve" smooth="yes"/>
			<point x="614" y="-187"/>
			<point x="657" y="-122"/>
			<point x="657" y="8" type="curve" smooth="yes"/>
			<point x="657" y="693" type="line"/>
			<point x="532" y="693" type="line"/>
			<point x="532" y="233" type="line"/>
			<point x="440" y="376"/>
			<point x="292" y="582"/>
			<point x="185" y="693" type="curve"/>
			<point x="83" y="693" type="line"/>
			<point x="83" y="0" type="line"/>
			<point x="207" y="0" type="line"/>
			<point x="207" y="496" type="line"/>
			<point x="311" y="373"/>
			<point x="440" y="181"/>
			<point x="532" y="33" type="curve"/>
		</contour>
	</outline>
</glyph>
<glyph name="OE" format="2">
	<unicode hex="0152"/>
	<advance width="994"/>
	<outline>
		<contour>
			<point x="960" y="0" type="line"/>
			<point x="960" y="106" type="line"/>
			<point x="633" y="106" type="line"/>
			<point x="633" y="311" type="line"/>
			<point x="900" y="311" type="line"/>
			<point x="900" y="414" type="line"/>
			<point x="633" y="414" type="line"/>
			<point x="633" y="587" type="line"/>
			<point x="936" y="587" type="line"/>
			<point x="936" y="693" type="line"/>
			<point x="544" y="693" type="line"/>
			<point x="512" y="697"/>
			<point x="471" y="699"/>
			<point x="440" y="699" type="curve" smooth="yes"/>
			<point x="216" y="699"/>
			<point x="55" y="586"/>
			<point x="55" y="347" type="curve" smooth="yes"/>
			<point x="55" y="107"/>
			<point x="215" y="-7"/>
			<point x="440" y="-7" type="curve" smooth="yes"/>
			<point x="470" y="-7"/>
			<point x="512" y="-4"/>
			<point x="544" y="0" type="curve"/>
		</contour>
		<contour>
			<point x="439" y="101" type="curve" smooth="yes"/>
			<point x="277" y="101"/>
			<point x="186" y="191"/>
			<point x="186" y="347" type="curve" smooth="yes"/>
			<point x="186" y="502"/>
			<point x="277" y="591"/>
			<point x="439" y="591" type="curve" smooth="yes"/>
			<point x="462" y="591"/>
			<point x="481" y="591"/>
			<point x="509" y="588" type="curve"/>
			<point x="509" y="104" type="line"/>
			<point x="487" y="102"/>
			<point x="464" y="101"/>
		</contour>
	</outline>
</glyph>
<glyph name="oe" format="2">
	<unicode hex="0153"/>
	<advance width="943"/>
	<outline>
		<contour>
			<point x="688" y="-13" type="qcurve"/>
			<point x="616" y="-13"/>
			<point x="513" y="36"/>
			<point x="481" y="83" type="qcurve"/>
			<point x="448" y="35"/>
			<point x="354" y="-14"/>
			<point x="297" y="-14" type="qcurve"/>
			<point x="241" y="-14"/>
			<point x="150" y="26"/>
			<point x="84" y="98"/>
			<point x="48" y="200"/>
			<point x="48" y="262" type="qcurve"/>
			<point x="48" y="324"/>
			<point x="85" y="425"/>
			<point x="151" y="497"/>
			<point x="242" y="536"/>
			<point x="297" y="536" type="qcurve"/>
			<point x="358" y="536"/>
			<point x="452" y="486"/>
			<point x="484" y="438" type="qcurve"/>
			<point x="519" y="490"/>
			<point x="613" y="536"/>
			<point x="663" y="536" type="qcurve"/>
			<point x="772" y="536"/>
			<point x="892" y="402"/>
			<point x="892" y="269" type="qcurve"/>
			<point x="892" y="257"/>
			<point x="891" y="233"/>
			<point x="890" y="224" type="qcurve"/>
			<point x="543" y="224" type="line"/>
			<point x="548" y="161"/>
			<point x="628" y="92"/>
			<point x="703" y="92" type="qcurve"/>
			<point x="748" y="92"/>
			<point x="821" y="108"/>
			<point x="842" y="117" type="qcurve"/>
			<point x="858" y="18" type="line"/>
			<point x="848" y="13"/>
			<point x="813" y="2"/>
			<point x="768" y="-7"/>
			<point x="715" y="-13"/>
		</contour>
		<contour>
			<point x="771" y="313" type="line"/>
			<point x="771" y="338"/>
			<point x="757" y="383"/>
			<point x="730" y="416"/>
			<point x="691" y="435"/>
			<point x="664" y="435" type="qcurve"/>
			<point x="636" y="435"/>
			<point x="594" y="414"/>
			<point x="565" y="380"/>
			<point x="549" y="336"/>
			<point x="546" y="313" type="qcurve"/>
		</contour>
		<contour>
			<point x="425" y="262" type="qcurve"/>
			<point x="425" y="340"/>
			<point x="358" y="431"/>
			<point x="298" y="431" type="qcurve"/>
			<point x="238" y="431"/>
			<point x="171" y="340"/>
			<point x="171" y="262" type="qcurve"/>
			<point x="171" y="183"/>
			<point x="238" y="91"/>
			<point x="298" y="91" type="qcurve"/>
			<point x="358" y="91"/>
			<point x="425" y="183"/>
		</contour>
	</outline>
</glyph>
<glyph name="Scedilla" format="2">
	<unicode hex="015E"/>
	<advance width="540"/>
	<outline>
		<contour>
			<point x="251" y="94" type="qcurve"/>
			<point x="319" y="94"/>
			<point x="381" y="140"/>
			<point x="381" y="182" type="qcurve"/>
			<point x="381" y="207"/>
			<point x="360" y="243"/>
			<point x="321" y="272"/>
			<point x="265" y="297"/>
			<point x="229" y="309" type="qcurve"/>
			<point x="193" y="322"/>
			<point x="126" y="353"/>
			<point x="75" y="399"/>
			<point x="44" y="463"/>
			<point x="44" y="508" type="qcurve"/>
			<point x="44" y="602"/>
			<point x="174" y="709"/>
			<point x="286" y="709" type="qcurve"/>
			<point x="351" y="709"/>
			<point x="452" y="680"/>
			<point x="481" y="663" type="qcurve"/>
			<point x="442" y="561" type="line"/>
			<point x="408" y="580"/>
			<point x="327" y="600"/>
			<point x="284" y="600" type="qcurve"/>
			<point x="233" y="600"/>
			<point x="176" y="558"/>
			<point x="176" y="520" type="qcurve"/>
			<point x="176" y="497"/>
			<point x="195" y="464"/>
			<point x="230" y="438"/>
			<point x="277" y="416"/>
			<point x="305" y="406" type="qcurve"/>
			<point x="354" y="388"/>
			<point x="431" y="351"/>
			<point x="484" y="300"/>
			<point x="512" y="231"/>
			<point x="512" y="182" type="qcurve"/>
			<point x="512" y="98"/>
			<point x="408" y="-1"/>
			<point x="308" y="-12" type="qcurve"/>
			<point x="304" y="-20"/>
			<point x="297" y="-33"/>
			<point x="295" y="-39" type="qcurve"/>
			<point x="327" y="-54"/>
			<point x="352" y="-92"/>
			<point x="352" y="-120" type="qcurve"/>
			<point x="352" y="-155"/>
			<point x="292" y="-205"/>
			<point x="232" y="-205" type="qcurve"/>
			<point x="184" y="-205"/>
			<point x="147" y="-192" type="qcurve"/>
			<point x="161" y="-120" type="line"/>
			<point x="171" y="-123"/>
			<point x="203" y="-131"/>
			<point x="220" y="-131" type="qcurve"/>
			<point x="237" y="-131"/>
			<point x="256" y="-119"/>
			<point x="256" y="-107" type="qcurve"/>
			<point x="256" y="-91"/>
			<point x="228" y="-76"/>
			<point x="214" y="-71" type="qcurve"/>
			<point x="204" y="-68" type="line"/>
			<point x="208" y="-57"/>
			<point x="220" y="-28"/>
			<point x="226" y="-14" type="qcurve"/>
			<point x="150" y="-11"/>
			<point x="53" y="23"/>
			<point x="30" y="36" type="qcurve"/>
			<point x="67" y="139" type="line"/>
			<point x="94" y="124"/>
			<point x="186" y="94"/>
		</contour>
	</outline>
</glyph>
<glyph name="scedilla" format="2">
	<unicode hex="015F"/>
	<advance width="457"/>
	<outline>
		<contour>
			<point x="251" y="-39" type="qcurve"/>
			<point x="283" y="-54"/>
			<point x="308" y="-92"/>
			<point x="308" y="-120" type="qcurve"/>
			<point x="308" y="-155"/>
			<point x="248" y="-205"/>
			<point x="188" y="-205" type="qcurve"/>
			<point x="140" y="-205"/>
			<point x="103" y="-192" type="qcurve"/>
			<point x="117" y="-120" type="line"/>
			<point x="127" y="-123"/>
			<point x="159" y="-131"/>
			<point x="176" y="-131" type="qcurve"/>
			<point x="193" y="-131"/>
			<point x="212" y="-119"/>
			<point x="212" y="-107" type="qcurve"/>
			<point x="212" y="-91"/>
			<point x="184" y="-76"/>
			<point x="170" y="-71" type="qcurve"/>
			<point x="160" y="-68" type="line"/>
			<point x="164" y="-57"/>
			<point x="176" y="-26"/>
			<point x="183" y="-12" type="qcurve"/>
			<point x="125" y="-10"/>
			<point x="52" y="11"/>
			<point x="37" y="17" type="qcurve"/>
			<point x="58" y="118" type="line"/>
			<point x="85" y="107"/>
			<point x="160" y="87"/>
			<point x="208" y="87" type="qcurve"/>
			<point x="256" y="87"/>
			<point x="300" y="110"/>
			<point x="300" y="138" type="qcurve"/>
			<point x="300" y="164"/>
			<point x="253" y="198"/>
			<point x="199" y="218" type="qcurve"/>
			<point x="166" y="230"/>
			<point x="111" y="257"/>
			<point x="71" y="293"/>
			<point x="48" y="344"/>
			<point x="48" y="381" type="qcurve"/>
			<point x="48" y="453"/>
			<point x="154" y="536"/>
			<point x="245" y="536" type="qcurve"/>
			<point x="291" y="536"/>
			<point x="375" y="519"/>
			<point x="396" y="511" type="qcurve"/>
			<point x="374" y="413" type="line"/>
			<point x="354" y="422"/>
			<point x="292" y="437"/>
			<point x="251" y="437" type="qcurve"/>
			<point x="214" y="437"/>
			<point x="168" y="412"/>
			<point x="168" y="386" type="qcurve"/>
			<point x="168" y="373"/>
			<point x="177" y="353"/>
			<point x="199" y="336"/>
			<point x="235" y="319"/>
			<point x="261" y="310" type="qcurve"/>
			<point x="304" y="294"/>
			<point x="364" y="263"/>
			<point x="403" y="224"/>
			<point x="421" y="174"/>
			<point x="421" y="139" type="qcurve"/>
			<point x="421" y="75"/>
			<point x="340" y="1"/>
			<point x="265" y="-9" type="qcurve"/>
			<point x="256" y="-25"/>
		</contour>
	</outline>
</glyph>
<glyph name="uni0162" format="2">
	<unicode hex="0162"/>
	<advance width="579"/>
	<outline>
		<contour>
			<point x="308" y="-39" type="qcurve"/>
			<point x="340" y="-54"/>
			<point x="365" y="-92"/>
			<point x="365" y="-120" type="qcurve"/>
			<point x="365" y="-155"/>
			<point x="305" y="-205"/>
			<point x="245" y="-205" type="qcurve"/>
			<point x="197" y="-205"/>
			<point x="160" y="-192" type="qcurve"/>
			<point x="174" y="-120" type="line"/>
			<point x="184" y="-123"/>
			<point x="216" y="-131"/>
			<point x="233" y="-131" type="qcurve"/>
			<point x="250" y="-131"/>
			<point x="269" y="-119"/>
			<point x="269" y="-107" type="qcurve"/>
			<point x="269" y="-91"/>
			<point x="241" y="-76"/>
			<point x="227" y="-71" type="qcurve"/>
			<point x="217" y="-68" type="line"/>
			<point x="222" y="-54"/>
			<point x="239" y="-15"/>
			<point x="247" y="0" type="qcurve"/>
			<point x="226" y="0" type="line"/>
			<point x="226" y="584" type="line"/>
			<point x="13" y="584" type="line"/>
			<point x="13" y="693" type="line"/>
			<point x="566" y="693" type="line"/>
			<point x="566" y="584" type="line"/>
			<point x="353" y="584" type="line"/>
			<point x="353" y="0" type="line"/>
			<point x="326" y="0" type="line"/>
			<point x="321" y="-10"/>
			<point x="311" y="-31"/>
		</contour>
	</outline>
	<note>
		Accent changed from comma to cedilla.
	</note>
</glyph>
<glyph name="uni0163" format="2">
	<unicode hex="0163"/>
	<advance width="418"/>
	<outline>
		<contour>
			<point x="284" y="-39" type="qcurve"/>
			<point x="316" y="-54"/>
			<point x="341" y="-92"/>
			<point x="341" y="-120" type="qcurve"/>
			<point x="341" y="-155"/>
			<point x="281" y="-205"/>
			<point x="221" y="-205" type="qcurve"/>
			<point x="173" y="-205"/>
			<point x="136" y="-192" type="qcurve"/>
			<point x="150" y="-120" type="line"/>
			<point x="160" y="-123"/>
			<point x="192" y="-131"/>
			<point x="209" y="-131" type="qcurve"/>
			<point x="226" y="-131"/>
			<point x="245" y="-119"/>
			<point x="245" y="-107" type="qcurve"/>
			<point x="245" y="-91"/>
			<point x="217" y="-76"/>
			<point x="203" y="-71" type="qcurve"/>
			<point x="193" y="-68" type="line"/>
			<point x="197" y="-56"/>
			<point x="211" y="-23"/>
			<point x="218" y="-9" type="qcurve"/>
			<point x="176" y="-3"/>
			<point x="119" y="31"/>
			<point x="85" y="87"/>
			<point x="71" y="162"/>
			<point x="71" y="208" type="qcurve"/>
			<point x="71" y="661" type="line"/>
			<point x="192" y="681" type="line"/>
			<point x="192" y="523" type="line"/>
			<point x="378" y="523" type="line"/>
			<point x="378" y="422" type="line"/>
			<point x="192" y="422" type="line"/>
			<point x="192" y="209" type="line"/>
			<point x="192" y="146"/>
			<point x="232" y="92"/>
			<point x="280" y="92" type="qcurve"/>
			<point x="313" y="92"/>
			<point x="364" y="106"/>
			<point x="379" y="112" type="qcurve"/>
			<point x="399" y="16" type="line"/>
			<point x="382" y="8"/>
			<point x="331" y="-7"/>
			<point x="297" y="-10" type="qcurve"/>
			<point x="293" y="-18"/>
			<point x="286" y="-33"/>
		</contour>
	</outline>
	<note>
		Accent changed from comma to cedilla.
	</note>
</glyph>
<glyph name="Tbar" format="2">
	<unicode hex="0166"/>
	<advance width="579"/>
	<outline>
		<contour>
			<point x="566" y="693" type="line"/>
			<point x="566" y="584" type="line"/>
			<point x="353" y="584" type="line"/>
			<point x="353" y="385" type="line"/>
			<point x="488" y="385" type="line"/>
			<point x="488" y="292" type="line"/>
			<point x="353" y="292" type="line"/>
			<point x="353" y="0" type="line"/>
			<point x="226" y="0" type="line"/>
			<point x="226" y="292" type="line"/>
			<point x="91" y="292" type="line"/>
			<point x="91" y="385" type="line"/>
			<point x="226" y="385" type="line"/>
			<point x="226" y="584" type="line"/>
			<point x="13" y="584" type="line"/>
			<point x="13" y="693" type="line"/>
		</contour>
	</outline>
</glyph>
<glyph name="tbar" format="2">
	<unicode hex="0167"/>
	<advance width="418"/>
	<outline>
		<contour>
			<point x="71" y="661" type="line"/>
			<point x="192" y="681" type="line"/>
			<point x="192" y="523" type="line"/>
			<point x="378" y="523" type="line"/>
			<point x="378" y="422" type="line"/>
			<point x="192" y="422" type="line"/>
			<point x="192" y="313" type="line"/>
			<point x="378" y="313" type="line"/>
			<point x="378" y="232" type="line"/>
			<point x="192" y="232" type="line"/>
			<point x="192" y="209" type="line"/>
			<point x="192" y="146"/>
			<point x="232" y="92"/>
			<point x="280" y="92" type="qcurve"/>
			<point x="313" y="92"/>
			<point x="364" y="106"/>
			<point x="379" y="112" type="qcurve"/>
			<point x="399" y="16" type="line"/>
			<point x="378" y="7"/>
			<point x="310" y="-12"/>
			<point x="264" y="-12" type="qcurve"/>
			<point x="208" y="-12"/>
			<point x="133" y="18"/>
			<point x="89" y="75"/>
			<point x="71" y="156"/>
			<point x="71" y="208" type="qcurve"/>
		</contour>
	</outline>
	<guideline x="378"/>
</glyph>
<glyph name="Uogonek" format="2">
	<unicode hex="0172"/>
	<advance width="703"/>
	<outline>
		<contour>
			<point x="406" y="-204" type="qcurve"/>
			<point x="344" y="-204"/>
			<point x="288" y="-159"/>
			<point x="288" y="-121" type="qcurve"/>
			<point x="288" y="-92"/>
			<point x="326" y="-38"/>
			<point x="347" y="-15" type="qcurve"/>
			<point x="277" y="-14"/>
			<point x="175" y="28"/>
			<point x="109" y="101"/>
			<point x="78" y="201"/>
			<point x="78" y="260" type="qcurve"/>
			<point x="78" y="693" type="line"/>
			<point x="205" y="693" type="line"/>
			<point x="205" y="272" type="line"/>
			<point x="205" y="225"/>
			<point x="226" y="158"/>
			<point x="265" y="116"/>
			<point x="318" y="96"/>
			<point x="351" y="96" type="qcurve"/>
			<point x="384" y="96"/>
			<point x="438" y="116"/>
			<point x="477" y="158"/>
			<point x="498" y="225"/>
			<point x="498" y="272" type="qcurve"/>
			<point x="498" y="693" type="line"/>
			<point x="625" y="693" type="line"/>
			<point x="625" y="260" type="line"/>
			<point x="625" y="179"/>
			<point x="568" y="57"/>
			<point x="505" y="20" type="qcurve"/>
			<point x="480" y="4"/>
			<point x="445" y="-21"/>
			<point x="426" y="-40" type="qcurve"/>
			<point x="412" y="-54"/>
			<point x="398" y="-78"/>
			<point x="398" y="-91" type="qcurve"/>
			<point x="398" y="-118"/>
			<point x="433" y="-118" type="qcurve"/>
			<point x="441" y="-118"/>
			<point x="465" y="-115"/>
			<point x="479" y="-110" type="qcurve"/>
			<point x="488" y="-191" type="line"/>
			<point x="473" y="-197"/>
			<point x="427" y="-204"/>
		</contour>
	</outline>
</glyph>
<glyph name="uogonek" format="2">
	<unicode hex="0173"/>
	<advance width="583"/>
	<outline>
		<contour>
			<point x="425" y="-203" type="curve" smooth="yes"/>
			<point x="453" y="-203"/>
			<point x="487" y="-198"/>
			<point x="507" y="-189" type="curve"/>
			<point x="498" y="-109" type="line"/>
			<point x="479" y="-115"/>
			<point x="462" y="-116"/>
			<point x="452" y="-116" type="curve" smooth="yes"/>
			<point x="427" y="-116"/>
			<point x="417" y="-106"/>
			<point x="417" y="-89" type="curve" smooth="yes"/>
			<point x="417" y="-73"/>
			<point x="429" y="-58"/>
			<point x="447" y="-39" type="curve" smooth="yes"/>
			<point x="468" y="-17"/>
			<point x="492" y="3"/>
			<point x="506" y="15" type="curve"/>
			<point x="506" y="523" type="line"/>
			<point x="385" y="523" type="line"/>
			<point x="385" y="100" type="line"/>
			<point x="369" y="96"/>
			<point x="331" y="93"/>
			<point x="302" y="93" type="curve" smooth="yes"/>
			<point x="221" y="93"/>
			<point x="192" y="138"/>
			<point x="192" y="249" type="curve" smooth="yes"/>
			<point x="192" y="523" type="line"/>
			<point x="71" y="523" type="line"/>
			<point x="71" y="230" type="line"/>
			<point x="71" y="89"/>
			<point x="124" y="-12"/>
			<point x="292" y="-12" type="curve" smooth="yes"/>
			<point x="321" y="-12"/>
			<point x="351" y="-10"/>
			<point x="377" y="-7" type="curve"/>
			<point x="367" y="-16"/>
			<point x="355" y="-26"/>
			<point x="346" y="-37" type="curve" smooth="yes"/>
			<point x="325" y="-62"/>
			<point x="307" y="-90"/>
			<point x="307" y="-119" type="curve" smooth="yes"/>
			<point x="307" y="-170"/>
			<point x="343" y="-203"/>
		</contour>
	</outline>
</glyph>
<glyph name="longs" format="2">
	<unicode hex="017F"/>
	<advance width="292"/>
	<outline>
		<contour>
			<point x="290" y="776" type="qcurve"/>
			<point x="332" y="776"/>
			<point x="396" y="761"/>
			<point x="412" y="755" type="qcurve"/>
			<point x="389" y="655" type="line"/>
			<point x="372" y="663"/>
			<point x="327" y="673"/>
			<point x="301" y="673" type="qcurve"/>
			<point x="272" y="673"/>
			<point x="232" y="656"/>
			<point x="208" y="626"/>
			<point x="198" y="583"/>
			<point x="198" y="558" type="qcurve"/>
			<point x="198" y="0" type="line"/>
			<point x="77" y="0" type="line"/>
			<point x="77" y="560" type="line"/>
			<point x="77" y="661"/>
			<point x="183" y="776"/>
		</contour>
	</outline>
</glyph>
<glyph name="uni0180" format="2">
	<unicode hex="0180"/>
	<advance width="590"/>
	<outline>
		<contour>
			<point x="192" y="605" type="line"/>
			<point x="192" y="497" type="line"/>
			<point x="213" y="508"/>
			<point x="274" y="526"/>
			<point x="311" y="526" type="qcurve"/>
			<point x="366" y="526"/>
			<point x="453" y="487"/>
			<point x="511" y="416"/>
			<point x="542" y="317"/>
			<point x="542" y="257" type="qcurve"/>
			<point x="542" y="195"/>
			<point x="505" y="96"/>
			<point x="436" y="25"/>
			<point x="338" y="-13"/>
			<point x="276" y="-13" type="qcurve"/>
			<point x="216" y="-13"/>
			<point x="107" y="5"/>
			<point x="71" y="16" type="qcurve"/>
			<point x="71" y="605" type="line"/>
			<point x="3" y="605" type="line"/>
			<point x="3" y="686" type="line"/>
			<point x="71" y="686" type="line"/>
			<point x="71" y="756" type="line"/>
			<point x="192" y="776" type="line"/>
			<point x="192" y="686" type="line"/>
			<point x="352" y="686" type="line"/>
			<point x="352" y="605" type="line"/>
		</contour>
		<contour>
			<point x="418" y="259" type="qcurve"/>
			<point x="418" y="333"/>
			<point x="357" y="422"/>
			<point x="291" y="422" type="qcurve"/>
			<point x="261" y="422"/>
			<point x="208" y="404"/>
			<point x="192" y="393" type="qcurve"/>
			<point x="192" y="100" type="line"/>
			<point x="205" y="97"/>
			<point x="246" y="92"/>
			<point x="275" y="92" type="qcurve"/>
			<point x="342" y="92"/>
			<point x="418" y="182"/>
		</contour>
	</outline>
</glyph>
<glyph name="uni0181" format="2">
	<unicode hex="0181"/>
	<advance width="774"/>
	<outline>
		<contour>
			<point x="12" y="532" type="qcurve"/>
			<point x="12" y="594"/>
			<point x="81" y="662"/>
			<point x="189" y="694"/>
			<point x="323" y="700"/>
			<point x="389" y="700" type="qcurve"/>
			<point x="456" y="700"/>
			<point x="568" y="681"/>
			<point x="649" y="637"/>
			<point x="694" y="565"/>
			<point x="694" y="512" type="qcurve"/>
			<point x="694" y="463"/>
			<point x="646" y="393"/>
			<point x="601" y="373" type="qcurve"/>
			<point x="667" y="351"/>
			<point x="726" y="269"/>
			<point x="726" y="206" type="qcurve"/>
			<point x="726" y="99"/>
			<point x="570" y="-8"/>
			<point x="409" y="-8" type="qcurve"/>
			<point x="359" y="-8"/>
			<point x="251" y="0"/>
			<point x="200" y="11" type="qcurve"/>
			<point x="200" y="587" type="line"/>
			<point x="156" y="584"/>
			<point x="115" y="548"/>
			<point x="115" y="519" type="qcurve"/>
			<point x="115" y="512"/>
			<point x="116" y="492"/>
			<point x="118" y="481" type="qcurve"/>
			<point x="21" y="469" type="line"/>
			<point x="18" y="479"/>
			<point x="12" y="515"/>
		</contour>
		<contour>
			<point x="324" y="313" type="line"/>
			<point x="324" y="100" type="line"/>
			<point x="355" y="98" type="line"/>
			<point x="366" y="97"/>
			<point x="395" y="97"/>
			<point x="413" y="97" type="qcurve"/>
			<point x="452" y="97"/>
			<point x="519" y="107"/>
			<point x="568" y="132"/>
			<point x="597" y="174"/>
			<point x="597" y="207" type="qcurve"/>
			<point x="597" y="266"/>
			<point x="511" y="313"/>
			<point x="435" y="313" type="qcurve"/>
		</contour>
		<contour>
			<point x="324" y="410" type="line"/>
			<point x="411" y="410" type="line"/>
			<point x="488" y="410"/>
			<point x="569" y="452"/>
			<point x="569" y="505" type="qcurve"/>
			<point x="569" y="530"/>
			<point x="546" y="565"/>
			<point x="505" y="587"/>
			<point x="448" y="597"/>
			<point x="414" y="597" type="qcurve"/>
			<point x="385" y="597"/>
			<point x="344" y="596"/>
			<point x="324" y="595" type="qcurve"/>
		</contour>
	</outline>
</glyph>
<glyph name="uni0182" format="2">
	<unicode hex="0182"/>
	<advance width="629"/>
	<outline>
		<contour>
			<point x="206" y="586" type="line"/>
			<point x="206" y="440" type="line"/>
			<point x="274" y="440" type="line"/>
			<point x="349" y="440"/>
			<point x="467" y="416"/>
			<point x="549" y="363"/>
			<point x="592" y="278"/>
			<point x="592" y="217" type="qcurve"/>
			<point x="592" y="104"/>
			<point x="429" y="-7"/>
			<point x="278" y="-7" type="qcurve"/>
			<point x="236" y="-7"/>
			<point x="130" y="2"/>
			<point x="83" y="13" type="qcurve"/>
			<point x="83" y="693" type="line"/>
			<point x="527" y="693" type="line"/>
			<point x="527" y="586" type="line"/>
		</contour>
		<contour>
			<point x="250" y="102" type="qcurve"/>
			<point x="261" y="102"/>
			<point x="289" y="102"/>
			<point x="306" y="103" type="qcurve"/>
			<point x="337" y="104"/>
			<point x="394" y="116"/>
			<point x="437" y="142"/>
			<point x="462" y="184"/>
			<point x="462" y="216" type="qcurve"/>
			<point x="462" y="252"/>
			<point x="436" y="298"/>
			<point x="386" y="325"/>
			<point x="315" y="336"/>
			<point x="270" y="336" type="qcurve"/>
			<point x="206" y="336" type="line"/>
			<point x="206" y="104" type="line"/>
			<point x="215" y="103"/>
			<point x="236" y="102"/>
		</contour>
	</outline>
</glyph>
<glyph name="uni0183" format="2">
	<unicode hex="0183"/>
	<advance width="596"/>
	<outline>
		<contour>
			<point x="198" y="669" type="line"/>
			<point x="495" y="669" type="line"/>
			<point x="495" y="770" type="line"/>
			<point x="77" y="770" type="line"/>
			<point x="77" y="16" type="line"/>
			<point x="125" y="2"/>
			<point x="203" y="-13"/>
			<point x="282" y="-13" type="curve" smooth="yes"/>
			<point x="447" y="-13"/>
			<point x="548" y="93"/>
			<point x="548" y="257" type="curve" smooth="yes"/>
			<point x="548" y="416"/>
			<point x="465" y="526"/>
			<point x="317" y="526" type="curve" smooth="yes"/>
			<point x="268" y="526"/>
			<point x="226" y="512"/>
			<point x="198" y="497" type="curve"/>
		</contour>
		<contour>
			<point x="424" y="259" type="curve" smooth="yes"/>
			<point x="424" y="157"/>
			<point x="370" y="92"/>
			<point x="281" y="92" type="curve" smooth="yes"/>
			<point x="243" y="92"/>
			<point x="215" y="96"/>
			<point x="198" y="100" type="curve"/>
			<point x="198" y="393" type="line"/>
			<point x="219" y="408"/>
			<point x="257" y="422"/>
			<point x="297" y="422" type="curve" smooth="yes"/>
			<point x="385" y="422"/>
			<point x="424" y="357"/>
		</contour>
	</outline>
</glyph>
<glyph name="uni0184" format="2">
	<unicode hex="0184"/>
	<advance width="604"/>
	<outline>
		<contour>
			<point x="556" y="261" type="qcurve"/>
			<point x="556" y="198"/>
			<point x="519" y="97"/>
			<point x="450" y="25"/>
			<point x="352" y="-13"/>
			<point x="290" y="-13" type="qcurve"/>
			<point x="230" y="-13"/>
			<point x="121" y="5"/>
			<point x="85" y="16" type="qcurve"/>
			<point x="85" y="613" type="line"/>
			<point x="7" y="695" type="line"/>
			<point x="51" y="720"/>
			<point x="151" y="762"/>
			<point x="206" y="776" type="qcurve"/>
			<point x="206" y="505" type="line"/>
			<point x="227" y="516"/>
			<point x="288" y="534"/>
			<point x="325" y="534" type="qcurve"/>
			<point x="380" y="534"/>
			<point x="467" y="495"/>
			<point x="525" y="423"/>
			<point x="556" y="322"/>
		</contour>
		<contour>
			<point x="432" y="263" type="qcurve"/>
			<point x="432" y="340"/>
			<point x="371" y="430"/>
			<point x="305" y="430" type="qcurve"/>
			<point x="275" y="430"/>
			<point x="222" y="412"/>
			<point x="206" y="401" type="qcurve"/>
			<point x="206" y="100" type="line"/>
			<point x="219" y="97"/>
			<point x="260" y="92"/>
			<point x="289" y="92" type="qcurve"/>
			<point x="356" y="92"/>
			<point x="432" y="183"/>
		</contour>
	</outline>
</glyph>
<glyph name="uni0185" format="2">
	<unicode hex="0185"/>
	<advance width="638"/>
	<outline>
		<contour>
			<point x="218" y="446" type="line"/>
			<point x="234" y="448"/>
			<point x="265" y="448"/>
			<point x="280" y="448" type="qcurve"/>
			<point x="441" y="448"/>
			<point x="604" y="334"/>
			<point x="604" y="219" type="qcurve"/>
			<point x="604" y="106"/>
			<point x="442" y="-7"/>
			<point x="287" y="-7" type="qcurve"/>
			<point x="245" y="-7"/>
			<point x="142" y="1"/>
			<point x="95" y="12" type="qcurve"/>
			<point x="95" y="538" type="line"/>
			<point x="17" y="620" type="line"/>
			<point x="61" y="645"/>
			<point x="162" y="687"/>
			<point x="218" y="701" type="qcurve"/>
		</contour>
		<contour>
			<point x="474" y="219" type="qcurve"/>
			<point x="474" y="255"/>
			<point x="445" y="302"/>
			<point x="393" y="330"/>
			<point x="321" y="341"/>
			<point x="278" y="341" type="qcurve"/>
			<point x="259" y="341"/>
			<point x="232" y="341"/>
			<point x="218" y="339" type="qcurve"/>
			<point x="218" y="103" type="line"/>
			<point x="227" y="102"/>
			<point x="254" y="101"/>
			<point x="274" y="101" type="qcurve"/>
			<point x="312" y="101"/>
			<point x="384" y="109"/>
			<point x="440" y="133"/>
			<point x="474" y="180"/>
		</contour>
	</outline>
</glyph>
<glyph name="uni0186" format="2">
	<unicode hex="0186"/>
	<advance width="632"/>
	<outline>
		<contour>
			<point x="241" y="709" type="curve" smooth="yes"/>
			<point x="139" y="709"/>
			<point x="59" y="680"/>
			<point x="27" y="660" type="curve"/>
			<point x="61" y="559" type="line"/>
			<point x="93" y="574"/>
			<point x="145" y="597"/>
			<point x="228" y="597" type="curve" smooth="yes"/>
			<point x="384" y="597"/>
			<point x="445" y="497"/>
			<point x="445" y="346" type="curve" smooth="yes"/>
			<point x="445" y="184"/>
			<point x="362" y="97"/>
			<point x="232" y="97" type="curve" smooth="yes"/>
			<point x="152" y="97"/>
			<point x="94" y="117"/>
			<point x="58" y="136" type="curve"/>
			<point x="24" y="33" type="line"/>
			<point x="44" y="20"/>
			<point x="122" y="-15"/>
			<point x="237" y="-15" type="curve" smooth="yes"/>
			<point x="451" y="-15"/>
			<point x="577" y="116"/>
			<point x="577" y="347" type="curve" smooth="yes"/>
			<point x="577" y="576"/>
			<point x="451" y="709"/>
		</contour>
	</outline>
	<guideline x="24"/>
</glyph>
<glyph name="uni0187" format="2">
	<unicode hex="0187"/>
	<advance width="684"/>
	<outline>
		<contour>
			<point x="389" y="-15" type="qcurve"/>
			<point x="311" y="-15"/>
			<point x="187" y="33"/>
			<point x="101" y="126"/>
			<point x="55" y="260"/>
			<point x="55" y="347" type="qcurve"/>
			<point x="55" y="434"/>
			<point x="108" y="568"/>
			<point x="200" y="661"/>
			<point x="324" y="709"/>
			<point x="395" y="709" type="qcurve"/>
			<point x="430" y="707"/>
			<point x="482" y="700"/>
			<point x="507" y="692" type="qcurve"/>
			<point x="525" y="744"/>
			<point x="590" y="786"/>
			<point x="647" y="786" type="qcurve"/>
			<point x="670" y="786"/>
			<point x="715" y="776"/>
			<point x="729" y="769" type="qcurve"/>
			<point x="703" y="674" type="line"/>
			<point x="693" y="678"/>
			<point x="667" y="683"/>
			<point x="656" y="683" type="qcurve"/>
			<point x="628" y="683"/>
			<point x="593" y="655"/>
			<point x="583" y="623" type="qcurve"/>
			<point x="565" y="557" type="line"/>
			<point x="540" y="570"/>
			<point x="453" y="597"/>
			<point x="399" y="597" type="qcurve"/>
			<point x="353" y="597"/>
			<point x="276" y="566"/>
			<point x="219" y="504"/>
			<point x="187" y="410"/>
			<point x="187" y="348" type="qcurve"/>
			<point x="187" y="293"/>
			<point x="212" y="201"/>
			<point x="264" y="134"/>
			<point x="344" y="97"/>
			<point x="400" y="97" type="qcurve"/>
			<point x="467" y="97"/>
			<point x="551" y="124"/>
			<point x="574" y="136" type="qcurve"/>
			<point x="608" y="33" type="line"/>
			<point x="596" y="25"/>
			<point x="555" y="9"/>
			<point x="499" y="-6"/>
			<point x="429" y="-15"/>
		</contour>
	</outline>
</glyph>
<glyph name="uni0188" format="2">
	<unicode hex="0188"/>
	<advance width="519"/>
	<outline>
		<contour>
			<point x="48" y="261" type="qcurve"/>
			<point x="48" y="319"/>
			<point x="84" y="420"/>
			<point x="151" y="494"/>
			<point x="247" y="536"/>
			<point x="307" y="536" type="qcurve"/>
			<point x="321" y="536"/>
			<point x="348" y="534"/>
			<point x="362" y="531" type="qcurve"/>
			<point x="381" y="584"/>
			<point x="442" y="625"/>
			<point x="495" y="625" type="qcurve"/>
			<point x="516" y="625"/>
			<point x="557" y="616"/>
			<point x="569" y="610" type="qcurve"/>
			<point x="545" y="521" type="line"/>
			<point x="524" y="529"/>
			<point x="501" y="529" type="qcurve"/>
			<point x="481" y="529"/>
			<point x="448" y="510"/>
			<point x="440" y="486" type="qcurve"/>
			<point x="434" y="469"/>
			<point x="426" y="431"/>
			<point x="422" y="411" type="qcurve"/>
			<point x="405" y="417"/>
			<point x="348" y="431"/>
			<point x="317" y="431" type="qcurve"/>
			<point x="246" y="431"/>
			<point x="172" y="342"/>
			<point x="172" y="261" type="qcurve"/>
			<point x="172" y="183"/>
			<point x="242" y="92"/>
			<point x="325" y="92" type="qcurve"/>
			<point x="356" y="92"/>
			<point x="416" y="104"/>
			<point x="438" y="113" type="qcurve"/>
			<point x="455" y="13" type="line"/>
			<point x="435" y="3"/>
			<point x="354" y="-13"/>
			<point x="311" y="-13" type="qcurve"/>
			<point x="244" y="-13"/>
			<point x="145" y="28"/>
			<point x="80" y="101"/>
			<point x="48" y="202"/>
		</contour>
	</outline>
</glyph>
<glyph name="uni018A" format="2">
	<unicode hex="018A"/>
	<advance width="843"/>
	<outline>
		<contour>
			<point x="789" y="347" type="qcurve"/>
			<point x="789" y="257"/>
			<point x="733" y="124"/>
			<point x="630" y="35"/>
			<point x="485" y="-8"/>
			<point x="397" y="-8" type="qcurve"/>
			<point x="355" y="-8"/>
			<point x="249" y="-1"/>
			<point x="201" y="10" type="qcurve"/>
			<point x="201" y="587" type="line"/>
			<point x="157" y="584"/>
			<point x="115" y="548"/>
			<point x="115" y="519" type="qcurve"/>
			<point x="115" y="512"/>
			<point x="116" y="492"/>
			<point x="118" y="481" type="qcurve"/>
			<point x="21" y="469" type="line"/>
			<point x="18" y="479"/>
			<point x="12" y="515"/>
			<point x="12" y="532" type="qcurve"/>
			<point x="12" y="595"/>
			<point x="86" y="664"/>
			<point x="200" y="695"/>
			<point x="336" y="700"/>
			<point x="399" y="700" type="qcurve"/>
			<point x="486" y="700"/>
			<point x="630" y="659"/>
			<point x="733" y="572"/>
			<point x="789" y="439"/>
		</contour>
		<contour>
			<point x="327" y="104" type="line"/>
			<point x="342" y="102"/>
			<point x="377" y="102"/>
			<point x="405" y="102" type="qcurve"/>
			<point x="532" y="102"/>
			<point x="657" y="231"/>
			<point x="657" y="347" type="qcurve"/>
			<point x="657" y="465"/>
			<point x="535" y="591"/>
			<point x="407" y="591" type="qcurve"/>
			<point x="377" y="591"/>
			<point x="335" y="590"/>
			<point x="327" y="589" type="qcurve"/>
		</contour>
	</outline>
</glyph>
<glyph name="uni018B" format="2">
	<unicode hex="018B"/>
	<advance width="635"/>
	<outline>
		<contour>
			<point x="108" y="586" type="line"/>
			<point x="108" y="693" type="line"/>
			<point x="552" y="693" type="line"/>
			<point x="552" y="13" type="line"/>
			<point x="505" y="2"/>
			<point x="399" y="-7"/>
			<point x="357" y="-7" type="qcurve"/>
			<point x="206" y="-7"/>
			<point x="43" y="104"/>
			<point x="43" y="217" type="qcurve"/>
			<point x="43" y="278"/>
			<point x="86" y="363"/>
			<point x="168" y="416"/>
			<point x="286" y="440"/>
			<point x="361" y="440" type="qcurve"/>
			<point x="429" y="440" type="line"/>
			<point x="429" y="586" type="line"/>
		</contour>
		<contour>
			<point x="385" y="102" type="qcurve"/>
			<point x="399" y="102"/>
			<point x="420" y="103"/>
			<point x="429" y="104" type="qcurve"/>
			<point x="429" y="336" type="line"/>
			<point x="365" y="336" type="line"/>
			<point x="320" y="336"/>
			<point x="249" y="325"/>
			<point x="199" y="298"/>
			<point x="173" y="252"/>
			<point x="173" y="216" type="qcurve"/>
			<point x="173" y="184"/>
			<point x="198" y="142"/>
			<point x="241" y="116"/>
			<point x="297" y="104"/>
			<point x="329" y="103" type="qcurve"/>
			<point x="346" y="102"/>
			<point x="374" y="102"/>
		</contour>
	</outline>
</glyph>
<glyph name="uni018C" format="2">
	<unicode hex="018C"/>
	<advance width="599"/>
	<outline>
		<contour>
			<point x="398" y="669" type="line"/>
			<point x="101" y="669" type="line"/>
			<point x="101" y="770" type="line"/>
			<point x="519" y="770" type="line"/>
			<point x="519" y="16" type="line"/>
			<point x="483" y="5"/>
			<point x="374" y="-13"/>
			<point x="314" y="-13" type="qcurve"/>
			<point x="252" y="-13"/>
			<point x="154" y="25"/>
			<point x="85" y="96"/>
			<point x="48" y="195"/>
			<point x="48" y="257" type="qcurve"/>
			<point x="48" y="317"/>
			<point x="79" y="416"/>
			<point x="137" y="487"/>
			<point x="223" y="526"/>
			<point x="279" y="526" type="qcurve"/>
			<point x="316" y="526"/>
			<point x="377" y="508"/>
			<point x="398" y="497" type="qcurve"/>
		</contour>
		<contour>
			<point x="172" y="259" type="qcurve"/>
			<point x="172" y="182"/>
			<point x="248" y="92"/>
			<point x="315" y="92" type="qcurve"/>
			<point x="344" y="92"/>
			<point x="385" y="97"/>
			<point x="398" y="100" type="qcurve"/>
			<point x="398" y="393" type="line"/>
			<point x="382" y="404"/>
			<point x="329" y="422"/>
			<point x="299" y="422" type="qcurve"/>
			<point x="233" y="422"/>
			<point x="172" y="333"/>
		</contour>
	</outline>
</glyph>
<glyph name="uni018D" format="2">
	<unicode hex="018D"/>
	<advance width="587"/>
	<outline>
		<contour>
			<point x="542" y="295" type="qcurve"/>
			<point x="542" y="260"/>
			<point x="520" y="194"/>
			<point x="479" y="135"/>
			<point x="422" y="85"/>
			<point x="387" y="68" type="qcurve"/>
			<point x="403" y="57"/>
			<point x="430" y="33"/>
			<point x="450" y="6"/>
			<point x="461" y="-27"/>
			<point x="461" y="-48" type="qcurve"/>
			<point x="461" y="-117"/>
			<point x="353" y="-187"/>
			<point x="266" y="-187" type="qcurve"/>
			<point x="209" y="-187"/>
			<point x="124" y="-169"/>
			<point x="95" y="-158" type="qcurve"/>
			<point x="119" y="-62" type="line"/>
			<point x="142" y="-72"/>
			<point x="215" y="-89"/>
			<point x="260" y="-89" type="qcurve"/>
			<point x="293" y="-89"/>
			<point x="341" y="-74"/>
			<point x="341" y="-48" type="qcurve"/>
			<point x="341" y="-28"/>
			<point x="309" y="4"/>
			<point x="263" y="30"/>
			<point x="212" y="52"/>
			<point x="194" y="63" type="qcurve"/>
			<point x="125" y="102"/>
			<point x="47" y="210"/>
			<point x="47" y="288" type="qcurve"/>
			<point x="47" y="336"/>
			<point x="76" y="426"/>
			<point x="138" y="495"/>
			<point x="232" y="536"/>
			<point x="297" y="536" type="qcurve"/>
			<point x="356" y="536"/>
			<point x="447" y="498"/>
			<point x="510" y="433"/>
			<point x="542" y="345"/>
		</contour>
		<contour>
			<point x="170" y="290" type="qcurve"/>
			<point x="170" y="259"/>
			<point x="187" y="212"/>
			<point x="220" y="174"/>
			<point x="268" y="142"/>
			<point x="298" y="126" type="qcurve"/>
			<point x="327" y="138"/>
			<point x="372" y="174"/>
			<point x="404" y="218"/>
			<point x="420" y="267"/>
			<point x="420" y="291" type="qcurve"/>
			<point x="420" y="355"/>
			<point x="354" y="432"/>
			<point x="297" y="432" type="qcurve"/>
			<point x="263" y="432"/>
			<point x="215" y="409"/>
			<point x="184" y="370"/>
			<point x="170" y="319"/>
		</contour>
	</outline>
</glyph>
<glyph name="uni018F" format="2">
	<unicode hex="018F"/>
	<advance width="718"/>
	<outline>
		<contour>
			<point x="531" y="383" type="line"/>
			<point x="521" y="496"/>
			<point x="413" y="599"/>
			<point x="304" y="599" type="qcurve"/>
			<point x="273" y="599"/>
			<point x="220" y="589"/>
			<point x="176" y="576"/>
			<point x="142" y="561"/>
			<point x="130" y="556" type="qcurve"/>
			<point x="98" y="657" type="line"/>
			<point x="107" y="663"/>
			<point x="147" y="681"/>
			<point x="204" y="697"/>
			<point x="274" y="709"/>
			<point x="314" y="709" type="qcurve"/>
			<point x="405" y="709"/>
			<point x="537" y="654"/>
			<point x="622" y="558"/>
			<point x="663" y="426"/>
			<point x="663" y="350" type="qcurve"/>
			<point x="663" y="258"/>
			<point x="615" y="122"/>
			<point x="530" y="30"/>
			<point x="413" y="-15"/>
			<point x="345" y="-15" type="qcurve"/>
			<point x="278" y="-15"/>
			<point x="170" y="29"/>
			<point x="94" y="116"/>
			<point x="53" y="246"/>
			<point x="53" y="332" type="qcurve"/>
			<point x="53" y="342"/>
			<point x="56" y="374"/>
			<point x="58" y="383" type="qcurve"/>
		</contour>
		<contour>
			<point x="185" y="279" type="line"/>
			<point x="188" y="194"/>
			<point x="271" y="93"/>
			<point x="347" y="93" type="qcurve"/>
			<point x="392" y="93"/>
			<point x="456" y="125"/>
			<point x="500" y="177"/>
			<point x="523" y="244"/>
			<point x="527" y="279" type="qcurve"/>
		</contour>
	</outline>
</glyph>
<glyph name="uni0190" format="2">
	<unicode hex="0190"/>
	<advance width="589"/>
	<outline>
		<contour>
			<point x="368" y="310" type="line"/>
			<point x="328" y="310"/>
			<point x="258" y="301"/>
			<point x="207" y="277"/>
			<point x="178" y="233"/>
			<point x="178" y="199" type="qcurve"/>
			<point x="178" y="141"/>
			<point x="266" y="94"/>
			<point x="342" y="94" type="qcurve"/>
			<point x="371" y="94"/>
			<point x="426" y="104"/>
			<point x="474" y="118"/>
			<point x="513" y="133"/>
			<point x="525" y="139" type="qcurve"/>
			<point x="563" y="38" type="line"/>
			<point x="547" y="30"/>
			<point x="499" y="11"/>
			<point x="441" y="-5"/>
			<point x="373" y="-15"/>
			<point x="336" y="-15" type="qcurve"/>
			<point x="269" y="-15"/>
			<point x="162" y="9"/>
			<point x="87" y="60"/>
			<point x="47" y="139"/>
			<point x="47" y="195" type="qcurve"/>
			<point x="47" y="231"/>
			<point x="68" y="288"/>
			<point x="104" y="332"/>
			<point x="152" y="362"/>
			<point x="179" y="372" type="qcurve"/>
			<point x="128" y="394"/>
			<point x="77" y="473"/>
			<point x="77" y="517" type="qcurve"/>
			<point x="77" y="565"/>
			<point x="115" y="637"/>
			<point x="182" y="685"/>
			<point x="274" y="708"/>
			<point x="328" y="708" type="qcurve"/>
			<point x="395" y="708"/>
			<point x="506" y="679"/>
			<point x="538" y="659" type="qcurve"/>
			<point x="498" y="558" type="line"/>
			<point x="469" y="575"/>
			<point x="384" y="600"/>
			<point x="329" y="600" type="qcurve"/>
			<point x="273" y="600"/>
			<point x="207" y="554"/>
			<point x="207" y="515" type="qcurve"/>
			<point x="207" y="482"/>
			<point x="240" y="442"/>
			<point x="294" y="421"/>
			<point x="361" y="414"/>
			<point x="394" y="414" type="qcurve"/>
			<point x="446" y="414" type="line"/>
			<point x="446" y="310" type="line"/>
		</contour>
	</outline>
</glyph>
<glyph name="uni0191" format="2">
	<unicode hex="0191"/>
	<advance width="565"/>
	<outline>
		<contour>
			<point x="220" y="8" type="line"/>
			<point x="220" y="-41"/>
			<point x="202" y="-114"/>
			<point x="162" y="-163"/>
			<point x="95" y="-187"/>
			<point x="47" y="-187" type="qcurve"/>
			<point x="33" y="-187"/>
			<point x="-10" y="-182"/>
			<point x="-27" y="-177" type="qcurve"/>
			<point x="-13" y="-80" type="line"/>
			<point x="-1" y="-84"/>
			<point x="21" y="-86"/>
			<point x="35" y="-86" type="qcurve"/>
			<point x="69" y="-86"/>
			<point x="94" y="-41"/>
			<point x="94" y="2" type="qcurve"/>
			<point x="94" y="693" type="line"/>
			<point x="535" y="693" type="line"/>
			<point x="535" y="587" type="line"/>
			<point x="220" y="587" type="line"/>
			<point x="220" y="408" type="line"/>
			<point x="500" y="408" type="line"/>
			<point x="500" y="303" type="line"/>
			<point x="220" y="303" type="line"/>
		</contour>
	</outline>
</glyph>
<glyph name="florin" format="2">
	<unicode hex="0192"/>
	<advance width="400"/>
	<outline>
		<contour>
			<point x="77" y="16" type="line" smooth="yes"/>
			<point x="77" y="-49"/>
			<point x="56" y="-82"/>
			<point x="1" y="-82" type="curve" smooth="yes"/>
			<point x="-18" y="-82"/>
			<point x="-36" y="-80"/>
			<point x="-52" y="-75" type="curve"/>
			<point x="-68" y="-174" type="line"/>
			<point x="-44" y="-183"/>
			<point x="-7" y="-186"/>
			<point x="10" y="-186" type="curve" smooth="yes"/>
			<point x="131" y="-186"/>
			<point x="198" y="-121"/>
			<point x="198" y="14" type="curve" smooth="yes"/>
			<point x="198" y="422" type="line"/>
			<point x="388" y="422" type="line"/>
			<point x="388" y="523" type="line"/>
			<point x="198" y="523" type="line"/>
			<point x="198" y="558" type="line" smooth="yes"/>
			<point x="198" y="626"/>
			<point x="223" y="673"/>
			<point x="301" y="673" type="curve" smooth="yes"/>
			<point x="336" y="673"/>
			<point x="367" y="665"/>
			<point x="389" y="655" type="curve"/>
			<point x="412" y="755" type="line"/>
			<point x="391" y="763"/>
			<point x="345" y="776"/>
			<point x="290" y="776" type="curve" smooth="yes"/>
			<point x="148" y="776"/>
			<point x="77" y="694"/>
			<point x="77" y="560" type="curve" smooth="yes"/>
		</contour>
	</outline>
</glyph>
